<svg width="317" height="180" viewBox="0 0 317 180" fill="none" xmlns="http://www.w3.org/2000/svg">
<path d="M84.3435 135.245C84.2301 135.245 80.7053 133.933 79.0538 134.047C77.4023 134.16 75.7509 134.086 75.7509 134.086C75.7509 134.086 71.8859 131.049 69.8647 129.21C67.8386 127.372 53.3992 111.621 51.6738 110.793C49.9484 109.97 44.1361 105.878 44.1361 105.878C44.1361 105.878 45.4869 108.091 45.413 107.978C45.339 107.865 41.8882 107.603 40.0099 108.841C38.1317 110.078 36.3717 112.627 36.3717 112.627L40.6853 114.801C40.6853 114.801 38.0577 117.764 37.1211 119.977C36.1844 122.19 34.3062 130.517 34.3062 130.517C34.3062 130.517 47.4342 127.702 53.0591 128.791C58.6839 129.881 65.6251 132.691 66.3744 133.332C67.1237 133.968 66.9364 134.194 66.9019 134.683C66.8625 135.171 67.6167 137.645 68.4006 138.848C69.1893 140.046 69.5246 140.835 70.6485 141.288C71.7725 141.737 73.1233 142.265 73.1233 142.265C73.1233 142.265 74.4346 143.763 76.0467 144.177C77.6587 144.591 77.8855 144.705 79.0489 144.626C80.2123 144.552 83.3625 144.098 83.3625 144.098C83.3625 144.098 86.064 147.362 87.3359 147.101C88.6127 146.839 89.6233 144.739 88.8345 142.299C88.0556 139.859 84.3435 135.245 84.3435 135.245Z" fill="white"/>
<path d="M250.773 133.356C250.753 132.967 219.75 129.358 219.75 129.358L200.8 135.678L230.842 141.283L250.773 133.356Z" fill="#45D62F" stroke="black" stroke-width="2" stroke-linecap="round" stroke-linejoin="round"/>
<path d="M250.773 133.356V141.491L232.242 146.529L200.8 144.769V135.678L232.178 137.793L250.773 133.356Z" fill="white" stroke="#212121" stroke-width="2" stroke-miterlimit="10" stroke-linecap="round" stroke-linejoin="round"/>
<path d="M232.178 137.793V146.351" stroke="#212121" stroke-width="2" stroke-miterlimit="10" stroke-linecap="round" stroke-linejoin="round"/>
<path d="M206.089 128.614H163.496V139.262H206.089V128.614Z" fill="#FFEC00" stroke="black" stroke-width="2" stroke-linecap="round" stroke-linejoin="round"/>
<path d="M204.206 139.262H161.613V148.727H204.206V139.262Z" fill="#45D62F" stroke="black" stroke-width="2" stroke-linecap="round" stroke-linejoin="round"/>
<path d="M219.829 41.9927C219.829 41.9927 211.68 40.6222 207.731 42.1554C203.783 43.6885 202.003 45.7048 198.695 58.7737C195.387 71.8425 217.088 54.7411 217.571 52.8875C218.054 51.0339 219.829 41.9927 219.829 41.9927Z" fill="white" stroke="#212121" stroke-width="2" stroke-miterlimit="10" stroke-linecap="round" stroke-linejoin="round"/>
<path d="M295.723 56.6687C295.827 56.3877 302.245 34.8396 302.245 34.8396C302.245 34.8396 291.686 27.2773 286.406 27.2773C281.126 27.2773 276.704 34.9825 273.993 40.8342C271.281 46.6858 271.424 51.9656 271.424 51.9656L295.723 56.6687Z" fill="white" stroke="#212121" stroke-width="2" stroke-miterlimit="10" stroke-linecap="round" stroke-linejoin="round"/>
<path d="M302.245 34.8396L315.132 44.078L313.608 49.624L298.341 48.8648L302.245 34.8396Z" fill="white" stroke="#212121" stroke-width="2" stroke-miterlimit="10" stroke-linecap="round" stroke-linejoin="round"/>
<path d="M275.56 49.2493C275.56 49.2493 283.694 29.7027 282.55 28.702C281.407 27.7012 271.276 22.5644 268.994 22.8503C266.711 23.1363 225.33 23.7081 223.334 25.4187C221.337 27.1294 217.196 48.5345 215.629 53.2424C214.061 57.9504 205.498 89.9102 206.213 92.1927C206.928 94.4752 239.03 99.469 243.166 95.6189C247.302 91.7687 275.56 49.2493 275.56 49.2493Z" fill="white" stroke="#212121" stroke-width="2" stroke-miterlimit="10" stroke-linecap="round" stroke-linejoin="round"/>
<path d="M295.723 56.6687C295.723 56.6687 260.84 40.7356 255.244 39.444C249.644 38.1524 241.678 41.3814 238.232 49.9937C234.786 58.6061 203.349 131.384 203.349 131.384L273.933 140.224L295.723 56.6687Z" fill="white" stroke="#212121" stroke-width="2" stroke-miterlimit="10" stroke-linecap="round" stroke-linejoin="round"/>
<path d="M226.854 133.978C226.854 133.978 229.816 125.331 233.874 113.44C237.931 101.549 249.826 57.6053 252.064 55.0911C254.303 52.572 261.722 56.9102 266.336 58.5913C270.95 60.2723 292.222 69.6439 292.222 69.6439" stroke="#212121" stroke-width="2" stroke-miterlimit="10" stroke-linecap="round" stroke-linejoin="round"/>
<path d="M277.872 125.977L290.759 135.22L289.24 140.761L273.973 140.002L277.872 125.977Z" fill="white" stroke="#212121" stroke-width="2" stroke-miterlimit="10" stroke-linecap="round" stroke-linejoin="round"/>
<path d="M273.79 14.026C273.79 14.026 266.036 20.1389 261.16 24.3983C256.284 28.6576 250.97 33.9423 249.698 34.0557C247.869 34.2184 245.547 31.0781 244.354 27.8097C243.156 24.5412 245.049 24.275 245.049 24.275C245.049 24.275 256.851 15.9338 260.253 13.1929C263.654 10.4519 264.966 8.04125 264.966 8.04125C264.966 8.04125 267.648 7.10459 268.412 8.44057C269.181 9.77654 273.79 14.026 273.79 14.026Z" fill="white" stroke="#212121" stroke-width="2" stroke-miterlimit="10" stroke-linecap="round" stroke-linejoin="round"/>
<path d="M291.666 5.01436C291.666 5.01436 291.104 8.31239 290.635 9.56455C290.167 10.8167 287.027 11.1717 282.393 12.0837C277.759 12.9957 276.891 14.6817 276.891 14.6817C276.891 14.6817 275.363 17.4719 272.706 16.3627C269.93 15.2042 271.572 12.1724 270.182 12.0985C268.846 12.0294 265.922 12.0492 263.783 12.0787C262.447 12.0935 261.407 10.9301 261.579 9.60399L262.309 3.9298C262.309 3.9298 267.692 3.17062 276.591 3.69318C287.081 4.3094 291.666 5.01436 291.666 5.01436Z" fill="#2563EB" stroke="black" stroke-width="2" stroke-linecap="round" stroke-linejoin="round"/>
<path d="M292.543 4.87141C292.455 5.24607 292.06 5.44819 291.621 5.33974C289.556 4.82704 262.122 4.49181 262.122 4.49181L262.388 1.88889L292.898 3.07204L292.543 4.87141Z" fill="#2563EB" stroke="black" stroke-width="2" stroke-linecap="round" stroke-linejoin="round"/>
<path d="M278.37 12.971C278.37 12.971 276.605 12.1576 274.865 9.65329" stroke="#212121" stroke-width="2" stroke-miterlimit="10" stroke-linecap="round" stroke-linejoin="round"/>
<path d="M280.869 12.2217C280.869 12.2217 279.104 11.4083 277.364 8.90396" stroke="#212121" stroke-width="2" stroke-miterlimit="10" stroke-linecap="round" stroke-linejoin="round"/>
<path d="M283.699 11.5759C283.699 11.5759 281.935 10.7625 280.194 8.25818" stroke="#212121" stroke-width="2" stroke-miterlimit="10" stroke-linecap="round" stroke-linejoin="round"/>
<path d="M288.777 105.769C288.777 105.769 282.25 107.303 275.994 108.959C269.738 110.62 262.634 113.006 261.441 112.548C259.73 111.882 259.035 108.042 259.415 104.581C259.79 101.121 261.604 101.717 261.604 101.717C261.604 101.717 275.88 99.4592 280.14 98.5078C284.399 97.5563 286.647 95.9738 286.647 95.9738C286.647 95.9738 289.462 96.3189 289.56 97.857C289.654 99.3951 288.777 105.769 288.777 105.769Z" fill="white" stroke="#212121" stroke-width="2" stroke-miterlimit="10" stroke-linecap="round" stroke-linejoin="round"/>
<path d="M287.288 98.5965C287.298 99.0402 284.779 100.529 285.351 102.777C285.927 105.025 288.875 107.47 288.875 107.47C288.875 107.47 293.628 105.784 295.595 105.459C297.562 105.133 304.616 105.119 306.011 105.069C307.406 105.02 311.173 104.64 312.598 103.127C313.583 102.077 316.96 97.8324 311.483 94.9682C306.095 92.1484 303.315 92.4589 300.027 91.7687C296.733 91.0786 293.795 89.0771 292.824 89.2694C291.853 89.4616 285.755 94.8992 285.444 96.1267C285.134 97.3542 287.288 98.5965 287.288 98.5965Z" fill="#2563EB" stroke="black" stroke-width="2" stroke-linecap="round" stroke-linejoin="round"/>
<path d="M291.35 90.8962C291.35 90.8962 295.772 93.1737 299.292 93.8097C302.812 94.4456 313.041 95.6091 313.741 101.091" stroke="#212121" stroke-width="2" stroke-miterlimit="10" stroke-linecap="round" stroke-linejoin="round"/>
<path d="M290.734 100.154C290.734 100.154 289.422 102.452 291.991 105.03" stroke="#212121" stroke-width="2" stroke-miterlimit="10" stroke-linecap="round" stroke-linejoin="round"/>
<path d="M293.558 99.6219C293.558 99.6219 292.247 101.919 294.815 104.497" stroke="#212121" stroke-width="2" stroke-miterlimit="10" stroke-linecap="round" stroke-linejoin="round"/>
<path d="M296.516 99.4592C296.516 99.4592 295.205 101.757 297.773 104.335" stroke="#212121" stroke-width="2" stroke-miterlimit="10" stroke-linecap="round" stroke-linejoin="round"/>
<path d="M210.827 81.2535C210.827 81.2535 226.504 89.3975 231.611 92.597C236.723 95.7964 242.244 99.9965 242.244 99.9965C242.244 99.9965 262.59 99.05 267.973 97.4676C273.356 95.8851 276.59 95.8605 276.59 95.8605C276.59 95.8605 278.932 99.6958 280.81 103.536C282.688 107.376 283.181 111.069 283.181 111.069C283.181 111.069 264.566 115.373 254.865 116.063C245.163 116.753 241.308 116.782 236.831 115.89C232.355 114.998 219.232 111.863 213.045 109.136C206.858 106.41 196.008 98.0148 196.008 98.0148C196.008 98.0148 194.559 90.0137 197.62 86.7502C200.676 83.4867 210.827 81.2535 210.827 81.2535Z" fill="#808080" stroke="#212121" stroke-width="2" stroke-miterlimit="10"/>
<path d="M177.497 70.0974C177.497 70.0974 187.327 62.5598 196.185 57.9701C202.752 54.5637 218.315 47.2528 221.229 44.9259C224.142 42.5941 228.683 40.499 229.264 39.6856C229.846 38.8721 244.872 21.9827 249.762 17.9058C254.653 13.8288 256.984 12.6654 256.984 12.6654C256.984 12.6654 261.273 13.8091 264.034 16.0818C266.795 18.3593 267.041 21.8496 267.041 21.8496C267.041 21.8496 259.932 27.9576 256.866 31.4035C254.717 33.824 251.034 39.4785 251.034 39.4785C251.034 39.4785 244.354 48.85 239.627 54.682C234.899 60.5139 218.749 76.3336 208.717 83.9008C203.324 87.9679 193.306 93.9329 192.7 93.9329C192.094 93.9329 177.497 70.0974 177.497 70.0974Z" fill="#808080" stroke="#212121" stroke-width="2" stroke-miterlimit="10"/>
<path d="M148.125 119.173C148.125 119.173 164.196 130.024 168.515 131.932C172.833 133.84 177.152 135.447 182.88 132.637C188.603 129.822 196.816 130.389 201.465 131.232C205.592 131.981 209.156 129.141 212.414 123.196C213.987 120.327 215.259 113.164 214.155 110.251C213.05 107.337 195.254 96.3239 184.808 98.3352C174.361 100.342 148.125 119.173 148.125 119.173Z" fill="white" stroke="#212121" stroke-width="2" stroke-miterlimit="10" stroke-linecap="round" stroke-linejoin="round"/>
<path d="M199.188 100.697C199.188 100.697 192.242 97.9655 186.42 99.9226C180.597 101.885 174.125 104.912 172.463 105.922C170.802 106.933 169.614 109.191 168.248 110.734C166.883 112.277 165.399 114.416 163.023 115.604C160.647 116.792 149.303 120.712 146.217 120.889C143.131 121.066 139.803 121.007 139.803 121.007C139.803 121.007 137.546 131.813 137.191 134.544C136.836 137.276 136.062 142.619 133.449 145.232C130.836 147.845 128.938 147.727 126.68 147.012C124.423 146.297 124.423 146.598 123.412 145.587C122.401 144.577 120.144 141.905 120.144 141.905C120.144 141.905 107.913 143.566 104.999 144.458C102.091 145.351 92.586 146.42 90.9838 146.834C89.3817 147.249 87.5971 147.249 87.5971 147.249C87.5971 147.249 88.726 146.297 88.0112 144.103C87.2964 141.905 83.5596 134.781 83.5596 134.781L100.898 133.948L112.123 129.137C112.123 129.137 109.628 123.615 108.854 122.309C108.08 121.002 107.725 120.47 106.892 119.578C106.059 118.685 105.231 117.024 105.172 116.191C105.113 115.358 104.994 114.293 104.994 114.293L111.349 111.291L110.915 107.278C110.915 107.278 114.124 108.081 114.992 106.538C115.86 104.995 116.101 99.0057 116.476 97.2753C116.845 95.545 125.616 88.4461 130.743 87.2728C135.87 86.0995 138.832 87.2087 146.922 84.5565C155.012 81.8993 154.519 81.5937 158.039 79.3703C161.559 77.147 177.674 65.8479 177.674 65.8479C177.674 65.8479 192.311 82.5846 193.543 84.0635C194.78 85.5474 197.063 87.9531 197.743 89.9299C198.429 91.8969 199.188 100.697 199.188 100.697Z" fill="#2563EB"/>
<path d="M116.382 88.9341C116.338 89.082 116.772 91.9216 115.732 93.435C114.691 94.9485 113.424 94.8055 113.424 94.8055L116.22 96.8711C116.22 96.8711 117.432 105.661 114.514 107.544C113.533 108.18 112.36 108.441 111.117 108.466C110.506 108.476 111.857 110.699 110.797 111.572C109.318 112.789 106.291 115.392 102.15 109.481C100.287 106.824 99.3745 106.829 100.38 105.059C100.829 104.271 106.828 102.422 106.828 102.422C106.828 102.422 104.477 103.418 102.781 103.3C101.09 103.176 99.0344 100.588 97.5505 98.1923C96.0716 95.7964 93.1729 85.3305 93.1729 85.3305C93.1729 85.3305 98.7139 83.9797 101.701 83.6494C104.694 83.3191 108.46 85.4931 110.767 84.8818C113.079 84.2656 116.382 88.9341 116.382 88.9341Z" fill="white"/>
<path d="M132.207 83.5705C132.345 83.6198 134.415 84.3149 136.308 82.8656C140.095 79.9816 139.276 73.2574 139.276 73.2574C139.276 73.2574 135.283 77.2752 131.763 75.7026C128.238 74.1251 123.131 70.6644 115.332 74.0314C111.28 75.7765 110.442 75.3279 105.837 74.9188C101.233 74.5047 98.635 77.709 98.635 77.709C98.635 77.709 95.83 76.5062 92.8771 79.8732C90.7474 82.3036 90.4861 85.1678 90.5699 86.6221C90.703 88.8651 92.0538 91.0342 100.4 87.1002C102.855 85.9467 106.794 87.9925 109.722 89.8609C111.817 91.192 112.266 88.8306 113.7 89.3088C114.78 89.6687 115.781 91.2511 115.14 92.4786C114.386 93.9132 112.803 94.845 112.803 94.845C112.803 94.845 113.696 97.8472 114.307 98.0641C116.328 98.7937 119.458 96.2549 122.495 92.523C123.782 90.9406 125.389 91.1575 127.149 91.5272C129.353 91.9955 130.831 90.5807 131.241 90.3441C131.3 90.3095 130.555 90.3884 129.959 90.2701C129.481 90.1715 129.116 89.8757 129.175 89.8708C130.605 89.7032 131.374 89.6637 133.119 89.1905C136.831 88.1848 136.141 83.8614 136.141 83.8614C136.141 83.8614 134.987 84.6699 133.903 84.4776C132.779 84.2804 132.256 83.6396 132.207 83.5705Z" fill="black"/>
<path d="M93.0791 87.1939C93.0791 87.1939 98.0089 102.328 102.16 103.102C106.641 103.935 110.417 99.1191 110.417 99.1191" stroke="black" stroke-width="2" stroke-miterlimit="10" stroke-linecap="round" stroke-linejoin="round"/>
<path d="M100.402 99.4393C100.926 99.2914 101.198 98.6299 101.01 97.9617C100.821 97.2936 100.243 96.8718 99.7194 97.0196C99.1953 97.1674 98.9233 97.8289 99.1118 98.4971C99.3003 99.1653 99.8779 99.5871 100.402 99.4393Z" stroke="black" stroke-width="2" stroke-miterlimit="10" stroke-linecap="round" stroke-linejoin="round"/>
<path d="M98.497 95.2541C97.8216 95.3133 97.4469 95.1851 97.5258 94.8351C97.6441 94.3027 97.7132 92.311 97.7132 92.311C97.7132 92.311 97.511 90.9997 96.3723 90.768C94.9574 90.4821 94.6616 91.0046 94.6616 91.0046" stroke="black" stroke-width="2" stroke-miterlimit="10" stroke-linecap="round" stroke-linejoin="round"/>
<path d="M100.632 91.2462C100.632 91.2462 101.519 89.8905 103.826 90.8271" stroke="black" stroke-width="2" stroke-miterlimit="10" stroke-linecap="round" stroke-linejoin="round"/>
<path d="M105.951 106.119C105.951 106.119 109.904 106.055 108.499 104.271C107.094 102.486 101.598 103.152 100.449 105.128C99.3004 107.105 100.321 108.224 101.534 109.117C102.746 110.009 105.694 113.006 105.694 113.006" stroke="#212121" stroke-width="2" stroke-miterlimit="10" stroke-linecap="round" stroke-linejoin="round"/>
<path d="M109.076 105.163C109.076 105.163 110.097 104.655 110.481 105.927C110.866 107.204 111.309 111.222 111.309 111.222" stroke="#212121" stroke-width="2" stroke-miterlimit="10" stroke-linecap="round" stroke-linejoin="round"/>
<path d="M75.8296 134.229C75.8296 134.229 80.5178 133.785 82.82 135.028" stroke="black" stroke-width="2" stroke-miterlimit="10" stroke-linecap="round" stroke-linejoin="round"/>
<path d="M86.8872 143.078C86.8872 143.078 80.6017 144.552 78.7432 144.641C76.8847 144.729 76.1846 142.107 75.2085 140.514C74.2324 138.922 74.3261 137.419 75.1198 137.152C75.9135 136.886 78.3932 139.982 78.3932 139.982" stroke="black" stroke-width="2" stroke-miterlimit="10" stroke-linecap="round" stroke-linejoin="round"/>
<path d="M74.6367 139.386C74.6367 139.386 73.2612 137.325 72.645 138.124C72.0239 138.922 72.4676 140.864 73.3549 142.279C74.2373 143.694 76.717 144.582 77.5995 144.493" stroke="black" stroke-width="2" stroke-miterlimit="10" stroke-linecap="round" stroke-linejoin="round"/>
<path d="M72.0239 139.627C72.0239 139.627 69.1055 134.85 67.8681 134.495C66.6307 134.14 66.8969 135.999 67.5131 137.236C68.1343 138.474 69.0167 140.066 69.9879 140.864C70.9591 141.663 73.35 142.279 73.35 142.279" stroke="black" stroke-width="2" stroke-miterlimit="10" stroke-linecap="round" stroke-linejoin="round"/>
<path d="M76.0166 134.006C76.0166 134.006 72.9059 133.848 70.5889 135.125C68.2768 136.402 67 138.798 67 138.798L71.6291 141.031" stroke="black" stroke-width="2" stroke-miterlimit="10" stroke-linecap="round" stroke-linejoin="round"/>
<path d="M142.786 110.039C142.53 112.41 139.567 119.775 139.143 123.669C138.719 127.564 136.855 134.609 136.5 138.434C136.145 142.26 132.379 147.214 130.289 147.51C128.199 147.806 124.758 146.706 123.54 145.72C120.198 142.999 109.564 125.178 109.086 123.443C108.608 121.712 107.893 120.159 106.695 119.262C105.502 118.365 104.546 114.781 105.201 114.125C105.857 113.47 113.148 110.63 113.148 110.63C112.887 110.285 113.626 111.478 115.943 114.357C117.264 115.994 118.147 117.911 118.906 119.607C119.67 121.298 123.141 125.789 123.141 125.789" stroke="black" stroke-width="2" stroke-miterlimit="10" stroke-linecap="round" stroke-linejoin="round"/>
<path d="M116.708 98.6902C116.451 98.6902 116.451 102.668 117.891 105.971C119.33 109.274 121.534 112.913 122.461 115.284C123.388 117.655 123.392 125.36 123.56 128.491C123.728 131.621 124.235 135.348 124.235 135.348" stroke="black" stroke-width="2" stroke-miterlimit="10" stroke-linecap="round" stroke-linejoin="round"/>
<path d="M111.684 129.452C111.684 129.452 102.49 133.746 101.08 134.017C99.6703 134.283 84.5063 134.421 84.038 134.485C83.5696 134.554 83.0964 134.687 84.3732 136.433C85.65 138.178 88.0853 143.798 88.1297 145.089C88.1691 146.277 88.1987 147.101 87.2571 147.239C86.3155 147.377 83.2295 144.089 83.2295 144.089" stroke="black" stroke-width="2" stroke-miterlimit="10" stroke-linecap="round" stroke-linejoin="round"/>
<path d="M87.2617 147.234C87.2617 147.234 99.9411 146.095 103.836 144.818C107.725 143.541 115.243 142.94 116.717 142.472C118.191 142.003 119.468 141.801 119.468 141.801" stroke="black" stroke-width="2" stroke-miterlimit="10" stroke-linecap="round" stroke-linejoin="round"/>
<path d="M134.396 87.2629C134.396 87.2629 148.371 85.1579 153.321 82.3134C158.27 79.4689 177.536 65.7493 177.536 65.7493C177.536 65.7493 189.461 79.045 193.006 83.3782C196.55 87.7115 197.733 88.3672 198.128 92.0448C198.522 95.7224 199.705 100.978 199.705 100.978C199.705 100.978 194.322 98.7444 188.934 99.2719C183.545 99.7994 174.356 104.527 171.334 106.888C168.312 109.25 167.129 113.849 162.402 115.821C157.674 117.793 148.983 120.633 145.66 120.771C142.337 120.909 139.754 120.953 139.754 120.953" stroke="#212121" stroke-width="2" stroke-miterlimit="10" stroke-linecap="round" stroke-linejoin="round"/>
<path d="M30.1448 118.752L21.7816 95.2331L2.12525 130.14L15.7501 161.373L49.8149 168.953L58.3927 119.172L30.1448 118.752Z" stroke="black" stroke-width="2" stroke-linecap="round" stroke-linejoin="round"/>
<path d="M30.145 118.752L15.7503 161.373" stroke="black" stroke-width="2" stroke-linecap="round" stroke-linejoin="round"/>
<path d="M21.5818 104.514L26.7484 118.679L15.8953 149.563L7.9681 129.469L21.5818 104.514Z" stroke="#2563EB" stroke-width="2" stroke-linecap="round" stroke-linejoin="round"/>
<path d="M34.5542 125.051L26.4297 153.674" stroke="black" stroke-width="2" stroke-linecap="round" stroke-linejoin="round"/>
<path d="M39.5571 129.269L34.519 150.564" stroke="black" stroke-width="2" stroke-linecap="round" stroke-linejoin="round"/>
<path d="M45.3633 130.018L40.3305 151.311" stroke="black" stroke-width="2" stroke-linecap="round" stroke-linejoin="round"/>
</svg>
