<svg width="16" height="16" viewBox="0 0 16 16" fill="none" xmlns="http://www.w3.org/2000/svg">
<g clip-path="url(#clip0_46_83244)">
<path d="M6.58675 6.58667C6.39025 6.76977 6.23265 6.99057 6.12334 7.2359C6.01402 7.48123 5.95524 7.74607 5.95051 8.01461C5.94577 8.28315 5.99517 8.54989 6.09576 8.79893C6.19635 9.04796 6.34607 9.27419 6.53598 9.46411C6.7259 9.65402 6.95212 9.80374 7.20116 9.90433C7.45019 10.0049 7.71694 10.0543 7.98548 10.0496C8.25402 10.0448 8.51885 9.98606 8.76419 9.87675C9.00952 9.76744 9.23032 9.60983 9.41342 9.41334" stroke="#6B7280" stroke-linecap="round" stroke-linejoin="round"/>
<path d="M7.15332 3.38668C7.43419 3.35168 7.71694 3.33387 7.99999 3.33334C12.6667 3.33334 14.6667 8.00001 14.6667 8.00001C14.3686 8.63809 13.9948 9.23797 13.5533 9.78668" stroke="#6B7280" stroke-linecap="round" stroke-linejoin="round"/>
<path d="M4.40659 4.40668C3.08075 5.30976 2.01983 6.55018 1.33325 8.00001C1.33325 8.00001 3.33325 12.6667 7.99992 12.6667C9.27719 12.6701 10.5271 12.2967 11.5933 11.5933" stroke="#6B7280" stroke-linecap="round" stroke-linejoin="round"/>
<path d="M1.33325 1.33334L14.6666 14.6667" stroke="#6B7280" stroke-linecap="round" stroke-linejoin="round"/>
</g>
<defs>
<clipPath id="clip0_46_83244">
<rect width="16" height="16" fill="white"/>
</clipPath>
</defs>
</svg>
