<svg width="189" height="41" viewBox="0 0 189 41" fill="none" xmlns="http://www.w3.org/2000/svg">
<path d="M184.521 5H4.60891C2.68753 5 1.12995 6.20539 1.12995 7.69231C0.906101 17.3052 1.01574 22.6948 1.12995 32.3077C1.12995 33.7946 2.68753 35 4.60891 35H184.521C186.442 35 188 33.7946 188 32.3077V7.69231C188 6.20539 186.442 5 184.521 5Z" fill="white"/>
<mask id="mask0_412_124" style="mask-type:luminance" maskUnits="userSpaceOnUse" x="22" y="13" width="14" height="14">
<path d="M36 13H22V27H36V13Z" fill="white"/>
</mask>
<g mask="url(#mask0_412_124)">
<path d="M35.72 20.1591C35.72 19.6627 35.6755 19.1855 35.5927 18.7273H29V21.435H32.7673C32.605 22.31 32.1119 23.0514 31.3705 23.5477V25.3041H33.6327C34.9564 24.0855 35.72 22.2909 35.72 20.1591Z" fill="#4285F4"/>
<path d="M29 27C30.89 27 32.4745 26.3731 33.6327 25.3041L31.3704 23.5477C30.7436 23.9677 29.9418 24.2159 29 24.2159C27.1768 24.2159 25.6336 22.9845 25.0831 21.33H22.7445V23.1436C23.8964 25.4314 26.2636 27 29 27Z" fill="#34A853"/>
<path d="M25.0831 21.33C24.9431 20.91 24.8636 20.4614 24.8636 20C24.8636 19.5386 24.9431 19.09 25.0831 18.67V16.8564H22.7445C22.2705 17.8014 22 18.8705 22 20C22 21.1295 22.2705 22.1986 22.7445 23.1436L25.0831 21.33Z" fill="#FBBC04"/>
<path d="M29 15.7841C30.0277 15.7841 30.9504 16.1373 31.6759 16.8309L33.6836 14.8231C32.4714 13.6936 30.8868 13 29 13C26.2636 13 23.8964 14.5686 22.7445 16.8564L25.0831 18.67C25.6336 17.0155 27.1768 15.7841 29 15.7841Z" fill="#E94235"/>
</g>
<path d="M49.5925 21.5556H51.1358C51.0864 22.1441 50.9217 22.6687 50.6419 23.1296C50.3621 23.5864 49.9691 23.9465 49.463 24.2099C48.9567 24.4733 48.3415 24.6049 47.6172 24.6049C47.0617 24.6049 46.5617 24.5061 46.1173 24.3086C45.6728 24.107 45.2922 23.823 44.9752 23.4568C44.6584 23.0864 44.4156 22.6399 44.2469 22.1172C44.0823 21.5947 44 21.0103 44 20.3642V19.6173C44 18.9712 44.0843 18.3869 44.253 17.8642C44.4259 17.3416 44.6728 16.895 44.9938 16.5247C45.3148 16.1502 45.6995 15.8642 46.1481 15.6667C46.6008 15.4691 47.109 15.3704 47.6728 15.3704C48.3888 15.3704 48.9938 15.5021 49.4876 15.7655C49.9815 16.0288 50.3641 16.393 50.6358 16.858C50.9115 17.3231 51.0802 17.856 51.1419 18.4568H49.5988C49.5576 18.0699 49.467 17.7387 49.3271 17.4629C49.1913 17.1872 48.9897 16.9774 48.7222 16.8334C48.4547 16.6852 48.1049 16.6111 47.6728 16.6111C47.3189 16.6111 47.0102 16.677 46.7469 16.8086C46.4835 16.9404 46.2634 17.1338 46.0864 17.3889C45.9094 17.6441 45.7757 17.9589 45.6852 18.3333C45.5988 18.7037 45.5555 19.1276 45.5555 19.6049V20.3642C45.5555 20.8168 45.5946 21.2284 45.6728 21.5987C45.7552 21.965 45.8786 22.2798 46.0432 22.5432C46.2119 22.8066 46.4259 23.0103 46.6852 23.1543C46.9444 23.2984 47.2551 23.3703 47.6172 23.3703C48.0576 23.3703 48.4136 23.3004 48.6851 23.1605C48.9609 23.0206 49.1687 22.8169 49.3086 22.5494C49.4527 22.2778 49.5473 21.9465 49.5925 21.5556ZM52.1111 21.2161V21.0741C52.1111 20.5926 52.1811 20.1461 52.3209 19.7346C52.4609 19.3189 52.6625 18.9588 52.9259 18.6543C53.1934 18.3457 53.5185 18.107 53.9012 17.9383C54.288 17.7654 54.7243 17.679 55.2098 17.679C55.6995 17.679 56.1357 17.7654 56.5184 17.9383C56.9053 18.107 57.2324 18.3457 57.5 18.6543C57.7675 18.9588 57.9712 19.3189 58.1111 19.7346C58.251 20.1461 58.3209 20.5926 58.3209 21.0741V21.2161C58.3209 21.6975 58.251 22.1441 58.1111 22.5556C57.9712 22.9671 57.7675 23.3272 57.5 23.6358C57.2324 23.9403 56.9074 24.179 56.5247 24.3518C56.142 24.5206 55.7078 24.6049 55.2222 24.6049C54.7325 24.6049 54.2942 24.5206 53.9073 24.3518C53.5246 24.179 53.1996 23.9403 52.9321 23.6358C52.6645 23.3272 52.4609 22.9671 52.3209 22.5556C52.1811 22.1441 52.1111 21.6975 52.1111 21.2161ZM53.5987 21.0741V21.2161C53.5987 21.5165 53.6296 21.8004 53.6913 22.0679C53.753 22.3354 53.8497 22.5699 53.9815 22.7716C54.1131 22.9733 54.2819 23.1317 54.4876 23.2469C54.6934 23.3621 54.9382 23.4197 55.2222 23.4197C55.4979 23.4197 55.7366 23.3621 55.9383 23.2469C56.144 23.1317 56.3127 22.9733 56.4444 22.7716C56.576 22.5699 56.6728 22.3354 56.7345 22.0679C56.8004 21.8004 56.8333 21.5165 56.8333 21.2161V21.0741C56.8333 20.7777 56.8004 20.4979 56.7345 20.2346C56.6728 19.9671 56.5741 19.7304 56.4383 19.5247C56.3065 19.3189 56.1378 19.1584 55.932 19.0432C55.7304 18.9239 55.4897 18.8642 55.2098 18.8642C54.93 18.8642 54.6872 18.9239 54.4815 19.0432C54.2798 19.1584 54.1131 19.3189 53.9815 19.5247C53.8497 19.7304 53.753 19.9671 53.6913 20.2346C53.6296 20.4979 53.5987 20.7777 53.5987 21.0741ZM61.0432 19.2284V24.4815H59.5555V17.8025H60.9568L61.0432 19.2284ZM60.7777 20.895L60.2962 20.8889C60.3004 20.4156 60.3662 19.9815 60.4938 19.5864C60.6255 19.1914 60.8065 18.8518 61.037 18.5679C61.2715 18.2839 61.5514 18.0659 61.8765 17.9136C62.2016 17.7572 62.5637 17.679 62.963 17.679C63.2839 17.679 63.574 17.7243 63.8333 17.8148C64.0967 17.9012 64.321 18.0432 64.5061 18.2408C64.6954 18.4383 64.8395 18.6954 64.9383 19.0124C65.037 19.3251 65.0863 19.7099 65.0863 20.1667V24.4815H63.5925V20.1605C63.5925 19.8395 63.5452 19.5864 63.4506 19.4012C63.36 19.2119 63.2263 19.0782 63.0494 19C62.8765 18.9177 62.6604 18.8766 62.4012 18.8766C62.146 18.8766 61.9176 18.93 61.716 19.037C61.5144 19.144 61.3436 19.2901 61.2036 19.4753C61.0678 19.6605 60.9629 19.8745 60.8889 20.1173C60.8148 20.3601 60.7777 20.6194 60.7777 20.895ZM69.6666 17.8025V18.8889H65.9012V17.8025H69.6666ZM66.9876 16.1667H68.4753V22.6358C68.4753 22.8415 68.5041 23 68.5617 23.1111C68.6234 23.2181 68.7077 23.2902 68.8147 23.3272C68.9217 23.3642 69.0473 23.3827 69.1913 23.3827C69.2942 23.3827 69.3929 23.3766 69.4877 23.3642C69.5823 23.3518 69.6584 23.3395 69.716 23.3272L69.7222 24.463C69.5987 24.5 69.4547 24.5329 69.2901 24.5618C69.1296 24.5906 68.9444 24.6049 68.7346 24.6049C68.3929 24.6049 68.0905 24.5452 67.8271 24.4259C67.5637 24.3025 67.358 24.1028 67.2098 23.8272C67.0617 23.5515 66.9876 23.1852 66.9876 22.7284V16.1667ZM72.4073 17.8025V24.4815H70.9136V17.8025H72.4073ZM70.8148 16.0494C70.8148 15.8231 70.8888 15.6358 71.037 15.4876C71.1893 15.3354 71.3991 15.2593 71.6666 15.2593C71.93 15.2593 72.1378 15.3354 72.2901 15.4876C72.4423 15.6358 72.5185 15.8231 72.5185 16.0494C72.5185 16.2716 72.4423 16.4568 72.2901 16.6049C72.1378 16.7531 71.93 16.8271 71.6666 16.8271C71.3991 16.8271 71.1893 16.7531 71.037 16.6049C70.8888 16.4568 70.8148 16.2716 70.8148 16.0494ZM75.5123 19.2284V24.4815H74.0247V17.8025H75.4259L75.5123 19.2284ZM75.2469 20.895L74.7654 20.8889C74.7695 20.4156 74.8354 19.9815 74.9629 19.5864C75.0946 19.1914 75.2757 18.8518 75.5061 18.5679C75.7407 18.2839 76.0206 18.0659 76.3457 17.9136C76.6707 17.7572 77.0328 17.679 77.432 17.679C77.7531 17.679 78.0432 17.7243 78.3024 17.8148C78.5658 17.9012 78.7901 18.0432 78.9753 18.2408C79.1645 18.4383 79.3086 18.6954 79.4074 19.0124C79.5061 19.3251 79.5555 19.7099 79.5555 20.1667V24.4815H78.0617V20.1605C78.0617 19.8395 78.0144 19.5864 77.9197 19.4012C77.8292 19.2119 77.6954 19.0782 77.5185 19C77.3456 18.9177 77.1295 18.8766 76.8703 18.8766C76.6152 18.8766 76.3868 18.93 76.1851 19.037C75.9835 19.144 75.8127 19.2901 75.6728 19.4753C75.537 19.6605 75.4321 19.8745 75.3579 20.1173C75.2839 20.3601 75.2469 20.6194 75.2469 20.895ZM85.0925 22.9074V17.8025H86.5864V24.4815H85.179L85.0925 22.9074ZM85.3024 21.5186L85.8024 21.5062C85.8024 21.9547 85.753 22.3683 85.6543 22.7469C85.5555 23.1214 85.4033 23.4485 85.1975 23.7284C84.9917 24.0042 84.7284 24.2201 84.4073 24.3765C84.0863 24.5288 83.7016 24.6049 83.253 24.6049C82.928 24.6049 82.6296 24.5576 82.358 24.463C82.0864 24.3683 81.8518 24.2222 81.6543 24.0246C81.4609 23.8272 81.3107 23.57 81.2037 23.253C81.0967 22.9362 81.0431 22.5576 81.0431 22.1172V17.8025H82.5308V22.1296C82.5308 22.3724 82.5596 22.5762 82.6172 22.7408C82.6748 22.9012 82.7531 23.0309 82.8518 23.1296C82.9505 23.2284 83.0658 23.2984 83.1975 23.3395C83.3292 23.3806 83.469 23.4012 83.6172 23.4012C84.0411 23.4012 84.3745 23.319 84.6172 23.1543C84.8642 22.9856 85.0391 22.7593 85.1419 22.4753C85.2489 22.1914 85.3024 21.8724 85.3024 21.5186ZM91.0555 24.6049C90.5616 24.6049 90.1152 24.5247 89.716 24.3642C89.3209 24.1996 88.9835 23.9712 88.7036 23.679C88.4279 23.3869 88.216 23.0432 88.0678 22.6481C87.9197 22.2531 87.8456 21.8271 87.8456 21.3704V21.1234C87.8456 20.6008 87.9217 20.1276 88.0741 19.7037C88.2263 19.2798 88.4382 18.9177 88.7099 18.6173C88.9814 18.3127 89.3024 18.0802 89.6728 17.9198C90.0431 17.7593 90.4444 17.679 90.8765 17.679C91.3538 17.679 91.7716 17.7593 92.1296 17.9198C92.4876 18.0802 92.7839 18.3066 93.0184 18.5988C93.2572 18.8869 93.4341 19.2305 93.5493 19.6297C93.6687 20.0288 93.7284 20.4691 93.7284 20.9506V21.5864H88.5678V20.5185H92.2592V20.4012C92.251 20.1337 92.1975 19.8827 92.0987 19.6482C92.0041 19.4136 91.858 19.2243 91.6604 19.0803C91.4629 18.9362 91.1995 18.8642 90.8703 18.8642C90.6234 18.8642 90.4032 18.9177 90.2098 19.0247C90.0206 19.1276 89.8621 19.2778 89.7345 19.4753C89.607 19.6728 89.5082 19.9115 89.4382 20.1913C89.3724 20.4671 89.3394 20.7777 89.3394 21.1234V21.3704C89.3394 21.6626 89.3785 21.9341 89.4567 22.1852C89.5391 22.4321 89.6584 22.6481 89.8148 22.8333C89.9712 23.0185 90.1604 23.1646 90.3827 23.2716C90.6049 23.3745 90.858 23.426 91.1419 23.426C91.4999 23.426 91.8189 23.3539 92.0987 23.2099C92.3786 23.0658 92.6214 22.8621 92.8271 22.5987L93.6111 23.3581C93.467 23.5679 93.2797 23.7696 93.0493 23.963C92.8189 24.1522 92.5369 24.3066 92.2036 24.4259C91.8744 24.5452 91.4917 24.6049 91.0555 24.6049ZM99.8519 23L101.395 17.8025H102.346L102.086 19.358L100.531 24.4815H99.6786L99.8519 23ZM98.9444 17.8025L100.148 23.0247L100.247 24.4815H99.2966L97.4879 17.8025H98.9444ZM103.79 22.963L104.957 17.8025H106.408L104.604 24.4815H103.654L103.79 22.963ZM102.506 17.8025L104.031 22.9383L104.222 24.4815H103.37L101.796 19.3518L101.537 17.8025H102.506ZM109.012 17.8025V24.4815H107.518V17.8025H109.012ZM107.42 16.0494C107.42 15.8231 107.494 15.6358 107.642 15.4876C107.794 15.3354 108.004 15.2593 108.272 15.2593C108.535 15.2593 108.743 15.3354 108.895 15.4876C109.047 15.6358 109.123 15.8231 109.123 16.0494C109.123 16.2716 109.047 16.4568 108.895 16.6049C108.743 16.7531 108.535 16.8271 108.272 16.8271C108.004 16.8271 107.794 16.7531 107.642 16.6049C107.494 16.4568 107.42 16.2716 107.42 16.0494ZM113.704 17.8025V18.8889H109.938V17.8025H113.704ZM111.025 16.1667H112.512V22.6358C112.512 22.8415 112.541 23 112.599 23.1111C112.66 23.2181 112.745 23.2902 112.851 23.3272C112.959 23.3642 113.084 23.3827 113.228 23.3827C113.331 23.3827 113.43 23.3766 113.524 23.3642C113.619 23.3518 113.696 23.3395 113.753 23.3272L113.759 24.463C113.635 24.5 113.492 24.5329 113.327 24.5618C113.167 24.5906 112.982 24.6049 112.771 24.6049C112.43 24.6049 112.127 24.5452 111.865 24.4259C111.601 24.3025 111.395 24.1028 111.247 23.8272C111.099 23.5515 111.025 23.1852 111.025 22.7284V16.1667ZM116.321 15V24.4815H114.839V15H116.321ZM116.062 20.895L115.58 20.8889C115.584 20.428 115.648 20.0021 115.772 19.6111C115.899 19.2202 116.076 18.8806 116.303 18.5926C116.533 18.3004 116.808 18.0762 117.13 17.9198C117.45 17.7593 117.806 17.679 118.197 17.679C118.527 17.679 118.823 17.7243 119.087 17.8148C119.354 17.9053 119.584 18.0514 119.777 18.253C119.971 18.4506 120.117 18.7099 120.216 19.0309C120.319 19.3478 120.37 19.7346 120.37 20.1913V24.4815H118.876V20.1791C118.876 19.858 118.829 19.6028 118.735 19.4136C118.644 19.2243 118.511 19.0885 118.334 19.0061C118.157 18.9197 117.94 18.8766 117.685 18.8766C117.418 18.8766 117.181 18.93 116.975 19.037C116.773 19.144 116.605 19.2901 116.469 19.4753C116.333 19.6605 116.231 19.8745 116.16 20.1173C116.094 20.3601 116.062 20.6194 116.062 20.895ZM132.074 19.8889V23.3209C131.946 23.4897 131.747 23.6749 131.475 23.8766C131.208 24.074 130.852 24.2449 130.408 24.3889C129.963 24.5329 129.41 24.6049 128.747 24.6049C128.184 24.6049 127.667 24.5103 127.197 24.321C126.728 24.1276 126.323 23.8457 125.981 23.4753C125.644 23.1049 125.382 22.6544 125.197 22.1235C125.012 21.5885 124.92 20.9794 124.92 20.2963V19.6728C124.92 18.9939 125.004 18.3889 125.173 17.858C125.345 17.3231 125.593 16.8704 125.913 16.5C126.235 16.1297 126.621 15.8498 127.074 15.6605C127.531 15.4671 128.047 15.3704 128.623 15.3704C129.36 15.3704 129.969 15.4938 130.451 15.7407C130.936 15.9835 131.311 16.321 131.574 16.7531C131.837 17.1852 132.004 17.679 132.074 18.2345H130.556C130.506 17.9218 130.409 17.642 130.265 17.395C130.126 17.1481 129.924 16.9547 129.661 16.8148C129.401 16.6708 129.064 16.5988 128.648 16.5988C128.29 16.5988 127.975 16.6667 127.704 16.8025C127.432 16.9383 127.206 17.1378 127.025 17.4013C126.848 17.6646 126.714 17.9856 126.623 18.3642C126.533 18.7428 126.488 19.1749 126.488 19.6605V20.2963C126.488 20.7901 126.539 21.2284 126.642 21.6111C126.749 21.9938 126.901 22.3169 127.099 22.5802C127.3 22.8436 127.545 23.0432 127.833 23.179C128.121 23.3107 128.446 23.3766 128.808 23.3766C129.162 23.3766 129.452 23.3478 129.679 23.2902C129.906 23.2284 130.084 23.1564 130.216 23.0741C130.352 22.9876 130.456 22.9054 130.53 22.8272V21.0432H128.66V19.8889H132.074ZM133.358 21.2161V21.0741C133.358 20.5926 133.428 20.1461 133.568 19.7346C133.708 19.3189 133.909 18.9588 134.173 18.6543C134.44 18.3457 134.765 18.107 135.148 17.9383C135.535 17.7654 135.971 17.679 136.457 17.679C136.946 17.679 137.382 17.7654 137.765 17.9383C138.153 18.107 138.479 18.3457 138.747 18.6543C139.014 18.9588 139.218 19.3189 139.358 19.7346C139.498 20.1461 139.568 20.5926 139.568 21.0741V21.2161C139.568 21.6975 139.498 22.1441 139.358 22.5556C139.218 22.9671 139.014 23.3272 138.747 23.6358C138.479 23.9403 138.154 24.179 137.772 24.3518C137.389 24.5206 136.954 24.6049 136.469 24.6049C135.979 24.6049 135.541 24.5206 135.155 24.3518C134.772 24.179 134.447 23.9403 134.179 23.6358C133.911 23.3272 133.708 22.9671 133.568 22.5556C133.428 22.1441 133.358 21.6975 133.358 21.2161ZM134.846 21.0741V21.2161C134.846 21.5165 134.877 21.8004 134.938 22.0679C135 22.3354 135.097 22.5699 135.229 22.7716C135.36 22.9733 135.528 23.1317 135.734 23.2469C135.94 23.3621 136.185 23.4197 136.469 23.4197C136.745 23.4197 136.983 23.3621 137.185 23.2469C137.39 23.1317 137.559 22.9733 137.691 22.7716C137.823 22.5699 137.92 22.3354 137.981 22.0679C138.047 21.8004 138.08 21.5165 138.08 21.2161V21.0741C138.08 20.7777 138.047 20.4979 137.981 20.2346C137.92 19.9671 137.821 19.7304 137.685 19.5247C137.553 19.3189 137.385 19.1584 137.179 19.0432C136.977 18.9239 136.737 18.8642 136.457 18.8642C136.177 18.8642 135.934 18.9239 135.728 19.0432C135.527 19.1584 135.36 19.3189 135.229 19.5247C135.097 19.7304 135 19.9671 134.938 20.2346C134.877 20.4979 134.846 20.7777 134.846 21.0741ZM140.531 21.2161V21.0741C140.531 20.5926 140.601 20.1461 140.741 19.7346C140.881 19.3189 141.082 18.9588 141.346 18.6543C141.613 18.3457 141.938 18.107 142.321 17.9383C142.707 17.7654 143.144 17.679 143.629 17.679C144.12 17.679 144.556 17.7654 144.939 17.9383C145.325 18.107 145.652 18.3457 145.919 18.6543C146.187 18.9588 146.391 19.3189 146.531 19.7346C146.671 20.1461 146.741 20.5926 146.741 21.0741V21.2161C146.741 21.6975 146.671 22.1441 146.531 22.5556C146.391 22.9671 146.187 23.3272 145.919 23.6358C145.652 23.9403 145.327 24.179 144.944 24.3518C144.562 24.5206 144.128 24.6049 143.642 24.6049C143.152 24.6049 142.714 24.5206 142.327 24.3518C141.944 24.179 141.619 23.9403 141.352 23.6358C141.085 23.3272 140.881 22.9671 140.741 22.5556C140.601 22.1441 140.531 21.6975 140.531 21.2161ZM142.018 21.0741V21.2161C142.018 21.5165 142.049 21.8004 142.111 22.0679C142.173 22.3354 142.269 22.5699 142.401 22.7716C142.533 22.9733 142.702 23.1317 142.907 23.2469C143.113 23.3621 143.358 23.4197 143.642 23.4197C143.917 23.4197 144.157 23.3621 144.358 23.2469C144.564 23.1317 144.733 22.9733 144.864 22.7716C144.996 22.5699 145.092 22.3354 145.154 22.0679C145.22 21.8004 145.253 21.5165 145.253 21.2161V21.0741C145.253 20.7777 145.22 20.4979 145.154 20.2346C145.092 19.9671 144.994 19.7304 144.858 19.5247C144.726 19.3189 144.558 19.1584 144.352 19.0432C144.15 18.9239 143.909 18.8642 143.629 18.8642C143.349 18.8642 143.107 18.9239 142.901 19.0432C142.699 19.1584 142.533 19.3189 142.401 19.5247C142.269 19.7304 142.173 19.9671 142.111 20.2346C142.049 20.4979 142.018 20.7777 142.018 21.0741ZM152.266 17.8025H153.617V24.2963C153.617 24.8971 153.49 25.4074 153.234 25.8271C152.979 26.2469 152.623 26.5659 152.166 26.7839C151.71 27.0062 151.181 27.1172 150.581 27.1172C150.325 27.1172 150.041 27.0802 149.728 27.0062C149.419 26.9321 149.12 26.8127 148.827 26.6481C148.539 26.4877 148.299 26.2757 148.105 26.0123L148.803 25.1358C149.041 25.4198 149.305 25.6276 149.593 25.7592C149.881 25.891 150.183 25.9568 150.5 25.9568C150.842 25.9568 151.131 25.893 151.371 25.7654C151.613 25.642 151.801 25.4589 151.932 25.2161C152.063 24.9732 152.129 24.677 152.129 24.3272V19.3148L152.266 17.8025ZM147.728 21.2161V21.0864C147.728 20.5803 147.79 20.1194 147.913 19.7037C148.037 19.2839 148.214 18.9239 148.444 18.6235C148.675 18.319 148.954 18.0864 149.284 17.9259C149.613 17.7613 149.985 17.679 150.401 17.679C150.833 17.679 151.202 17.7572 151.506 17.9136C151.815 18.0699 152.072 18.2942 152.277 18.5864C152.483 18.8745 152.644 19.2202 152.759 19.6234C152.879 20.0227 152.967 20.4671 153.025 20.9568V21.3704C152.971 21.8477 152.88 22.2839 152.753 22.679C152.626 23.0741 152.457 23.4157 152.247 23.7037C152.037 23.9918 151.778 24.214 151.469 24.3704C151.165 24.5267 150.804 24.6049 150.389 24.6049C149.981 24.6049 149.613 24.5206 149.284 24.3518C148.959 24.1831 148.679 23.9465 148.444 23.642C148.214 23.3375 148.037 22.9794 147.913 22.5679C147.79 22.1523 147.728 21.7016 147.728 21.2161ZM149.216 21.0864V21.2161C149.216 21.5205 149.245 21.8045 149.303 22.0679C149.364 22.3313 149.456 22.5638 149.58 22.7654C149.707 22.963 149.868 23.1193 150.061 23.2345C150.259 23.3457 150.492 23.4012 150.759 23.4012C151.109 23.4012 151.395 23.3272 151.617 23.179C151.844 23.0309 152.016 22.8312 152.136 22.5802C152.259 22.3251 152.346 22.0411 152.395 21.7284V20.6111C152.37 20.3683 152.319 20.1419 152.24 19.9321C152.166 19.7222 152.066 19.5391 151.938 19.3827C151.81 19.2222 151.65 19.0988 151.456 19.0124C151.263 18.9218 151.035 18.8766 150.771 18.8766C150.504 18.8766 150.272 18.9342 150.074 19.0494C149.876 19.1646 149.714 19.323 149.586 19.5247C149.463 19.7263 149.371 19.9609 149.308 20.2284C149.247 20.4959 149.216 20.7819 149.216 21.0864ZM156.753 15V24.4815H155.259V15H156.753ZM161.327 24.6049C160.833 24.6049 160.387 24.5247 159.988 24.3642C159.592 24.1996 159.255 23.9712 158.975 23.679C158.699 23.3869 158.487 23.0432 158.339 22.6481C158.191 22.2531 158.117 21.8271 158.117 21.3704V21.1234C158.117 20.6008 158.194 20.1276 158.345 19.7037C158.498 19.2798 158.709 18.9177 158.981 18.6173C159.253 18.3127 159.574 18.0802 159.945 17.9198C160.315 17.7593 160.716 17.679 161.148 17.679C161.625 17.679 162.043 17.7593 162.401 17.9198C162.759 18.0802 163.055 18.3066 163.29 18.5988C163.529 18.8869 163.706 19.2305 163.821 19.6297C163.94 20.0288 164 20.4691 164 20.9506V21.5864H158.839V20.5185H162.531V20.4012C162.523 20.1337 162.469 19.8827 162.37 19.6482C162.275 19.4136 162.13 19.2243 161.932 19.0803C161.734 18.9362 161.471 18.8642 161.142 18.8642C160.895 18.8642 160.675 18.9177 160.481 19.0247C160.292 19.1276 160.133 19.2778 160.006 19.4753C159.879 19.6728 159.779 19.9115 159.71 20.1913C159.644 20.4671 159.611 20.7777 159.611 21.1234V21.3704C159.611 21.6626 159.65 21.9341 159.728 22.1852C159.811 22.4321 159.93 22.6481 160.086 22.8333C160.243 23.0185 160.432 23.1646 160.654 23.2716C160.877 23.3745 161.129 23.426 161.414 23.426C161.771 23.426 162.09 23.3539 162.37 23.2099C162.65 23.0658 162.893 22.8621 163.099 22.5987L163.883 23.3581C163.739 23.5679 163.551 23.7696 163.321 23.963C163.091 24.1522 162.809 24.3066 162.475 24.4259C162.146 24.5452 161.763 24.6049 161.327 24.6049Z" fill="#1F1F1F"/>
<path d="M184.519 5H4.48138C2.55867 5 1 6.20539 1 7.69231V32.3077C1 33.7946 2.55867 35 4.48138 35H184.519C186.441 35 188 33.7946 188 32.3077V7.69231C188 6.20539 186.441 5 184.519 5Z" stroke="#747775" stroke-opacity="0.2"/>
</svg>
