<svg width="46" height="46" viewBox="0 0 46 46" fill="none" xmlns="http://www.w3.org/2000/svg">
<path d="M35.6679 45.8114H10.3359C7.39986 45.8114 4.74468 44.5454 2.8899 42.5367C1.21598 40.7243 0.188538 38.3077 0.188538 35.664V10.336C0.188538 7.74235 1.17365 5.37192 2.78599 3.57487C4.64847 1.4969 7.34598 0.188553 10.3359 0.188553H35.6679C39.1542 0.188553 42.2442 1.97022 44.0721 4.67157C45.1688 6.29161 45.8114 8.2426 45.8114 10.336V35.664C45.8114 38.5655 44.58 41.1899 42.6137 43.0447C40.7935 44.7571 38.3461 45.8114 35.6679 45.8114Z" fill="url(#paint0_linear_13_2134)"/>
<path d="M35.6679 45.8114H10.3359C7.39986 45.8114 4.74468 44.5454 2.8899 42.5367C1.21598 40.7243 0.188538 38.3077 0.188538 35.664V10.336C0.188538 7.74235 1.17365 5.37192 2.78599 3.57487C4.64847 1.4969 7.34598 0.188553 10.3359 0.188553H35.6679C39.1542 0.188553 42.2442 1.97022 44.0721 4.67157C45.1688 6.29161 45.8114 8.2426 45.8114 10.336V35.664C45.8114 38.5655 44.58 41.1899 42.6137 43.0447C40.7935 44.7571 38.3461 45.8114 35.6679 45.8114Z" fill="url(#paint1_linear_13_2134)"/>
<path d="M34.1267 27.4729C34.1267 28.3426 33.7919 29.1545 33.1839 29.7625C32.5759 30.3743 31.764 30.7091 30.8943 30.7053C30.2594 30.7091 29.6514 30.5283 29.1319 30.1896C29.0395 30.1306 28.9498 30.0652 28.8625 29.9934C28.8446 29.9806 28.8279 29.9677 28.8125 29.9549C28.81 29.9523 28.8074 29.9498 28.8048 29.9472C28.8022 29.9472 28.801 29.9459 28.801 29.9434C28.7984 29.9408 28.7958 29.9395 28.7933 29.9395C28.7856 29.9344 28.7792 29.928 28.774 29.9203C28.7638 29.9126 28.7548 29.9049 28.7471 29.8972C28.7394 29.8921 28.733 29.8869 28.7279 29.8818C28.7073 29.8638 28.6868 29.8446 28.6663 29.8241C28.6612 29.8189 28.656 29.8138 28.6509 29.8087C28.6355 29.7933 28.6201 29.7779 28.6047 29.7625L26.7499 27.9116L24.2564 25.418L22.5825 23.7402C22.5004 23.6582 22.4234 23.5735 22.3516 23.4863C22.2823 23.3991 22.2169 23.3093 22.1553 23.2169C21.8205 22.6974 21.6397 22.0894 21.6397 21.4506L18.9345 18.7454C17.9263 20.9542 18.2187 23.6171 19.8041 25.5642C19.8734 25.6515 19.9452 25.7361 20.0196 25.8182C20.0915 25.8977 20.1671 25.9773 20.2467 26.0568L20.2582 26.0683L21.9167 27.7269L24.418 30.2281L26.2805 32.0906L26.292 32.1021C26.369 32.1791 26.4485 32.2548 26.5306 32.3292C26.6127 32.401 26.6961 32.4715 26.7807 32.5408C29.3436 34.6226 33.1262 34.4726 35.512 32.0906C38.0556 29.5432 38.0556 25.4026 35.512 22.859L29.4898 16.8368C27.5196 14.8666 24.5989 14.4202 22.1977 15.4977L24.9182 18.2182C25.7687 18.2298 26.5652 18.5646 27.1617 19.161L33.1839 25.1833C33.7919 25.7913 34.1267 26.6032 34.1267 27.4729Z" fill="url(#paint2_linear_13_2134)"/>
<path d="M23.8062 30.5437L21.0817 27.8231C20.2313 27.8115 19.4348 27.4767 18.8383 26.8803L12.8161 20.858C12.2081 20.25 11.8733 19.4381 11.8733 18.5684C11.8733 17.6988 12.2081 16.8868 12.8161 16.2788C13.424 15.6708 14.236 15.336 15.1057 15.336C15.7444 15.336 16.3525 15.5169 16.8719 15.8517C16.9643 15.9107 17.0541 15.9761 17.1413 16.0479C17.2285 16.1198 17.3132 16.1967 17.3953 16.2788L19.2501 18.1336L21.7436 20.6233L23.4175 22.3011C23.5022 22.3832 23.5791 22.4691 23.6484 22.5589C23.7202 22.6435 23.7857 22.7333 23.8447 22.8283C24.1833 23.3439 24.3642 23.9519 24.3603 24.5907L27.0694 27.2997C28.0737 25.0871 27.7851 22.428 26.1959 20.4771C26.1266 20.3924 26.056 20.309 25.9842 20.2269C25.9098 20.1449 25.8341 20.0653 25.7572 19.9884L25.7456 19.9768L24.0833 18.3144L21.582 15.8132L19.7234 13.9546L19.7118 13.9392C19.6323 13.8622 19.5528 13.7878 19.4732 13.716C19.3911 13.6416 19.3065 13.5698 19.2193 13.5005C16.6603 11.4187 12.8738 11.5688 10.4918 13.9546C7.94438 16.4981 7.94438 20.6387 10.4918 23.1823L16.5141 29.2045C18.4804 31.1747 21.405 31.6211 23.8062 30.5437Z" fill="url(#paint3_linear_13_2134)"/>
<defs>
<linearGradient id="paint0_linear_13_2134" x1="-31.7654" y1="48.9275" x2="50.3206" y2="-76.2702" gradientUnits="userSpaceOnUse">
<stop stop-color="#FCFCFC" stop-opacity="0.32"/>
<stop offset="1" stop-color="#001AFF"/>
</linearGradient>
<linearGradient id="paint1_linear_13_2134" x1="-31.7654" y1="48.9275" x2="50.3206" y2="-76.2702" gradientUnits="userSpaceOnUse">
<stop stop-color="#FCFCFC" stop-opacity="0.32"/>
<stop offset="1" stop-color="#001AFF"/>
</linearGradient>
<linearGradient id="paint2_linear_13_2134" x1="48.3156" y1="33.1082" x2="6.28243" y2="31.1335" gradientUnits="userSpaceOnUse">
<stop offset="0.171939" stop-color="#FF0000"/>
<stop offset="0.821852" stop-color="#F7FC24"/>
</linearGradient>
<linearGradient id="paint3_linear_13_2134" x1="-9.90008" y1="4.96455" x2="35.7795" y2="18.8436" gradientUnits="userSpaceOnUse">
<stop offset="0.495" stop-color="#3300FF"/>
<stop offset="1" stop-color="#00FFFF"/>
</linearGradient>
</defs>
</svg>
