<svg width="280" height="165" viewBox="0 0 280 165" fill="none" xmlns="http://www.w3.org/2000/svg">
<path d="M27.5084 109.711C8.30754 116.923 -8.26782 93.6201 5.31586 78.2505C5.56939 77.9631 7.81738 74.5884 8.03147 74.2785C11.0175 69.9346 12.6514 65.3654 13.5078 62.2273C13.7219 61.4385 14.8712 61.5174 14.9782 62.3287C15.4177 65.6978 15.829 70.3459 15.1923 72.8474C14.5501 75.3658 15.0853 77.518 16.86 76.7856C18.6404 76.0532 26.1675 73.5461 26.9957 62.8357C27.345 58.3623 32.348 51.6578 35.7904 47.5337C36.4777 46.7111 37.7961 47.4323 37.4806 48.4577C36.4045 51.9508 35.1706 56.6158 35.2946 59.4159C35.5143 64.3175 35.0354 70.8981 39.5258 72.3742C44.0161 73.8503 43.9316 79.0223 46.5063 79.2083C49.0811 79.3942 57.6955 71.6868 58.1913 64.8189C58.6928 57.9567 58.828 48.1872 63.9888 40.5137C66.417 36.9022 68.8115 32.9077 70.6595 29.685C71.268 28.6202 72.8849 29.1723 72.7384 30.3893C72.361 33.5162 72.4173 36.7332 73.961 37.7868C77.2457 40.0404 82.367 28.9752 80.5134 22.8002C79.4486 19.2395 80.074 13.397 80.8008 9.08135C81.0092 7.8306 82.7614 7.68411 83.1614 8.8898C84.4572 12.7604 87.0264 17.8817 92.0238 21.1945C99.917 26.4229 100.238 32.226 101.044 40.9137C101.85 49.5957 100.396 56.7341 100.396 56.7341C100.396 56.7341 104.329 56.0298 106.74 51.2409C108.261 48.2267 109.365 42.4067 109.979 38.5079C110.148 37.4375 111.619 37.291 112.002 38.2995C112.999 40.9306 114.351 44.6885 115.523 48.6492C117.433 55.0833 114.351 60.5765 111.14 65.2302C107.929 69.8839 97.5958 80.9999 87.6799 82.8648C77.764 84.7296 68.3946 87.8621 61.6112 92.6736C51.9376 99.5471 39.306 105.283 27.5084 109.711Z" fill="#FF7A00"/>
<path d="M61.5211 87.1973C61.5211 87.1973 68.2932 70.16 67.4368 65.6359C66.5804 61.1117 67.3129 47.8999 68.2932 45.5787C69.2735 43.2575 70.3721 40.3221 70.3721 40.3221C70.3721 40.3221 69.3918 47.2914 72.9413 54.7565C76.4907 62.2216 76.4907 65.0274 76.4907 65.0274C76.4907 65.0274 78.3274 62.5822 78.9359 57.9341C79.55 53.286 81.505 47.9055 81.505 47.9055C81.505 47.9055 83.584 58.3003 84.9305 62.216C86.277 66.1317 84.8065 71.146 84.8065 71.146C84.8065 71.146 87.2236 69.8558 88.356 67.2303C88.756 66.3063 89.2124 63.4386 89.2124 63.4386C89.2124 63.4386 90.6772 69.1853 87.8658 72.6108C85.0545 76.0363 79.3021 77.6251 74.2878 79.3378C69.2679 81.045 61.5211 87.1973 61.5211 87.1973Z" fill="white"/>
<path d="M28.6521 105.119C30.3423 104.409 33.103 103.153 34.5791 100.668C36.0552 98.1837 36.0552 92.5159 36.0552 92.5159C36.0552 92.5159 34.0382 94.3807 33.7227 95.8568C33.4128 97.333 31.6268 99.0401 31.6268 99.0401C31.6268 99.0401 31.086 96.1667 31.9367 93.4511C32.7875 90.7355 30.5395 86.2283 30.5395 86.2283C30.5395 86.2283 30.9282 90.4989 29.9197 92.3637C28.9112 94.2286 26.2689 96.1667 25.8012 98.7302C25.3336 101.294 22.6631 106.562 22.6631 106.562C22.6631 106.562 25.8351 106.302 28.6521 105.119Z" fill="white"/>
<path d="M246.622 126.579L257.597 138.614L216.001 151.871L208.992 139.38L246.622 126.579Z" fill="white" stroke="black" stroke-width="2" stroke-miterlimit="10" stroke-linecap="round" stroke-linejoin="round"/>
<path d="M205.82 113.165L203.347 144.676L251.129 144.062L249.275 110.9L205.82 113.165Z" fill="white" stroke="black" stroke-width="2" stroke-miterlimit="10" stroke-linecap="round" stroke-linejoin="round"/>
<path d="M78.5359 84.6226L58.9745 78.3857L32.8325 104.359L57.6223 109.249L78.5359 84.6226Z" fill="white" stroke="black" stroke-width="2" stroke-miterlimit="10" stroke-linecap="round" stroke-linejoin="round"/>
<path d="M91.8604 77.0335L46.6584 95.7554C46.6584 95.7554 86.1249 119.199 86.2939 118.692C86.4629 118.185 105.692 104.19 105.692 104.19L91.8604 77.0335Z" fill="white" stroke="black" stroke-width="2" stroke-miterlimit="10" stroke-linecap="round" stroke-linejoin="round"/>
<path d="M105.32 65.833C105.32 65.833 90.7279 78.7406 82.4459 87.941C74.1638 97.1414 70.6707 100.82 70.6707 100.82C70.6707 100.82 63.1662 101.53 58.0392 104.753C52.9122 107.976 46.0838 112.584 43.0696 115.401C40.0497 118.218 42.247 120.247 42.247 120.247C42.247 120.247 41.1427 122.664 41.6442 123.971C42.1456 125.278 43.2555 125.582 43.2555 125.582C43.2555 125.582 41.9202 128.134 43.3794 129.182C44.7485 130.174 47.1824 129.103 47.1824 129.103C47.1824 129.103 46.4613 130.968 47.2613 131.774C48.0613 132.58 49.9487 132.518 52.6643 130.405C55.38 128.292 61.8028 122.866 61.8028 122.866C61.8028 122.866 66.3945 118.742 68.8115 118.742C71.2285 118.742 71.2285 118.742 71.2285 118.742C71.2285 118.742 71.206 120.906 69.7242 122.635C67.7692 124.917 66.0959 128.196 66.2987 129.706C66.5015 131.216 67.7467 132.23 67.7467 132.23C67.7467 132.23 72.9413 128.095 75.054 125.683C77.1668 123.266 79.8768 118.945 80.2824 117.232C80.6824 115.52 80.7839 108.28 81.3867 106.77C81.9895 105.26 125.349 77.8955 125.349 77.8955C125.349 77.8955 126.656 70.4529 123.338 67.0331C120.019 63.6132 105.32 65.833 105.32 65.833Z" fill="white" stroke="black" stroke-width="2" stroke-miterlimit="10" stroke-linecap="round" stroke-linejoin="round"/>
<path d="M42.2414 120.241C42.2414 120.241 48.0895 115.773 53.3405 112.427" stroke="black" stroke-width="2" stroke-miterlimit="10" stroke-linecap="round" stroke-linejoin="round"/>
<path d="M43.2442 125.571C43.2442 125.571 51.9713 117.446 55.9264 115.238" stroke="black" stroke-width="2" stroke-miterlimit="10" stroke-linecap="round" stroke-linejoin="round"/>
<path d="M47.1711 129.092C47.1711 129.092 57.0758 119.807 59.8928 118.134" stroke="black" stroke-width="2" stroke-miterlimit="10" stroke-linecap="round" stroke-linejoin="round"/>
<path d="M176.855 35.9782V18.4057C176.855 9.30106 184.94 1.92047 194.918 1.92047H235.382C245.36 1.92047 253.445 9.30106 253.445 18.4057V83.5014L176.855 35.9782Z" fill="#2563EB" stroke="#231F20" stroke-width="2" stroke-miterlimit="10"/>
<path d="M234.43 96.9555C234.43 96.9555 204.659 125.965 203.144 126.726C201.628 127.486 189.572 125.869 185.419 128.275C181.261 130.681 169.345 137.459 169.233 138.011C169.126 138.557 171.965 141.07 172.624 141.183C173.278 141.29 164.094 150.259 164.094 150.586C164.094 150.913 166.5 152.552 168.466 151.899C170.433 151.245 173.058 149.166 173.058 149.166C173.058 149.166 167.79 158.124 167.79 158.845C167.79 159.572 171.954 160.293 173.824 158.603C175.695 156.913 179.436 150.456 179.436 150.456L183.059 149.307L178.061 160.327C178.061 160.327 180.568 161.2 182.799 159.51C185.03 157.82 188.546 151.848 188.546 151.848C188.546 151.848 186.98 158.727 187.639 159.031C188.304 159.336 190.512 158.248 192.242 155.769C194.253 152.885 194.518 150.282 194.518 150.282C194.518 150.282 203.268 148.169 207.674 143.403C212.08 138.636 215.218 134.951 215.218 134.951C215.218 134.951 234.672 125.402 243.343 120.224C252.014 115.046 256.064 111.666 256.064 111.666C256.064 111.666 264.285 112.229 267.321 104.235C270.364 96.24 264.392 86.6734 264.392 86.6734C264.392 86.6734 263.265 71.5854 258.425 60.7793C253.585 49.9732 238.61 33.9838 225.325 29.7019C212.04 25.4257 186.969 25.1722 172.106 32.5978C157.243 40.0291 151.463 47.4886 151.463 47.4886C151.463 47.4886 141.778 49.0661 134.014 52.3282C126.245 55.596 121.969 58.5201 121.969 58.5201C121.969 58.5201 118.256 57.1679 115.101 57.3932C112.836 57.5566 108.481 60.9145 106.205 62.7906C105.314 63.5287 104.959 64.7344 105.303 65.8387C105.303 65.8387 114.425 65.0499 119.039 69.2191C123.653 73.3826 123.529 78.273 123.529 78.273L158.094 83.4112C158.094 83.4112 177.864 87.0846 181.797 85.5747C185.729 84.0648 191.617 78.7406 191.617 78.7406C191.617 78.7406 201.24 82.1436 210.536 83.2591C218.046 84.1549 221.5 85.0958 221.5 85.0958C221.5 85.0958 222.305 85.8001 225.534 88.4199C228.762 91.0397 230.373 91.4454 230.373 91.4454L234.43 96.9555Z" fill="white" stroke="black" stroke-width="2" stroke-miterlimit="10" stroke-linecap="round" stroke-linejoin="round"/>
<path d="M215.437 98.4034L180.698 92.1666L158.218 105.316L168.669 128.692L215.437 98.4034Z" fill="white" stroke="black" stroke-width="2" stroke-miterlimit="10" stroke-linecap="round" stroke-linejoin="round"/>
<path d="M171.368 119.582L191.363 107.44L173.407 103.525L161.576 110.032L163.599 117.559L171.368 119.582Z" fill="#808080"/>
<path d="M180.833 94.5385L191.504 96.6174L182.63 102.629L172.517 100.494L180.833 94.5385Z" fill="#808080"/>
<path d="M171.571 131.887L215.494 103.795V98.6626L169.464 127.593L171.571 131.887Z" fill="white" stroke="black" stroke-width="2" stroke-miterlimit="10" stroke-linecap="round" stroke-linejoin="round"/>
<path d="M185.949 81.2816C185.949 81.2816 187.025 85.9634 184.721 91.1637C183.177 94.6568 180.647 97.5639 178.613 98.3809C178.613 98.3809 174.162 99.7837 175.255 94.5554C176.354 89.3213 185.949 81.2816 185.949 81.2816Z" fill="white" stroke="black" stroke-width="2" stroke-miterlimit="10" stroke-linecap="round" stroke-linejoin="round"/>
<path d="M165.356 109.266C165.356 109.266 171.498 107.795 175.672 104.257C179.943 100.64 181.284 98.1893 181.284 98.1893L177.948 96.978C177.948 96.978 179.622 92.0764 182.805 89.0396C185.988 86.0029 187.357 82.9774 187.763 77.3603C188.349 69.2135 183.498 60.8469 180.073 59.0497C175.267 56.5312 167.542 56.7566 167.542 56.7566C167.542 56.7566 155.001 59.7652 148.905 63.371C142.809 66.9767 139.203 72.453 139.203 72.453V69.5909C139.203 69.5909 136.843 69.7149 135.721 73.0728C134.6 76.4307 134.707 79.9463 134.707 79.9463L158.105 83.4L165.356 109.266Z" fill="black"/>
<path d="M230.385 91.4341C230.385 91.4341 230.238 85.648 234.881 83.2704" stroke="black" stroke-width="2" stroke-miterlimit="10" stroke-linecap="round" stroke-linejoin="round"/>
<path d="M221.511 85.0846C221.511 85.0846 218.993 82.6676 217.68 76.5152" stroke="black" stroke-width="2" stroke-miterlimit="10" stroke-linecap="round" stroke-linejoin="round"/>
<path d="M234.43 96.9555C234.43 96.9555 241.788 90.02 252.887 95.5075C262.386 100.206 256.07 111.655 256.07 111.655" stroke="black" stroke-width="2" stroke-miterlimit="10" stroke-linecap="round" stroke-linejoin="round"/>
<path d="M172.579 141.436C172.579 141.436 177.402 137.549 181.216 135.622" stroke="black" stroke-width="2" stroke-miterlimit="10" stroke-linecap="round" stroke-linejoin="round"/>
<path d="M173.064 149.161C173.064 149.161 176.686 144.71 178.32 143.566C179.954 142.422 184.473 138.907 184.473 138.907" stroke="black" stroke-width="2" stroke-miterlimit="10" stroke-linecap="round" stroke-linejoin="round"/>
<path d="M183.064 149.301C183.064 149.301 186.107 145.358 189.155 142.636" stroke="black" stroke-width="2" stroke-miterlimit="10" stroke-linecap="round" stroke-linejoin="round"/>
<path d="M188.557 151.837C188.557 151.837 190.625 148.135 192.473 146.124" stroke="black" stroke-width="2" stroke-miterlimit="10" stroke-linecap="round" stroke-linejoin="round"/>
<path d="M167.345 62.4864L176.332 56.3059C176.332 56.3059 184.084 52.1479 190.045 58.5313C198.304 67.3711 194.659 76.0025 194.659 76.0025L191.628 78.7294" stroke="black" stroke-width="2" stroke-miterlimit="10" stroke-linecap="round" stroke-linejoin="round"/>
<path d="M121.98 58.5144C121.98 58.5144 129.817 62.3061 131.789 70.1938C133.642 77.5969 132.595 79.6083 132.595 79.6083" stroke="black" stroke-width="2" stroke-miterlimit="10" stroke-linecap="round" stroke-linejoin="round"/>
<path d="M151.536 54.0297C151.536 54.0297 150.832 57.4665 152.471 64.7344" stroke="black" stroke-width="2" stroke-miterlimit="10" stroke-linecap="round" stroke-linejoin="round"/>
<path d="M264.408 86.6621C264.408 86.6621 259.056 78.7012 241.715 81.2534" stroke="black" stroke-width="2" stroke-miterlimit="10" stroke-linecap="round" stroke-linejoin="round"/>
<path d="M227.551 58.7792C227.551 58.7792 242.103 51.0493 252.904 57.9848" stroke="black" stroke-width="2" stroke-miterlimit="10" stroke-linecap="round" stroke-linejoin="round"/>
<path d="M158.105 83.4L171.571 131.887L99.2804 120.185L86.4573 72.7404L158.105 83.4Z" fill="white" stroke="black" stroke-width="2" stroke-miterlimit="10" stroke-linecap="round" stroke-linejoin="round"/>
<path d="M235.483 158.513C230.7 152.175 235.213 142.18 240.486 136.608C245.76 131.036 257.4 123.779 260.555 120.427C263.073 117.751 265.028 114.077 266.245 111.396C266.606 110.607 267.783 110.86 267.789 111.728C267.795 115.475 267.53 121.08 266.048 124.489C263.67 129.948 264.273 131.43 264.273 131.43C264.273 131.43 265.293 133.616 267.361 129.627C268.302 127.813 269.299 126.912 270.183 126.489C271.175 126.016 272.291 126.962 272.009 128.027C271.71 129.165 271.592 130.979 272.319 133.695C273.784 139.166 273.677 144.507 273.677 144.507L276.595 139.622C276.944 139.036 277.812 139.092 278.071 139.724C279.04 142.084 280.528 146.986 278.663 151.713C275.096 160.772 267.22 163.443 256.431 164.463C250.847 164.981 240.165 164.716 235.483 158.513Z" fill="#FF7A00"/>
<path d="M245.14 161.555C246.825 161.905 250.476 161.06 250.983 157.933C251.636 153.938 249.501 147.301 250.29 143.819C251.783 137.222 255.428 132.163 255.428 132.163C255.428 132.163 250.301 136.033 248.402 140.591C246.932 144.118 245.196 147.144 245.196 147.144C245.196 147.144 242.847 139.515 242.971 141.008C243.033 141.752 243.332 143.955 241.123 147.262C238.802 150.721 238.413 154.04 239.867 157.544C240.543 159.167 242.847 161.077 245.14 161.555Z" fill="white"/>
</svg>
