<svg width="157" height="64" viewBox="0 0 157 64" fill="none" xmlns="http://www.w3.org/2000/svg">
<path d="M119.664 15C186.377 4.79623 77.041 6.8239 14.0336 9.11321C3.15664 9.11321 -8.92872 8.62264 16.9342 2" stroke="#93C5FD" stroke-width="3" stroke-linecap="round"/>
<g filter="url(#filter0_d_11_9080)">
<ellipse cx="117.825" cy="19.4348" rx="10.0432" ry="9.98551" fill="white"/>
<path d="M126.369 19.4348C126.369 24.1131 122.552 27.9203 117.825 27.9203C113.099 27.9203 109.282 24.1131 109.282 19.4348C109.282 14.7565 113.099 10.9493 117.825 10.9493C122.552 10.9493 126.369 14.7565 126.369 19.4348Z" stroke="#60A5FA" stroke-width="3"/>
</g>
<g filter="url(#filter1_d_11_9080)">
<path d="M127.377 46.4118L120.207 26.1631C119.32 23.6578 121.888 21.3216 124.299 22.4409L143.017 31.1327C145.429 32.2527 145.299 35.7247 142.81 36.6614L137.072 38.821C136.277 39.1204 135.645 39.7433 135.335 40.5349L132.998 46.5044C131.985 49.0912 128.304 49.0306 127.377 46.4118Z" fill="#3B82F6"/>
<path d="M127.377 46.4118L120.207 26.1631C119.32 23.6578 121.888 21.3216 124.299 22.4409L143.017 31.1327C145.429 32.2527 145.299 35.7247 142.81 36.6614L137.072 38.821C136.277 39.1204 135.645 39.7433 135.335 40.5349L132.998 46.5044C131.985 49.0912 128.304 49.0306 127.377 46.4118Z" stroke="white" stroke-width="3" stroke-linecap="round"/>
</g>
<defs>
<filter id="filter0_d_11_9080" x="101.782" y="7.44927" width="32.0864" height="31.971" filterUnits="userSpaceOnUse" color-interpolation-filters="sRGB">
<feFlood flood-opacity="0" result="BackgroundImageFix"/>
<feColorMatrix in="SourceAlpha" type="matrix" values="0 0 0 0 0 0 0 0 0 0 0 0 0 0 0 0 0 0 127 0" result="hardAlpha"/>
<feOffset dy="4"/>
<feGaussianBlur stdDeviation="3"/>
<feComposite in2="hardAlpha" operator="out"/>
<feColorMatrix type="matrix" values="0 0 0 0 0 0 0 0 0 0 0 0 0 0 0 0 0 0 0.25 0"/>
<feBlend mode="normal" in2="BackgroundImageFix" result="effect1_dropShadow_11_9080"/>
<feBlend mode="normal" in="SourceGraphic" in2="effect1_dropShadow_11_9080" result="shape"/>
</filter>
<filter id="filter1_d_11_9080" x="108.525" y="14.6487" width="47.7287" height="49.2619" filterUnits="userSpaceOnUse" color-interpolation-filters="sRGB">
<feFlood flood-opacity="0" result="BackgroundImageFix"/>
<feColorMatrix in="SourceAlpha" type="matrix" values="0 0 0 0 0 0 0 0 0 0 0 0 0 0 0 0 0 0 127 0" result="hardAlpha"/>
<feOffset dy="4"/>
<feGaussianBlur stdDeviation="5"/>
<feComposite in2="hardAlpha" operator="out"/>
<feColorMatrix type="matrix" values="0 0 0 0 0 0 0 0 0 0 0 0 0 0 0 0 0 0 0.25 0"/>
<feBlend mode="normal" in2="BackgroundImageFix" result="effect1_dropShadow_11_9080"/>
<feBlend mode="normal" in="SourceGraphic" in2="effect1_dropShadow_11_9080" result="shape"/>
</filter>
</defs>
</svg>
