<svg width="139" height="129" viewBox="0 0 139 129" fill="none" xmlns="http://www.w3.org/2000/svg">
<path d="M28.5259 84.1033C33.7094 84.1033 37.9114 79.7422 37.9114 74.3624C37.9114 68.9827 33.7094 64.6215 28.5259 64.6215C23.3425 64.6215 19.1405 68.9827 19.1405 74.3624C19.1405 79.7422 23.3425 84.1033 28.5259 84.1033Z" fill="#2563EB" stroke="black" stroke-width="2" stroke-linecap="round" stroke-linejoin="round"/>
<path d="M52.6285 82.7379C57.8119 82.7379 62.0139 78.3767 62.0139 72.9969C62.0139 67.6172 57.8119 63.256 52.6285 63.256C47.445 63.256 43.243 67.6172 43.243 72.9969C43.243 78.3767 47.445 82.7379 52.6285 82.7379Z" fill="#2563EB" stroke="black" stroke-width="2" stroke-linecap="round" stroke-linejoin="round"/>
<path d="M20.78 114.576C20.9822 112.244 17.0284 109.969 11.9491 109.495C6.86975 109.02 2.58828 110.527 2.38614 112.859C2.18401 115.191 6.13776 117.466 11.2171 117.94C16.2964 118.414 20.5779 116.908 20.78 114.576Z" fill="black"/>
<path d="M11.6735 87.9425C11.7424 87.7995 10.9089 85.2079 13.0615 82.3267C15.2107 79.4456 20.2771 74.4053 23.8831 75.1989C27.4892 75.9925 27.8371 78.2945 29.1562 81.2472C30.4753 84.1999 32.349 88.3036 32.9724 92.1928C33.5958 96.082 32.9035 102.634 28.6017 104.575C24.2999 106.516 23.5387 109.112 21.3172 109.112C19.0957 109.112 15.5585 108.104 13.2716 104.361C10.9846 100.618 11.6011 88.0891 11.6735 87.9425Z" fill="white" stroke="black" stroke-width="2" stroke-miterlimit="10" stroke-linecap="round" stroke-linejoin="round"/>
<path d="M16.616 114.524C18.493 111.796 17.8972 104.872 18.8478 101.544C19.7984 98.2161 25.1472 91.1562 25.4538 89.5905C25.8877 87.3885 25.0611 86.4055 25.0611 86.4055C25.0611 86.4055 26.58 84.5109 25.6501 83.2562C25.1438 82.5699 24.5548 82.6449 24.5548 82.6449C24.5548 82.6449 25.3642 81.4546 24.4997 80.779C23.4389 79.9532 21.9682 80.6789 21.9682 80.6789C21.9682 80.6789 21.7409 79.5278 21.1657 79.4742C19.5401 79.3205 15.7859 81.7763 13.4129 83.6101C11.0398 85.4439 7.0101 89.2151 5.74264 93.1079C4.47173 97.0043 4.92292 110.277 5.72886 112.154C6.53825 114.027 8.00892 116 11.1948 116.05C14.3841 116.104 15.7136 115.836 16.616 114.524Z" fill="white" stroke="black" stroke-width="2" stroke-miterlimit="10" stroke-linecap="round" stroke-linejoin="round"/>
<path d="M25.0646 86.409C25.0646 86.409 18.097 95.3957 17.6665 96.1749" stroke="black" stroke-width="2" stroke-miterlimit="10" stroke-linecap="round" stroke-linejoin="round"/>
<path d="M24.5343 82.5877C24.5343 82.5877 15.8446 92.8326 15.4141 93.6119" stroke="black" stroke-width="2" stroke-miterlimit="10" stroke-linecap="round" stroke-linejoin="round"/>
<path d="M21.9718 80.6824C21.9718 80.6824 12.9756 89.7727 12.0009 91.4456" stroke="black" stroke-width="2" stroke-miterlimit="10" stroke-linecap="round" stroke-linejoin="round"/>
<path d="M68.6199 75.9496C68.6199 75.9496 66.24 70.0264 64.8141 70.1086C63.3882 70.1908 62.1173 70.6019 62.6752 72.164C63.2297 73.7261 66.085 81.7083 67.4317 83.9317C68.7783 86.1516 71.3167 88.7039 76.3108 91.4206C81.3049 94.1374 87.3322 100.061 87.3322 100.061C87.3322 100.061 90.2873 97.3903 91.3998 95.2419C92.5123 93.0936 92.6569 91.2812 92.6569 91.2812C92.6569 91.2812 91.0416 89.0471 89.9636 86.2517C88.8856 83.4563 89.8947 78.2195 89.6261 74.6556C89.3574 71.0916 84.9144 65.2971 82.4931 64.9468C80.0719 64.5965 71.792 66.7627 70.4453 68.021C69.0987 69.2793 68.427 75.635 69.233 77.24C70.0389 78.845 70.9826 79.0559 70.9826 79.0559C70.9826 79.0559 71.7886 81.9192 72.9355 82.1301C74.079 82.341 74.8884 81.5725 74.8884 81.5725C74.8884 81.5725 76.7069 83.7387 77.9847 82.0622C79.2625 80.3857 77.6471 75.635 77.6471 75.635L82.2899 75.4956" stroke="black" stroke-width="2" stroke-miterlimit="10" stroke-linecap="round" stroke-linejoin="round"/>
<path d="M74.8848 81.5689C74.8848 81.5689 73.3487 75.9746 74.3441 73.6833C75.3395 71.3919 82.1796 70.988 82.1796 70.988" stroke="black" stroke-width="2" stroke-miterlimit="10" stroke-linecap="round" stroke-linejoin="round"/>
<path d="M71.1994 79.4134C71.1994 79.4134 70.9067 73.7011 71.9606 71.4384C73.0145 69.1756 78.6699 68.9218 78.6699 68.9218" stroke="black" stroke-width="2" stroke-miterlimit="10" stroke-linecap="round" stroke-linejoin="round"/>
<path d="M79.3244 65.1041C79.3244 65.1041 73.8275 61.5545 72.2259 62.1836C70.6244 62.8128 62.0104 67.6636 62.2274 68.9218C62.4444 70.1801 63.829 70.3588 65.6475 69.6403C67.466 68.9218 70.4453 68.0174 70.4453 68.0174" stroke="black" stroke-width="2" stroke-miterlimit="10" stroke-linecap="round" stroke-linejoin="round"/>
<path d="M2.70488 112.422C2.70488 112.422 1 121.819 1 126.316" stroke="black" stroke-width="2" stroke-miterlimit="10" stroke-linecap="round" stroke-linejoin="round"/>
<path d="M20.5527 114.105C20.5389 114.28 22.1164 125.287 22.2576 128" stroke="black" stroke-width="2" stroke-miterlimit="10" stroke-linecap="round" stroke-linejoin="round"/>
<path d="M83.905 96.9471C83.905 96.9471 81.4803 104.493 83.2437 106.477C85.0072 108.461 87.9657 104.826 89.7292 101.473C91.4926 98.1195 93.0149 91.6852 93.0149 91.6852C93.0149 91.6852 89.86 97.6513 88.8681 98.6808C87.8762 99.7103 87.3286 100.061 87.3286 100.061L83.905 96.9471Z" fill="black"/>
<path d="M92.6536 91.2776L114.586 105.794" stroke="black" stroke-width="2" stroke-miterlimit="10" stroke-linecap="round" stroke-linejoin="round"/>
<path d="M22.3403 72.089C22.3403 72.089 24.0108 71.4527 27.5445 70.8986C31.0782 70.3446 33.3824 70.8986 33.3824 70.8986" stroke="black" stroke-width="2" stroke-miterlimit="10" stroke-linecap="round" stroke-linejoin="round"/>
<path d="M24.8716 71.324C24.8716 71.324 24.9542 75.7602 28.3674 75.4206C31.7806 75.081 31.1228 70.5126 31.1228 70.5126C31.1228 70.5126 28.6568 70.5555 27.5477 70.8951C26.4352 71.2382 24.8716 71.324 24.8716 71.324Z" fill="black"/>
<path d="M45.9948 71.2382C45.9948 71.2382 47.6893 70.6841 51.2471 70.2981C54.805 69.912 57.0782 70.5769 57.0782 70.5769" stroke="black" stroke-width="2" stroke-miterlimit="10" stroke-linecap="round" stroke-linejoin="round"/>
<path d="M48.5574 70.5984C48.5574 70.5984 48.4438 75.0345 51.8673 74.8558C55.2908 74.677 54.8362 70.0872 54.8362 70.0872C54.8362 70.0872 52.3702 70.0121 51.2474 70.2981C50.1211 70.5877 48.5574 70.5984 48.5574 70.5984Z" fill="black"/>
<path d="M36.9022 69.8512C36.9022 69.8512 37.6048 68.2819 40.3326 68.2283C42.8917 68.1747 43.7079 69.5688 43.7079 69.5688" stroke="black" stroke-width="2" stroke-linecap="round" stroke-linejoin="round"/>
<path d="M25.9086 64.9719C25.9086 64.9719 39.7508 54.0549 41.9998 53.9155C44.2455 53.7761 44.4728 56.4821 44.4728 56.4821" stroke="black" stroke-width="2" stroke-linecap="round" stroke-linejoin="round"/>
<path d="M76.1455 63.0273C76.1455 63.0273 89.9877 52.1103 92.2368 51.9709C94.4858 51.8315 94.7097 54.5375 94.7097 54.5375" stroke="black" stroke-width="2" stroke-linecap="round" stroke-linejoin="round"/>
<path d="M55.0324 39.4775C55.0324 39.4775 54.9704 43.1165 54.1852 45.9405C53.3999 48.7644 52.7937 49.894 52.7937 49.894C52.7937 49.894 55.2115 50.9593 57.5708 50.7734" stroke="black" stroke-width="2" stroke-linecap="round" stroke-linejoin="round"/>
<path d="M54.1852 57.1112L63.6774 53.6581C63.6774 53.6581 64.5832 58.5518 61.2596 59.996C57.9325 61.4401 54.1852 57.1112 54.1852 57.1112Z" stroke="black" stroke-width="2" stroke-linecap="round" stroke-linejoin="round"/>
<path d="M76.1592 60.8467C76.1592 60.8467 79.9926 57.8261 80.5574 51.2702" stroke="black" stroke-width="2" stroke-linecap="round" stroke-linejoin="round"/>
<path d="M43.9663 31.6026C43.9663 31.6026 47.2865 48.8824 51.1165 63.1738" stroke="black" stroke-width="2" stroke-linecap="round" stroke-linejoin="round"/>
<path d="M84.656 48.8359C84.656 48.8359 89.6122 64.3034 89.0956 66.5197C88.5789 68.736 87.4768 68.9648 87.4768 68.9648" stroke="black" stroke-width="2" stroke-linecap="round" stroke-linejoin="round"/>
<path d="M89.5743 62.055C90.0393 61.8941 137.297 72.1354 137.297 125.701" stroke="black" stroke-width="2" stroke-linecap="round" stroke-linejoin="round"/>
<path d="M87.1048 49.3149C85.8408 50.4409 83.9052 49.9977 83.1888 48.4356C82.6963 47.3596 82.3105 46.1943 82.5447 45.5329C83.0648 44.0709 85.586 42.0655 84.6216 39.2165C83.6572 36.3676 80.8364 33.9011 80.0959 37.6759C79.3554 41.4507 78.8353 42.2192 76.9789 41.3721C75.1225 40.5249 76.2384 26.1226 72.6737 23.7348C69.1089 21.3469 64.0666 25.9689 60.8015 26.6624C57.5364 27.3559 53.827 30.666 47.4449 25.8938C41.0629 21.1181 40.9905 19.7312 39.6542 15.7276C38.3178 11.724 37.8735 8.33519 37.8735 8.33519C37.8735 8.33519 45.6643 8.25655 52.5665 4.09924C59.4686 -0.0580755 74.5301 -2.59964 82.6928 4.25295C90.8556 11.1055 91.5961 13.4183 91.8199 20.5033C92.0438 27.5882 91.968 28.7428 92.5605 31.2093C93.1529 33.6723 92.8498 40.6321 90.7798 44.457C89.4986 46.827 88.1898 48.3498 87.1048 49.3149Z" fill="black"/>
<path d="M41.5072 18.7338C41.5072 18.7338 38.3179 22.7374 38.9826 30.9019C39.6508 39.0664 45.7505 51.735 47.0283 47.7457C47.166 47.3167 42.8298 25.5972 44.6173 21.6686C46.4049 17.7401 41.5072 18.7338 41.5072 18.7338Z" fill="black"/>
<path d="M83.1302 105.894L94.3135 126.141" stroke="black" stroke-width="2" stroke-linecap="round" stroke-linejoin="round"/>
</svg>
