<svg width="82" height="129" viewBox="0 0 82 129" fill="none" xmlns="http://www.w3.org/2000/svg">
<path d="M23.5493 33.5321L23.1831 57.9602L13.9767 64.8295L12.901 64.6744L13.3313 24.9365L14.3003 24.7417L23.5493 33.5321Z" fill="white" stroke="black" stroke-width="2" stroke-miterlimit="10" stroke-linecap="round" stroke-linejoin="round"/>
<path d="M13.8406 64.8295L14.1538 24.7417" stroke="black" stroke-width="2" stroke-miterlimit="10" stroke-linecap="round" stroke-linejoin="round"/>
<path d="M13.3614 42.9065C13.3614 42.9065 1.31323 65.1707 1.31323 65.9165C1.31323 66.6622 14.7081 68.2792 16.3459 67.9064C17.9836 67.5335 26.0549 65.1297 26.0549 64.2994C26.0549 63.9266 16.279 64.2161 9.44417 64.2161C7.39788 64.2161 5.87581 64.2161 5.81797 64.0919C5.76012 63.9676 12.9547 49.9128 12.9547 49.9128L13.3614 42.9065Z" fill="white" stroke="black" stroke-width="2" stroke-miterlimit="10" stroke-linecap="round" stroke-linejoin="round"/>
<path d="M14.467 58.5658L22.4695 54.6045L22.923 34.0043L14.8699 26.6208L14.467 58.5658Z" fill="white" stroke="black" stroke-width="2" stroke-miterlimit="10" stroke-linecap="round" stroke-linejoin="round"/>
<path d="M20.6149 95.8514L15.2594 107.211C15.2594 107.211 18.291 110.114 20.2923 109.857C22.2936 109.6 25.0684 107.727 25.0684 107.727L27.3265 98.3695L20.6149 95.8514Z" fill="white" stroke="black" stroke-width="2" stroke-miterlimit="10" stroke-linecap="round" stroke-linejoin="round"/>
<path d="M25.3252 105.466C25.3252 105.466 27.649 114.758 27.2607 115.081C26.8723 115.404 24.0975 115.726 23.6465 115.792C23.1955 115.858 16.5466 115.147 15.5788 115.081C14.6111 115.015 9.31822 115.404 7.83372 114.887C6.34922 114.37 3.76857 112.112 3.38022 111.53C2.99187 110.947 4.54213 110.111 5.25306 109.657C5.964 109.206 10.881 108.338 12.1713 107.305C13.4617 106.271 14.5453 104.085 14.9681 102.973C15.5099 101.551 16.675 101.204 17.0633 101.075C17.4517 100.947 17.7085 103.139 17.7085 103.139L16.3524 105.657C16.3524 105.657 17.9653 106.885 19.4498 107.593C20.9343 108.304 22.8698 107.527 22.8698 107.527L25.3252 105.466Z" fill="#FBB03B" stroke="black" stroke-width="2" stroke-linecap="round" stroke-linejoin="round"/>
<path d="M76.9351 124.827C76.9351 124.827 71.8803 82.4909 70.6025 79.8194C69.5189 77.5551 60.1107 77.7555 57.0165 78.4258C53.9222 79.096 53.7719 83.3491 53.0202 86.2742C52.2686 89.2025 44.9087 121.564 44.9087 121.564" stroke="#231F20" stroke-width="3" stroke-miterlimit="10" stroke-linecap="round" stroke-linejoin="round"/>
<path d="M48.7609 105.476L74.7522 108.26L66.1959 100.509L48.7609 105.476Z" stroke="#231F20" stroke-width="3" stroke-miterlimit="10" stroke-linecap="round" stroke-linejoin="round"/>
<path d="M64.6801 79.5877L66.7346 115.629" stroke="#231F20" stroke-width="3" stroke-miterlimit="10" stroke-linecap="round" stroke-linejoin="round"/>
<path d="M47.0039 99.4124C47.0039 99.4124 51.9804 107.336 52.184 108.157C52.3907 108.977 53.371 110.092 51.6234 110.399C49.8789 110.706 42.945 107.727 42.945 107.727L40.8905 101.31L47.0039 99.4124Z" fill="white" stroke="black" stroke-width="2" stroke-miterlimit="10" stroke-linecap="round" stroke-linejoin="round"/>
<path d="M44.7959 106.757C44.7959 106.757 44.8993 104.498 43.9221 104.138C42.945 103.778 40.8936 103.061 40.6869 103.521C40.4802 103.985 40.2767 107.217 39.9666 107.784C39.6597 108.348 33.3928 113.277 32.7257 113.431C32.0587 113.584 30.3111 114.971 30.4144 116.049C30.5178 117.126 31.9553 118.207 34.6769 118.36C37.3985 118.514 42.4815 118.617 44.2792 117.796C46.0769 116.976 47.0008 116.872 48.028 116.666C49.0553 116.459 54.1383 116.152 55.1154 115.485C56.0926 114.818 56.3995 114.354 56.3995 114.354C56.3995 114.354 55.0121 110.812 54.5517 109.528C54.0882 108.244 52.5504 105.419 52.5504 105.419C52.5504 105.419 53.064 107.731 51.9867 107.934C50.9093 108.141 49.4718 106.65 47.981 106.547C46.4903 106.443 44.7959 106.757 44.7959 106.757Z" fill="#FBB03B" stroke="black" stroke-width="2" stroke-linecap="round" stroke-linejoin="round"/>
<path d="M63.1799 81.091C69.0677 81.091 73.8407 80.08 73.8407 78.8329C73.8407 77.5858 69.0677 76.5748 63.1799 76.5748C57.2921 76.5748 52.519 77.5858 52.519 78.8329C52.519 80.08 57.2921 81.091 63.1799 81.091Z" fill="black"/>
<path d="M47.0479 65.7887C47.0479 65.7887 27.9811 68.313 26.9382 69.9666C25.8953 71.6203 22.9325 84.3325 21.8896 87.1167C20.8467 89.9009 18.7546 94.8649 18.7546 94.8649C18.7546 94.8649 19.8007 97.2169 22.325 97.7368C24.8492 98.2599 27.2013 99.7381 27.2013 99.7381C27.2013 99.7381 33.9911 83.7186 34.7741 81.9773C35.5571 80.236 50.4459 72.9231 50.4459 72.9231L47.0479 65.7887Z" fill="#808080" stroke="#231F20" stroke-width="2" stroke-miterlimit="10"/>
<path d="M74.9933 77.2356C76.6219 77.0916 62.5974 80.38 52.3594 81.7205C47.3641 82.375 39.6503 82.2435 39.215 82.5034C38.7796 82.7634 38.955 82.2435 38.7796 82.7634C38.6043 83.2864 47.5739 99.7412 47.5739 99.7412C47.5739 99.7412 46.9632 102.006 44.8742 102.178C42.7853 102.353 39.9134 102.701 38.8673 102.701C37.8213 102.701 35.3847 101.742 35.3847 101.742C35.3847 101.742 33.5557 97.0352 32.8573 95.6447C32.1589 94.2542 29.8131 88.7703 28.0718 86.5968C26.3305 84.4201 24.5015 80.9375 24.4138 79.1085C24.3261 77.2795 25.5444 73.5369 29.2901 72.4063C33.0327 71.2757 54.7114 67.4454 55.842 67.3577C56.9726 67.2669 74.9933 77.2356 74.9933 77.2356Z" fill="#808080" stroke="#231F20" stroke-width="2" stroke-miterlimit="10"/>
<path d="M2.40942 108.391L24.1571 109.976L34.4578 107.245L36.1333 107.687L36.0456 111.032L24.8617 114.289L2.58481 112.441L2.40942 108.391Z" fill="white" stroke="black" stroke-width="2" stroke-miterlimit="10" stroke-linecap="round" stroke-linejoin="round"/>
<path d="M4.69565 128C5.82859 128 6.74703 127.082 6.74703 125.949C6.74703 124.816 5.82859 123.897 4.69565 123.897C3.56271 123.897 2.64429 124.816 2.64429 125.949C2.64429 127.082 3.56271 128 4.69565 128Z" fill="white" stroke="black" stroke-width="2" stroke-miterlimit="10" stroke-linecap="round" stroke-linejoin="round"/>
<path d="M5.63511 128C6.76804 128 7.68648 127.082 7.68648 125.949C7.68648 124.816 6.76804 123.897 5.63511 123.897C4.50217 123.897 3.58374 124.816 3.58374 125.949C3.58374 127.082 4.50217 128 5.63511 128Z" fill="white" stroke="black" stroke-width="2" stroke-miterlimit="10" stroke-linecap="round" stroke-linejoin="round"/>
<path d="M37.2826 127.527C38.4155 127.527 39.3339 126.609 39.3339 125.476C39.3339 124.343 38.4155 123.424 37.2826 123.424C36.1496 123.424 35.2312 124.343 35.2312 125.476C35.2312 126.609 36.1496 127.527 37.2826 127.527Z" fill="white" stroke="black" stroke-width="2" stroke-miterlimit="10" stroke-linecap="round" stroke-linejoin="round"/>
<path d="M38.2253 127.527C39.3583 127.527 40.2767 126.609 40.2767 125.476C40.2767 124.343 39.3583 123.424 38.2253 123.424C37.0924 123.424 36.174 124.343 36.174 125.476C36.174 126.609 37.0924 127.527 38.2253 127.527Z" fill="white" stroke="black" stroke-width="2" stroke-miterlimit="10" stroke-linecap="round" stroke-linejoin="round"/>
<path d="M3.63071 117.433C4.76365 117.433 5.68208 116.515 5.68208 115.382C5.68208 114.249 4.76365 113.33 3.63071 113.33C2.49777 113.33 1.57935 114.249 1.57935 115.382C1.57935 116.515 2.49777 117.433 3.63071 117.433Z" fill="white" stroke="black" stroke-width="2" stroke-miterlimit="10" stroke-linecap="round" stroke-linejoin="round"/>
<path d="M4.57347 117.433C5.70641 117.433 6.62483 116.515 6.62483 115.382C6.62483 114.249 5.70641 113.33 4.57347 113.33C3.44053 113.33 2.52209 114.249 2.52209 115.382C2.52209 116.515 3.44053 117.433 4.57347 117.433Z" fill="white" stroke="black" stroke-width="2" stroke-miterlimit="10" stroke-linecap="round" stroke-linejoin="round"/>
<path d="M40.1482 107.677C40.1482 107.677 41.0282 107.477 42.7445 108.717" stroke="black" stroke-width="2" stroke-miterlimit="10" stroke-linecap="round" stroke-linejoin="round"/>
<path d="M38.7922 109.037C38.7922 109.037 39.6723 108.836 41.3886 110.076" stroke="black" stroke-width="2" stroke-miterlimit="10" stroke-linecap="round" stroke-linejoin="round"/>
<path d="M37.2732 110.352C37.2732 110.352 38.1532 110.151 39.8695 111.392" stroke="black" stroke-width="2" stroke-miterlimit="10" stroke-linecap="round" stroke-linejoin="round"/>
<path d="M26.0926 73.4336H22.66V116.227H26.0926V73.4336Z" fill="white" stroke="black" stroke-width="2" stroke-miterlimit="10" stroke-linecap="round" stroke-linejoin="round"/>
<path d="M1 118.955L23.6465 115.792L26.0956 116.227L38.7734 118.163L38.6857 122.92L24.2447 120.014L1.08769 123.271L1 118.955Z" fill="white" stroke="black" stroke-width="2" stroke-miterlimit="10" stroke-linecap="round" stroke-linejoin="round"/>
<path d="M1.12526 66.9162L1.06262 71.9522L1.12526 74.749H34.9462V72.2623L32.7069 66.9162H1.12526Z" fill="white" stroke="black" stroke-width="2" stroke-miterlimit="10" stroke-linecap="round" stroke-linejoin="round"/>
<path d="M34.9963 64.0818C34.8867 64.0818 32.9732 64.9274 33.1579 65.773C33.3427 66.6186 34.6299 66.2866 35.4004 65.9923C36.1708 65.6979 37.2388 65.037 37.2388 65.037L34.9963 64.0818Z" fill="white" stroke="black" stroke-width="2" stroke-miterlimit="10" stroke-linecap="round" stroke-linejoin="round"/>
<path d="M43.7656 62.3374C43.7656 62.3374 40.4771 61.6609 39.5563 61.7079C38.6387 61.7549 34.1382 61.0784 33.5588 61.1755C32.9794 61.2726 30.6556 61.3196 29.7849 61.9021C28.9143 62.4815 27.5112 64.4671 27.4642 64.6581C27.4172 64.8523 27.6083 65.1905 27.6083 65.1905C27.6083 65.1905 27.7523 66.2053 27.9966 66.3525C28.2378 66.4965 29.4968 65.3377 30.4144 64.7552C31.3321 64.1758 33.2676 64.2729 33.8501 64.3199C34.4295 64.3669 37.0195 65.7731 38.5635 65.8107C40.1075 65.8482 42.7571 65.5914 43.4179 65.4442C44.0787 65.297 43.7656 62.3374 43.7656 62.3374Z" fill="white" stroke="black" stroke-width="2" stroke-miterlimit="10" stroke-linecap="round" stroke-linejoin="round"/>
<path d="M27.6115 65.1936C27.6115 65.1936 29.8476 63.0546 31.0972 62.6881C32.3468 62.3217 32.9732 62.2466 32.9732 62.2466" stroke="black" stroke-width="2" stroke-miterlimit="10" stroke-linecap="round" stroke-linejoin="round"/>
<path d="M41.6391 59.002C41.6391 59.002 37.3453 59.4655 36.3556 59.1053C35.366 58.7452 33.4743 58.0248 32.801 58.1595C32.1245 58.2942 28.4352 59.644 28.075 59.8695C27.7148 60.095 27.3547 62.0743 27.2638 62.6161C27.173 63.1548 27.7587 63.7405 27.7587 63.7405" stroke="black" stroke-width="2" stroke-miterlimit="10" stroke-linecap="round" stroke-linejoin="round"/>
<path d="M28.0281 63.3365C28.0281 63.3365 29.0647 60.8153 29.5126 60.4552C29.9636 60.095 30.7277 59.9165 30.7277 59.9165" stroke="black" stroke-width="2" stroke-miterlimit="10" stroke-linecap="round" stroke-linejoin="round"/>
<path d="M43.2238 58.6481L41.639 58.9988C41.639 58.9988 43.5244 61.3196 43.6215 61.9491C43.7186 62.5786 46.6218 62.0461 46.6218 62.0461L43.2238 58.6481Z" fill="white" stroke="black" stroke-width="2" stroke-miterlimit="10" stroke-linecap="round" stroke-linejoin="round"/>
<path d="M43.4335 61.0941C43.4335 61.0941 42.9919 62.0023 42.8948 63.5025C42.7977 65.0026 42.9418 66.7909 42.9418 66.7909C42.9418 66.7909 45.2155 67.9998 46.0361 68.0969C46.8598 68.194 46.6029 61.4511 46.6029 61.4511L43.4335 61.0941Z" fill="white" stroke="black" stroke-width="2" stroke-miterlimit="10" stroke-linecap="round" stroke-linejoin="round"/>
<path d="M54.2072 55.037L43.2238 58.6512C43.2238 58.6512 45.4912 61.2726 45.6322 62.2654C45.7731 63.2582 49.0334 63.5401 50.9469 62.7602C52.8605 61.9804 55.9767 60.7746 55.9767 60.7746L54.2072 55.037Z" fill="#2563EB" stroke="black" stroke-width="2" stroke-linecap="round" stroke-linejoin="round"/>
<path d="M60.0888 30.0918C60.0888 30.0918 58.8142 31.6514 58.4603 34.5547C58.1064 37.461 55.9798 41.498 55.272 44.8303C54.5642 48.1595 53.4994 54.1852 53.3585 56.8065C53.2175 59.4279 52.8636 67.0101 52.8636 67.0101C52.8636 67.0101 57.3986 70.6243 59.4531 72.6788C61.5076 74.7333 63.2802 76.4339 66.8223 77.5676C70.3645 78.7014 72.776 79.4092 75.4663 78.6293C78.1597 77.8495 80.7811 75.51 80.7811 75.51C80.7811 75.51 80.1421 61.1974 79.5753 55.8106C79.0084 50.4238 78.8675 38.0968 78.0156 34.5515C77.1638 31.0094 74.8963 26.4024 73.2677 24.6298C71.6391 22.8572 71.3541 22.7883 70.5054 22.5753C69.6567 22.3686 60.0888 30.0918 60.0888 30.0918Z" fill="#2563EB" stroke="black" stroke-width="2" stroke-linecap="round" stroke-linejoin="round"/>
<path d="M56.4652 13.4491C57.669 13.4491 58.645 12.4731 58.645 11.2693C58.645 10.0654 57.669 9.08951 56.4652 9.08951C55.2613 9.08951 54.2854 10.0654 54.2854 11.2693C54.2854 12.4731 55.2613 13.4491 56.4652 13.4491Z" stroke="black" stroke-width="2" stroke-miterlimit="10" stroke-linecap="round" stroke-linejoin="round"/>
<path d="M63.0829 13.4491C64.2867 13.4491 65.2626 12.4731 65.2626 11.2693C65.2626 10.0654 64.2867 9.08951 63.0829 9.08951C61.879 9.08951 60.9031 10.0654 60.9031 11.2693C60.9031 12.4731 61.879 13.4491 63.0829 13.4491Z" stroke="black" stroke-width="2" stroke-miterlimit="10" stroke-linecap="round" stroke-linejoin="round"/>
<path d="M58.67 10.8183H60.9031" stroke="black" stroke-width="2" stroke-miterlimit="10" stroke-linecap="round" stroke-linejoin="round"/>
<path d="M65.2345 10.5552C65.2596 10.4769 67.8715 9.10516 67.8715 9.10516" stroke="black" stroke-width="2" stroke-miterlimit="10" stroke-linecap="round" stroke-linejoin="round"/>
<path d="M57.0478 11.1878C57.2295 11.1878 57.3767 11.0406 57.3767 10.859C57.3767 10.6774 57.2295 10.5302 57.0478 10.5302C56.8662 10.5302 56.719 10.6774 56.719 10.859C56.719 11.0406 56.8662 11.1878 57.0478 11.1878Z" stroke="black" stroke-width="2" stroke-miterlimit="10" stroke-linecap="round" stroke-linejoin="round"/>
<path d="M63.4149 11.1878C63.5965 11.1878 63.7438 11.0406 63.7438 10.859C63.7438 10.6774 63.5965 10.5302 63.4149 10.5302C63.2333 10.5302 63.0861 10.6774 63.0861 10.859C63.0861 11.0406 63.2333 11.1878 63.4149 11.1878Z" stroke="black" stroke-width="2" stroke-miterlimit="10" stroke-linecap="round" stroke-linejoin="round"/>
<path d="M58.9863 14.0629C58.9863 14.0629 59.9102 14.4325 60.5961 14.1412" stroke="black" stroke-width="2" stroke-miterlimit="10" stroke-linecap="round" stroke-linejoin="round"/>
<path d="M58.9645 17.2104L62.5348 15.6163C62.5348 15.6163 62.6977 17.0726 61.7393 17.6896C60.0481 18.7732 58.9645 17.2104 58.9645 17.2104Z" stroke="black" stroke-width="2" stroke-miterlimit="10" stroke-linecap="round" stroke-linejoin="round"/>
<path d="M55.77 8.44746C55.77 8.44746 57.0885 7.83988 57.7995 8.18438" stroke="black" stroke-width="2" stroke-miterlimit="10" stroke-linecap="round" stroke-linejoin="round"/>
<path d="M61.6736 7.63008C61.6736 7.63008 62.9921 7.0225 63.703 7.367" stroke="black" stroke-width="2" stroke-miterlimit="10" stroke-linecap="round" stroke-linejoin="round"/>
<path d="M67.4736 14.3229C67.4736 14.3229 65.8827 21 61.7486 21.5731C58.9612 21.9583 55.6446 19.6533 54.1758 13.5117C52.9669 8.45375 54.2728 4.81452 59.2995 4.17876C64.323 3.54299 67.3766 6.18315 67.7586 7.89941C68.1407 9.61567 67.8307 10.4143 67.8307 10.4143C67.8307 10.4143 68.6199 9.9038 69.5407 10.8246C70.4614 11.7453 68.7765 14.1631 68.7765 14.1631L68.6168 19.0614" stroke="black" stroke-width="2" stroke-miterlimit="10" stroke-linecap="round" stroke-linejoin="round"/>
<path d="M60.1609 21.6326L60.4146 28.4131" stroke="black" stroke-width="2" stroke-miterlimit="10" stroke-linecap="round" stroke-linejoin="round"/>
<path d="M68.7953 10.9592C67.9059 11.1158 67.0446 10.5583 66.8285 9.68143C66.6218 8.84522 66.3587 7.86495 66.1145 7.25737C65.6196 6.02341 64.4828 5.9232 61.2225 6.2677C57.9622 6.61221 54.965 6.42116 54.3825 8.37544C54.132 9.21478 54.417 14.4419 54.417 14.4419C54.417 14.4419 53.3897 12.1243 52.945 9.85055C52.5003 7.57681 52.9137 6.77193 52.9137 5.67891C52.9137 5.58809 52.1338 4.99616 51.7079 3.75908C51.2413 2.39672 51.1254 0.376667 51.1254 0.376667C51.1254 0.376667 53.4179 1.82359 56.7784 0.934138C57.1949 0.824523 57.7117 0.680459 58.2942 0.539525C61.1974 -0.158879 65.7981 -0.800909 68.3882 2.86024C71.1066 6.6999 69.5438 10.8277 69.5438 10.8277L68.7953 10.9592Z" fill="black"/>
<path d="M69.4375 20.6085C69.4375 20.4581 69.0867 18.8014 69.0867 18.8014L58.8956 29.2931C58.8956 29.2931 61.2038 33.9627 61.1537 33.8124C61.1036 33.6621 69.4375 20.6085 69.4375 20.6085Z" fill="white" stroke="black" stroke-width="2" stroke-miterlimit="10" stroke-linecap="round" stroke-linejoin="round"/>
<path d="M69.4374 20.6085L71.3948 23.1171C71.3948 23.1171 68.8361 25.0244 66.5248 28.4883C64.2166 31.9521 60.6025 38.2283 59.8477 40.4363C59.096 42.6443 58.5918 44.0505 58.5918 44.0505C58.5918 44.0505 60.449 35.7166 61.6548 31.7517C62.8605 27.7867 69.4374 20.6085 69.4374 20.6085Z" fill="#2563EB" stroke="black" stroke-width="2" stroke-linecap="round" stroke-linejoin="round"/>
<path d="M75.4287 44.3636C75.4287 44.3636 74.677 45.488 73.8753 47.7398C73.0704 49.9916 65.2501 65.0465 64.0162 65.795C62.7853 66.5466 46.0142 69.2244 46.0142 69.2244C46.0142 69.2244 44.9431 66.9193 44.6738 65.0465C44.4044 63.1736 45.2626 61.1348 45.2626 61.1348C45.2626 61.1348 56.0487 59.2181 57.1824 58.2973C58.3162 57.3765 59.8038 56.3117 59.8758 55.8889C59.9479 55.463 61.2946 49.9352 61.5764 47.8118C61.8614 45.6853 62.7102 41.3633 63.205 39.3809C63.6998 37.3953 65.4004 34.7739 65.7575 34.2791" fill="#2563EB"/>
<path d="M75.4287 44.3636C75.4287 44.3636 74.677 45.488 73.8753 47.7398C73.0704 49.9916 65.2501 65.0465 64.0162 65.795C62.7853 66.5466 46.0142 69.2244 46.0142 69.2244C46.0142 69.2244 44.9431 66.9193 44.6738 65.0465C44.4044 63.1736 45.2626 61.1348 45.2626 61.1348C45.2626 61.1348 56.0487 59.2181 57.1824 58.2973C58.3162 57.3765 59.8038 56.3117 59.8758 55.8889C59.9479 55.463 61.2946 49.9352 61.5764 47.8118C61.8614 45.6853 62.7102 41.3633 63.205 39.3809C63.6998 37.3953 65.4004 34.7739 65.7575 34.2791" stroke="black" stroke-width="2" stroke-linecap="round" stroke-linejoin="round"/>
<path d="M38.7797 82.7634C38.7797 82.7634 36.6719 81.6954 36.4308 80.3018" stroke="#231F20" stroke-width="2" stroke-miterlimit="10" stroke-linecap="round"/>
</svg>
