<svg width="353" height="513" viewBox="0 0 353 513" fill="none" xmlns="http://www.w3.org/2000/svg">
<path d="M65.0867 454.916C58.4967 457.786 45.0267 459.676 33.9667 457.126C22.9067 454.576 6.79671 439.226 6.79671 439.226C6.79671 439.226 17.5667 438.536 22.5967 441.656C27.6267 444.776 37.3267 444.326 37.3267 444.326C37.3267 444.326 30.6367 434.996 20.5967 430.056C10.5567 425.116 3.8667 406.516 3.8667 406.516C3.8667 406.516 14.9467 419.196 22.9867 421.376C31.0267 423.556 45.2567 419.456 52.2367 426.936C66.1567 441.856 82.9967 439.236 82.9967 439.236C82.9967 439.236 76.0867 450.136 65.0867 454.916Z" fill="white"/>
<path d="M65.3666 396.826C65.3666 396.826 54.0566 398.556 49.1366 400.286C44.2166 402.016 40.3566 404.806 40.4866 406.936C40.6166 409.066 47.5366 406.406 48.8666 406.266C50.1966 406.136 47.1366 409.326 45.8066 414.776C44.4766 420.226 42.6166 427.016 43.0166 429.676C43.4166 432.336 45.9466 432.606 45.9466 432.606C45.9466 432.606 46.8766 436.866 49.2766 437.526C51.6666 438.196 51.5266 437.736 51.5266 437.736C51.5266 437.736 51.9666 440.256 54.4866 440.256C57.0166 440.256 56.7066 438.476 56.7066 438.476C56.7066 438.476 56.8566 435.956 58.4866 431.516C60.3366 426.476 61.9166 422.626 61.9166 422.626C61.9166 422.626 63.5166 429.676 65.7766 431.136C68.0366 432.596 68.7066 432.196 68.7066 432.196C68.7066 432.196 69.6366 430.336 68.3066 426.476C66.9766 422.616 67.6366 420.626 68.4366 417.566C69.2366 414.506 74.9566 406.126 74.9566 406.126L65.3666 396.826Z" fill="white" stroke="black" stroke-width="2" stroke-linecap="round" stroke-linejoin="round"/>
<path d="M133.627 319.536C133.627 319.536 128.037 343.006 123.347 352.836C118.657 362.676 105.017 382.116 100.327 387.926C95.6366 393.736 77.7466 414.076 77.7466 414.076L62.7666 397.536C62.7666 397.536 75.5066 377.416 78.4166 365.126C81.3266 352.836 98.7566 310.136 103.447 305.446C108.137 300.756 135.187 319.756 135.187 319.756L133.627 319.536Z" fill="#2563EB" stroke="#231F20" stroke-width="2" stroke-miterlimit="10"/>
<path d="M45.9463 432.616C45.9463 432.616 48.8463 421.596 51.5163 417.156" stroke="black" stroke-width="2" stroke-linecap="round" stroke-linejoin="round"/>
<path d="M51.2764 436.466C51.2764 436.466 54.1764 425.446 56.8464 421.006" stroke="black" stroke-width="2" stroke-linecap="round" stroke-linejoin="round"/>
<path d="M172.046 326.186L147.096 296.276C147.096 296.276 148.466 282.746 136.176 281.136C123.886 279.526 111.976 272.076 106.266 279.396C100.556 286.716 97.7063 298.266 98.4463 299.746C99.1863 301.236 101.056 309.176 102.916 310.666C104.776 312.156 106.766 313.646 106.766 313.646C106.766 313.646 118.926 323.576 124.516 324.816C130.106 326.056 135.186 330.646 139.536 331.516C143.886 332.386 172.046 326.186 172.046 326.186Z" fill="white"/>
<path d="M201.677 34.4661L208.877 47.6061L196.637 57.1561L183.307 40.2261L201.677 34.4661Z" fill="white" stroke="black" stroke-width="2" stroke-linecap="round" stroke-linejoin="round"/>
<path d="M140.427 86.4261L155.207 88.9461L155.087 104.466L133.787 102.706L140.427 86.4261Z" fill="white" stroke="black" stroke-width="2" stroke-linecap="round" stroke-linejoin="round"/>
<path d="M123.887 324.956L124.737 331.916C124.737 331.916 136.097 334.846 141.587 336.066C147.087 337.286 157.337 331.916 157.337 331.916C157.337 331.916 150.747 332.226 145.107 330.296C141.007 328.896 134.637 323.386 134.637 323.386" fill="#2563EB"/>
<path d="M123.887 324.956L124.737 331.916C124.737 331.916 136.097 334.846 141.587 336.066C147.087 337.286 157.337 331.916 157.337 331.916C157.337 331.916 150.747 332.226 145.107 330.296C141.007 328.896 134.637 323.386 134.637 323.386" stroke="#231F20" stroke-width="2" stroke-miterlimit="10"/>
<path d="M96.7666 298.716C96.7666 298.716 102.067 311.326 114.567 319.696C127.057 328.066 132.227 324.976 135.897 322.646C142.027 318.756 143.087 312.036 143.087 312.036" stroke="black" stroke-width="2" stroke-linecap="round" stroke-linejoin="round"/>
<path d="M176.486 401.106C176.486 401.106 166.226 407.496 163.866 409.316C161.506 411.146 159.246 413.176 160.216 415.116C161.186 417.056 163.226 416.296 166.876 414.576C170.526 412.856 173.106 411.786 173.426 412.106C173.746 412.426 173.216 422.416 173.746 426.926C174.276 431.436 174.386 438.946 175.996 439.596C177.606 440.246 178.246 439.806 178.676 437.346C179.106 434.886 179.646 424.136 180.286 424.356C180.926 424.576 181.786 441.536 182.536 443.576C183.286 445.616 185.006 446.046 186.076 445.726C187.146 445.406 188.006 444.866 188.006 444.866C188.006 444.866 189.406 446.586 190.906 446.366C192.406 446.146 193.266 444.646 193.266 444.646C193.266 444.646 195.736 444.646 196.596 444.216C197.456 443.786 198.526 434.986 198.526 434.986C198.526 434.986 198.096 428.436 197.666 425.006C197.236 421.576 199.236 433.546 201.636 433.806C203.516 434.016 204.006 424.456 200.896 418.126C197.786 411.796 194.896 404.556 194.896 404.556L176.486 401.106Z" fill="white" stroke="black" stroke-width="2" stroke-linecap="round" stroke-linejoin="round"/>
<path d="M167.406 187.166C167.406 187.166 178.406 164.916 181.406 156.156C184.406 147.396 192.406 130.146 192.406 130.146C192.406 130.146 165.676 123.386 160.176 122.386C154.676 121.386 150.396 120.396 150.396 120.396L151.646 88.3861C151.646 88.3861 210.906 92.8861 214.906 94.8861C218.906 96.8861 233.156 123.396 233.156 131.896C233.156 140.396 203.896 202.666 203.896 202.666L167.406 187.166Z" fill="#2563EB" stroke="#231F20" stroke-width="2" stroke-miterlimit="10"/>
<path d="M139.956 104.686C139.956 104.686 135.516 107.226 130.576 106.756C125.636 106.286 122.046 105.546 122.046 105.546L123.026 91.8361L124.896 91.0361C124.896 91.0361 124.676 85.7061 124.716 80.7061C124.756 75.7061 126.816 63.8961 129.266 58.4561C131.716 53.0261 133.326 49.5461 134.976 49.3061C136.626 49.0661 139.956 50.6661 139.956 50.6661C139.956 50.6661 138.576 60.5061 138.526 65.6461C138.476 70.7961 144.066 81.3561 144.936 82.6361C145.806 83.9261 147.686 86.5161 146.226 87.6561C144.766 88.7961 142.316 91.8761 141.006 91.7161C139.706 91.5561 139.396 92.8361 138.796 95.2661C138.196 97.6961 139.956 104.686 139.956 104.686Z" fill="#FBB03B" stroke="#231F20" stroke-width="2" stroke-miterlimit="10"/>
<path d="M139.227 84.9361C139.227 84.9361 142.787 82.5461 143.477 81.4161" stroke="black" stroke-width="2" stroke-linecap="round" stroke-linejoin="round"/>
<path d="M137.366 80.9561C137.366 80.9561 140.926 78.5661 141.616 77.4361" stroke="black" stroke-width="2" stroke-linecap="round" stroke-linejoin="round"/>
<path d="M136.036 77.1061C136.036 77.1061 139.596 74.7161 140.286 73.5861" stroke="black" stroke-width="2" stroke-linecap="round" stroke-linejoin="round"/>
<path d="M220.926 215.426C220.926 215.426 254.686 145.906 256.436 136.406C258.186 126.906 251.186 113.146 245.186 102.646C239.186 92.1461 218.426 44.6361 217.426 41.3861C216.426 38.1361 215.426 35.6361 215.426 35.6361C215.426 35.6361 206.176 43.6361 201.926 45.6361C197.676 47.6361 188.426 59.3861 188.426 59.3861C188.426 59.3861 203.426 88.8961 209.176 99.3961C214.926 109.896 220.676 124.156 220.676 125.656C220.676 127.156 208.176 153.416 204.926 159.916C201.676 166.416 191.676 186.676 191.426 191.176C191.166 195.666 220.926 215.426 220.926 215.426Z" fill="#2563EB" stroke="#231F20" stroke-width="2" stroke-miterlimit="10"/>
<path d="M187.567 46.7961C187.567 46.7961 182.537 45.8761 179.067 42.3261C175.587 38.7761 173.327 35.8961 173.327 35.8961L182.917 26.0461L184.857 26.6361C184.857 26.6361 188.127 22.4261 191.377 18.6261C194.627 14.8261 203.827 7.13612 209.197 4.55612C214.567 1.97612 218.047 0.35612 219.457 1.24612C220.867 2.12612 222.387 5.49612 222.387 5.49612C222.387 5.49612 214.987 12.1261 211.627 16.0261C208.267 19.9261 205.737 31.6061 205.567 33.1461C205.407 34.6861 205.167 37.8861 203.317 37.8061C201.467 37.7261 197.607 38.5061 196.717 37.5461C195.827 36.5761 194.757 37.3661 192.737 38.8361C190.717 40.3061 187.567 46.7961 187.567 46.7961Z" fill="#FBB03B" stroke="#231F20" stroke-width="2" stroke-miterlimit="10"/>
<path d="M199.737 31.2261C199.737 31.2261 204.007 31.6961 205.247 31.2761" stroke="black" stroke-width="2" stroke-linecap="round" stroke-linejoin="round"/>
<path d="M200.887 26.9861C200.887 26.9861 205.157 27.4561 206.397 27.0361" stroke="black" stroke-width="2" stroke-linecap="round" stroke-linejoin="round"/>
<path d="M202.356 23.1861C202.356 23.1861 206.626 23.6561 207.866 23.2361" stroke="black" stroke-width="2" stroke-linecap="round" stroke-linejoin="round"/>
<path d="M199.937 497.966C199.937 497.966 229.597 485.756 236.557 463.806C239.677 453.976 257.157 429.846 261.757 426.566C266.357 423.286 271.897 418.986 271.897 418.986C271.897 418.986 261.837 431.126 259.837 449.526C257.837 467.916 254.527 473.286 254.527 473.286C254.527 473.286 260.897 470.776 267.527 462.636C274.157 454.496 284.207 446.526 284.207 446.526C284.207 446.526 275.957 468.796 273.927 477.836C271.897 486.876 263.207 494.716 263.207 494.716C263.207 494.716 269.327 495.096 274.567 491.416C276.417 490.116 280.657 485.196 280.657 485.196C280.657 485.196 276.697 497.886 267.317 501.106C257.927 504.326 245.097 500.606 233.527 497.976C221.947 495.346 199.937 497.966 199.937 497.966Z" fill="white"/>
<path d="M119.356 268.866C119.356 268.866 121.766 260.106 128.336 251.776C134.906 243.446 139.946 238.856 142.136 228.556C144.326 218.256 153.086 195.696 153.526 189.996C153.966 184.296 157.906 174.006 157.906 174.006C157.906 174.006 163.386 181.456 181.346 186.716C199.306 191.976 217.496 205.116 219.686 208.846C221.876 212.576 224.506 215.636 224.506 215.636C224.506 215.636 212.456 246.306 210.706 257.476C208.956 268.646 208.296 277.196 212.456 289.236C216.616 301.276 219.246 340.936 217.496 354.736C215.746 368.536 212.236 380.586 210.486 385.406C208.736 390.226 206.326 408.406 206.326 408.406C206.326 408.406 197.786 412.786 187.926 409.936C178.066 407.086 173.906 401.176 173.906 401.176C173.906 401.176 181.576 379.046 182.446 369.416C183.326 359.776 183.756 344.226 181.136 336.336C178.506 328.446 175.656 320.566 175.656 320.566C175.656 320.566 171.496 323.856 164.046 320.566C156.596 317.276 143.986 283.756 139.386 281.346C134.776 278.936 119.356 268.866 119.356 268.866Z" fill="#2563EB" stroke="#231F20" stroke-width="2" stroke-miterlimit="10"/>
<path d="M147.337 293.816C147.707 293.936 161.577 300.746 161.577 301.236C161.577 301.726 172.977 326.056 172.977 326.056C172.977 326.056 159.907 320.436 153.927 315.676C147.947 310.916 143.177 297.726 144.037 295.646C144.897 293.576 147.337 293.816 147.337 293.816Z" fill="#2563EB" stroke="#231F20" stroke-width="2" stroke-miterlimit="10"/>
<path d="M1.95648 237.196C1.95648 237.196 -3.80352 255.926 12.9465 267.246C27.6865 277.206 32.7565 283.156 37.6365 289.986C41.5865 295.516 46.7965 307.316 46.7965 307.316L69.0765 272.386C69.0765 272.386 67.2965 260.666 56.6065 250.746C45.9165 240.826 36.2465 213.026 36.2465 213.026L1.95648 237.196Z" fill="#FBB03B" stroke="black" stroke-width="2" stroke-linecap="round" stroke-linejoin="round"/>
<path d="M12.3564 243.006L31.2764 229.386" stroke="black" stroke-width="2" stroke-linecap="round" stroke-linejoin="round"/>
<path d="M16.1064 258.936L41.6564 239.946" stroke="black" stroke-width="2" stroke-linecap="round" stroke-linejoin="round"/>
<path d="M34.3467 257.016L46.2567 247.736" stroke="black" stroke-width="2" stroke-linecap="round" stroke-linejoin="round"/>
<path d="M92.6265 471.576C92.6265 471.576 107.046 475.176 116.316 465.396C125.586 455.616 140.516 433.466 140.516 433.466L179.136 470.026C179.136 470.026 150.756 493.366 141.026 500.406C123.396 513.166 110.126 511.736 110.126 511.736L92.6265 471.576Z" fill="#FBB03B" stroke="black" stroke-width="2" stroke-linecap="round" stroke-linejoin="round"/>
<path d="M140.696 450.396L159.476 469.356" stroke="black" stroke-width="2" stroke-linecap="round" stroke-linejoin="round"/>
<path d="M130.557 460.346L149.337 479.306" stroke="black" stroke-width="2" stroke-linecap="round" stroke-linejoin="round"/>
<path d="M124.736 467.096L133.186 476.296" stroke="black" stroke-width="2" stroke-linecap="round" stroke-linejoin="round"/>
<path d="M297.777 182.196L299.667 135.856L351.617 187.066L344.807 249.986L290.637 282.106L249.767 198.416L297.777 182.196Z" stroke="black" stroke-width="2" stroke-linecap="round" stroke-linejoin="round"/>
<path d="M297.776 182.196L344.806 249.986" stroke="black" stroke-width="2" stroke-linecap="round" stroke-linejoin="round"/>
<path d="M304.897 152.226L303.537 180.206L338.337 229.096L341.287 189.076L304.897 152.226Z" stroke="black" stroke-width="2" stroke-linecap="round" stroke-linejoin="round"/>
<path d="M293.566 195.796L322.516 242.166" stroke="black" stroke-width="2" stroke-linecap="round" stroke-linejoin="round"/>
<path d="M287.247 206.026L307.067 241.076" stroke="black" stroke-width="2" stroke-linecap="round" stroke-linejoin="round"/>
<path d="M277.727 210.536L297.537 245.586" stroke="black" stroke-width="2" stroke-linecap="round" stroke-linejoin="round"/>
<path d="M115.287 305.256C115.287 305.256 116.867 307.786 117.177 309.736C117.487 311.686 117.077 312.406 117.077 312.406L121.077 311.486" stroke="black" stroke-width="2" stroke-linecap="round" stroke-linejoin="round"/>
<path d="M128.635 319.878C129.075 318.999 128.439 317.789 127.214 317.176C125.989 316.563 124.639 316.779 124.199 317.658C123.759 318.537 124.395 319.747 125.62 320.36C126.845 320.973 128.195 320.757 128.635 319.878Z" stroke="black" stroke-width="2" stroke-linecap="round" stroke-linejoin="round"/>
<path d="M99.5566 305.346L123.617 290.286C123.617 290.286 126.507 294.436 126.187 297.406C125.867 300.376 119.607 303.586 118.247 303.346C116.887 303.106 112.227 299.416 111.347 299.976C110.467 300.536 113.027 307.196 112.387 308.076C111.747 308.956 105.657 312.196 104.047 312.036C101.567 311.786 99.5566 305.346 99.5566 305.346Z" stroke="black" stroke-width="2" stroke-linecap="round" stroke-linejoin="round"/>
<path d="M144.647 299.886C144.647 299.886 142.437 298.406 142.707 296.376C142.977 294.346 143.487 288.826 140.347 287.566C137.347 286.366 135.727 288.736 134.707 290.486C133.687 292.236 130.107 294.036 126.147 291.736C123.397 290.146 112.257 281.786 112.257 281.786C112.257 281.786 110.467 290.576 104.967 292.216C100.367 293.586 102.107 301.536 99.4166 303.226C91.8766 307.956 81.8066 297.566 81.8066 297.566C81.8066 297.566 90.5866 295.186 92.3166 288.606C94.6166 279.836 98.1466 266.746 111.707 263.516C125.267 260.286 132.377 263.336 136.157 268.316C139.937 273.296 140.957 274.406 144.097 277.176C147.237 279.946 149.637 282.986 150.927 287.146C150.927 287.146 151.757 292.866 149.817 295.726C147.877 298.586 144.647 299.886 144.647 299.886Z" fill="black"/>
<path d="M139.896 327.076C139.896 327.076 144.736 330.236 147.896 330.796C151.056 331.356 154.966 328.196 154.966 328.196L147.896 319.266L139.896 327.076Z" fill="#FBB03B" stroke="black" stroke-width="2" stroke-linecap="round" stroke-linejoin="round"/>
<path d="M152.537 327.636C152.537 327.636 159.007 326.686 163.777 325.476C173.347 323.046 181.707 315.846 186.317 312.346C193.127 307.156 203.827 299.536 214.037 290.296C217.557 287.116 221.167 278.166 221.167 278.166L238.277 267.756L242.737 283.746C242.737 283.746 236.787 298.626 223.027 308.856C209.267 319.086 184.907 331.546 168.347 332.656C151.797 333.776 147.887 330.796 147.887 330.796L152.537 327.636Z" fill="#FBB03B" stroke="black" stroke-width="2" stroke-linecap="round" stroke-linejoin="round"/>
<path d="M188.017 444.856C188.017 444.856 187.917 429.436 187.037 425.106" stroke="black" stroke-width="2" stroke-linecap="round" stroke-linejoin="round"/>
<path d="M193.566 443.636C193.566 443.636 193.466 428.216 192.586 423.886" stroke="black" stroke-width="2" stroke-linecap="round" stroke-linejoin="round"/>
</svg>
