<svg width="300" height="239" viewBox="0 0 300 239" fill="none" xmlns="http://www.w3.org/2000/svg">
<path d="M0 126.861V207.698C2.34722 211.095 5.03227 214.313 8.05521 217.318C33.8925 243.173 74.9333 244.809 102.691 222.226C103.616 221.479 104.523 220.703 105.412 219.897C106.289 219.114 107.154 218.296 108.008 217.443L108.132 217.318L173.552 151.898C174.394 151.057 175.212 150.197 176.006 149.32C176.812 148.431 177.583 147.524 178.318 146.599C195.531 125.439 198.678 96.5965 187.778 72.6264L158.438 101.984C158.438 108.902 156.482 115.481 152.836 121.1C152.196 122.114 151.485 123.092 150.72 124.034C149.938 125.006 149.102 125.937 148.213 126.826L82.9174 192.121C82.7633 192.275 82.6032 192.43 82.4373 192.584C82.378 192.655 82.3129 192.714 82.2417 192.762C82.0284 192.975 81.8149 193.176 81.6016 193.366C81.5304 193.425 81.4593 193.491 81.3881 193.562C81.2933 193.645 81.1985 193.728 81.1036 193.811C81.0325 193.882 80.9555 193.947 80.8725 194.006C80.8488 194.018 80.831 194.036 80.8192 194.06C80.7955 194.071 80.7717 194.089 80.748 194.113C80.7243 194.137 80.7006 194.154 80.6769 194.166C80.499 194.32 80.3153 194.469 80.1256 194.611C79.1891 195.381 78.217 196.093 77.2094 196.745C71.5903 200.39 64.9931 202.328 58.0937 202.328C48.6693 202.328 39.8495 198.701 33.2523 192.121C26.673 185.524 23.0454 176.704 23.0454 167.28C23.0454 157.855 26.673 149.036 33.2523 142.456L98.5478 77.1608C105.02 70.6881 113.645 67.0606 122.891 66.9361L152.392 37.4358C126.359 25.7708 94.6713 30.6075 73.3507 51.9459L8.05521 117.241C5.03227 120.264 2.34722 123.483 0 126.861Z" fill="#6C86C8" fill-opacity="0.08"/>
<path d="M134.965 200.586L164.466 171.067C173.712 170.943 182.319 167.333 188.809 160.861L254.087 95.5651C260.684 88.968 264.312 80.1481 264.312 70.7237C264.312 61.317 260.684 52.4971 254.087 45.9C247.508 39.3029 238.688 35.6753 229.263 35.6753C222.346 35.6753 215.767 37.6314 210.148 41.2767C209.14 41.9287 208.168 42.634 207.231 43.3927C206.259 44.1751 205.329 45.0109 204.44 45.9L184.328 66.0114L157.3 93.0401L139.144 111.195C138.255 112.085 137.419 113.015 136.637 113.987C135.878 114.924 135.173 115.896 134.521 116.904C130.876 122.523 128.92 129.12 128.92 136.019C128.92 136.031 128.92 136.037 128.92 136.037L99.5792 165.377C88.6789 141.407 91.8262 112.565 109.021 91.4219C109.768 90.4972 110.545 89.5904 111.351 88.7013C112.145 87.824 112.963 86.9586 113.805 86.1051L113.929 85.9806L131.942 67.9675L159.06 40.8677L179.225 20.6851L179.349 20.5606C180.191 19.719 181.056 18.901 181.945 18.1067C182.834 17.3125 183.741 16.5419 184.666 15.7951C212.424 -6.78806 253.465 -5.15212 279.302 20.6851C306.899 48.2828 306.899 93.1823 279.302 120.78L214.006 186.058C192.686 207.396 160.998 212.233 134.965 200.586Z" fill="#6C86C8" fill-opacity="0.08"/>
</svg>
