<svg width="283" height="229" viewBox="0 0 283 229" fill="none" xmlns="http://www.w3.org/2000/svg">
<path d="M265.744 160.498C265.744 169.545 262.261 177.991 255.936 184.316C249.611 190.681 241.165 194.163 232.118 194.123C225.513 194.163 219.188 192.282 213.784 188.759C212.823 188.146 211.889 187.465 210.982 186.718C210.795 186.584 210.621 186.451 210.461 186.317C210.435 186.291 210.408 186.264 210.381 186.237C210.355 186.237 210.341 186.224 210.341 186.197C210.315 186.171 210.288 186.157 210.261 186.157C210.181 186.104 210.114 186.037 210.061 185.957C209.954 185.877 209.861 185.797 209.781 185.717C209.701 185.664 209.634 185.61 209.581 185.557C209.367 185.37 209.154 185.17 208.94 184.956C208.887 184.903 208.833 184.85 208.78 184.796C208.62 184.636 208.46 184.476 208.3 184.316L189.005 165.061L163.065 139.121L145.652 121.668C144.798 120.814 143.997 119.933 143.25 119.026C142.529 118.118 141.849 117.184 141.208 116.224C137.726 110.82 135.844 104.495 135.844 97.8496L107.703 69.708C97.2145 92.6856 100.257 120.387 116.749 140.642C117.47 141.55 118.217 142.43 118.991 143.284C119.738 144.112 120.526 144.939 121.353 145.766L121.473 145.886L138.726 163.14L164.746 189.16L184.121 208.534L184.241 208.655C185.042 209.455 185.869 210.242 186.723 211.016C187.577 211.764 188.445 212.497 189.325 213.218C215.986 234.875 255.336 233.313 280.155 208.534C306.615 182.034 306.615 138.961 280.155 112.501L248.831 81.1768L217.507 49.8528C197.011 29.3571 166.628 24.7136 141.649 35.9222L169.95 64.2238C178.797 64.3439 187.083 67.8266 193.288 74.0313L255.936 136.679C262.261 143.004 265.744 151.451 265.744 160.498Z" fill="url(#paint0_linear_11_73359)"/>
<path d="M158.381 192.442L130.04 164.14C121.193 164.02 112.906 160.538 106.702 154.333L44.0537 91.6849C37.7289 85.36 34.2462 76.9136 34.2462 67.8666C34.2462 58.8197 37.7289 50.3732 44.0537 44.0484C50.3786 37.7235 58.825 34.2409 67.872 34.2409C74.5171 34.2409 80.8421 36.1223 86.2462 39.605C87.2069 40.2188 88.141 40.8993 89.0484 41.6465C89.9557 42.3938 90.8362 43.1944 91.6902 44.0484L110.985 63.3432L136.925 89.243L154.338 106.696C155.219 107.55 156.02 108.444 156.74 109.378C157.487 110.259 158.168 111.193 158.782 112.181C162.304 117.545 164.186 123.87 164.146 130.515L192.328 158.696C202.776 135.679 199.773 108.017 183.24 87.7218C182.52 86.8411 181.786 85.9738 181.039 85.1198C180.265 84.2658 179.478 83.4386 178.677 82.6379L178.557 82.5178L161.264 65.2246L135.244 39.2047L115.909 19.8698L115.789 19.7097C114.961 18.9091 114.134 18.1352 113.307 17.3879C112.453 16.614 111.572 15.8668 110.665 15.1462C84.0445 -6.51036 44.6542 -4.94919 19.8752 19.8698C-6.62508 46.3301 -6.62508 89.4031 19.8752 115.863L82.5232 178.511C102.979 199.007 133.402 203.651 158.381 192.442Z" fill="url(#paint1_linear_11_73359)"/>
<defs>
<linearGradient id="paint0_linear_11_73359" x1="413.347" y1="219.121" x2="81.7627" y2="-36.8537" gradientUnits="userSpaceOnUse">
<stop offset="0.313793" stop-color="#6C86C8" stop-opacity="0.19"/>
<stop offset="0.705" stop-color="#6C86C8" stop-opacity="0.08"/>
</linearGradient>
<linearGradient id="paint1_linear_11_73359" x1="-192.257" y1="-73.651" x2="198.452" y2="261.775" gradientUnits="userSpaceOnUse">
<stop offset="0.449593" stop-color="#6C86C8" stop-opacity="0.2"/>
<stop offset="0.897087" stop-color="#6C86C8" stop-opacity="0.11"/>
</linearGradient>
</defs>
</svg>
