<svg width="877" height="60" viewBox="0 0 877 60" fill="none" xmlns="http://www.w3.org/2000/svg">
<g filter="url(#filter0_d_24_5144)">
<path d="M6 15C6 7.26801 12.268 1 20 1C27.732 1 34 7.26801 34 15C34 22.732 27.732 29 20 29C12.268 29 6 22.732 6 15Z" fill="#2563EB"/>
<path d="M21.3146 10.2727V19H19.9936V11.5938H19.9425L17.8544 12.9574V11.696L20.032 10.2727H21.3146Z" fill="white"/>
</g>
<path d="M42 14.041H421V15.041H42V14.041Z" fill="#2563EB"/>
<g filter="url(#filter1_d_24_5144)">
<path d="M427 15C427 7.26801 433.268 1 441 1C448.732 1 455 7.26801 455 15C455 22.732 448.732 29 441 29C433.268 29 427 22.732 427 15Z" fill="#2563EB"/>
<path d="M438.16 19V18.0455L441.113 14.9858C441.428 14.6534 441.688 14.3622 441.893 14.1122C442.1 13.8594 442.255 13.6193 442.357 13.392C442.46 13.1648 442.511 12.9233 442.511 12.6676C442.511 12.3778 442.442 12.1278 442.306 11.9176C442.17 11.7045 441.984 11.5412 441.748 11.4276C441.512 11.3111 441.246 11.2528 440.951 11.2528C440.638 11.2528 440.366 11.3168 440.133 11.4446C439.9 11.5724 439.721 11.7528 439.596 11.9858C439.471 12.2187 439.408 12.4915 439.408 12.804H438.151C438.151 12.2727 438.273 11.8082 438.518 11.4105C438.762 11.0128 439.097 10.7045 439.523 10.4858C439.95 10.2642 440.434 10.1534 440.977 10.1534C441.525 10.1534 442.008 10.2628 442.425 10.4815C442.846 10.6974 443.174 10.9929 443.41 11.3679C443.646 11.7401 443.763 12.1605 443.763 12.6293C443.763 12.9531 443.702 13.2699 443.58 13.5795C443.461 13.8892 443.252 14.2344 442.954 14.6151C442.656 14.9929 442.241 15.4517 441.71 15.9915L439.975 17.8068V17.8707H443.904V19H438.16Z" fill="white"/>
</g>
<rect x="463" y="14.041" width="379" height="1" fill="#2563EB"/>
<g filter="url(#filter2_d_24_5144)">
<path d="M847 15C847 7.26801 853.268 1 861 1C868.732 1 875 7.26801 875 15C875 22.732 868.732 29 861 29C853.268 29 847 22.732 847 15Z" fill="#2563EB"/>
<path d="M861.011 19.1193C860.425 19.1193 859.903 19.0185 859.442 18.8168C858.985 18.6151 858.623 18.3352 858.356 17.9773C858.092 17.6165 857.95 17.1989 857.93 16.7244H859.268C859.285 16.983 859.371 17.2074 859.528 17.3977C859.687 17.5852 859.894 17.7301 860.15 17.8324C860.406 17.9347 860.69 17.9858 861.002 17.9858C861.346 17.9858 861.65 17.9261 861.914 17.8068C862.181 17.6875 862.39 17.5213 862.54 17.3082C862.691 17.0923 862.766 16.8438 862.766 16.5625C862.766 16.2699 862.691 16.0128 862.54 15.7912C862.393 15.5668 862.175 15.3906 861.888 15.2628C861.604 15.1349 861.261 15.071 860.857 15.071H860.12V13.9972H860.857C861.181 13.9972 861.465 13.9389 861.71 13.8224C861.957 13.706 862.15 13.544 862.289 13.3366C862.428 13.1264 862.498 12.8807 862.498 12.5994C862.498 12.3295 862.437 12.0952 862.315 11.8963C862.195 11.6946 862.025 11.5369 861.803 11.4233C861.585 11.3097 861.326 11.2528 861.028 11.2528C860.744 11.2528 860.478 11.3054 860.231 11.4105C859.987 11.5128 859.788 11.6605 859.634 11.8537C859.481 12.044 859.398 12.2727 859.387 12.5398H858.113C858.127 12.0682 858.266 11.6534 858.531 11.2955C858.798 10.9375 859.15 10.6577 859.587 10.456C860.025 10.2543 860.511 10.1534 861.045 10.1534C861.604 10.1534 862.087 10.2628 862.494 10.4815C862.903 10.6974 863.218 10.9858 863.44 11.3466C863.664 11.7074 863.775 12.1023 863.772 12.5312C863.775 13.0199 863.638 13.4347 863.363 13.7756C863.09 14.1165 862.727 14.3452 862.272 14.4616V14.5298C862.852 14.6179 863.3 14.848 863.619 15.2202C863.94 15.5923 864.099 16.054 864.096 16.6051C864.099 17.0852 863.965 17.5156 863.695 17.8963C863.428 18.277 863.063 18.5767 862.6 18.7955C862.137 19.0114 861.607 19.1193 861.011 19.1193Z" fill="white"/>
</g>
<defs>
<filter id="filter0_d_24_5144" x="4" y="0" width="32" height="32" filterUnits="userSpaceOnUse" color-interpolation-filters="sRGB">
<feFlood flood-opacity="0" result="BackgroundImageFix"/>
<feColorMatrix in="SourceAlpha" type="matrix" values="0 0 0 0 0 0 0 0 0 0 0 0 0 0 0 0 0 0 127 0" result="hardAlpha"/>
<feOffset dy="1"/>
<feGaussianBlur stdDeviation="1"/>
<feComposite in2="hardAlpha" operator="out"/>
<feColorMatrix type="matrix" values="0 0 0 0 0 0 0 0 0 0 0 0 0 0 0 0 0 0 0.05 0"/>
<feBlend mode="normal" in2="BackgroundImageFix" result="effect1_dropShadow_24_5144"/>
<feBlend mode="normal" in="SourceGraphic" in2="effect1_dropShadow_24_5144" result="shape"/>
</filter>
<filter id="filter1_d_24_5144" x="425" y="0" width="32" height="32" filterUnits="userSpaceOnUse" color-interpolation-filters="sRGB">
<feFlood flood-opacity="0" result="BackgroundImageFix"/>
<feColorMatrix in="SourceAlpha" type="matrix" values="0 0 0 0 0 0 0 0 0 0 0 0 0 0 0 0 0 0 127 0" result="hardAlpha"/>
<feOffset dy="1"/>
<feGaussianBlur stdDeviation="1"/>
<feComposite in2="hardAlpha" operator="out"/>
<feColorMatrix type="matrix" values="0 0 0 0 0 0 0 0 0 0 0 0 0 0 0 0 0 0 0.05 0"/>
<feBlend mode="normal" in2="BackgroundImageFix" result="effect1_dropShadow_24_5144"/>
<feBlend mode="normal" in="SourceGraphic" in2="effect1_dropShadow_24_5144" result="shape"/>
</filter>
<filter id="filter2_d_24_5144" x="845" y="0" width="32" height="32" filterUnits="userSpaceOnUse" color-interpolation-filters="sRGB">
<feFlood flood-opacity="0" result="BackgroundImageFix"/>
<feColorMatrix in="SourceAlpha" type="matrix" values="0 0 0 0 0 0 0 0 0 0 0 0 0 0 0 0 0 0 127 0" result="hardAlpha"/>
<feOffset dy="1"/>
<feGaussianBlur stdDeviation="1"/>
<feComposite in2="hardAlpha" operator="out"/>
<feColorMatrix type="matrix" values="0 0 0 0 0 0 0 0 0 0 0 0 0 0 0 0 0 0 0.05 0"/>
<feBlend mode="normal" in2="BackgroundImageFix" result="effect1_dropShadow_24_5144"/>
<feBlend mode="normal" in="SourceGraphic" in2="effect1_dropShadow_24_5144" result="shape"/>
</filter>
</defs>
</svg>
