<svg width="283" height="216" viewBox="0 0 283 216" fill="none" xmlns="http://www.w3.org/2000/svg">
<rect x="119.477" y="128.281" width="88.0358" height="88.0358" rx="44.0179" fill="#06B6D4" fill-opacity="0.8"/>
<path d="M151.903 178.799V177.198L156.855 172.067C157.383 171.51 157.819 171.022 158.162 170.603C158.51 170.179 158.77 169.776 158.941 169.395C159.113 169.014 159.198 168.609 159.198 168.18C159.198 167.694 159.084 167.275 158.855 166.922C158.627 166.565 158.315 166.291 157.919 166.101C157.524 165.905 157.079 165.808 156.583 165.808C156.059 165.808 155.602 165.915 155.211 166.129C154.82 166.344 154.52 166.646 154.311 167.037C154.101 167.427 153.996 167.885 153.996 168.409H151.888C151.888 167.518 152.093 166.739 152.503 166.072C152.913 165.405 153.475 164.888 154.189 164.521C154.904 164.15 155.716 163.964 156.626 163.964C157.545 163.964 158.355 164.148 159.056 164.514C159.761 164.876 160.311 165.372 160.706 166.001C161.102 166.625 161.299 167.33 161.299 168.116C161.299 168.659 161.197 169.19 160.992 169.709C160.792 170.229 160.442 170.807 159.942 171.446C159.441 172.079 158.746 172.849 157.855 173.754L154.947 176.798V176.905H161.535V178.799H151.903ZM169.439 178.999C168.458 178.999 167.581 178.83 166.809 178.491C166.042 178.153 165.435 177.684 164.987 177.084C164.544 176.479 164.306 175.778 164.273 174.983H166.516C166.545 175.416 166.69 175.793 166.952 176.112C167.219 176.426 167.567 176.669 167.995 176.841C168.424 177.012 168.901 177.098 169.425 177.098C170.001 177.098 170.511 176.998 170.954 176.798C171.402 176.598 171.752 176.319 172.004 175.962C172.257 175.6 172.383 175.183 172.383 174.711C172.383 174.221 172.257 173.79 172.004 173.418C171.757 173.042 171.392 172.746 170.911 172.532C170.435 172.317 169.858 172.21 169.182 172.21H167.945V170.41H169.182C169.725 170.41 170.201 170.312 170.611 170.117C171.025 169.921 171.349 169.65 171.583 169.302C171.816 168.949 171.933 168.537 171.933 168.066C171.933 167.613 171.83 167.22 171.626 166.887C171.425 166.548 171.14 166.284 170.768 166.094C170.401 165.903 169.968 165.808 169.467 165.808C168.991 165.808 168.546 165.896 168.131 166.072C167.722 166.244 167.388 166.491 167.131 166.815C166.874 167.134 166.735 167.518 166.716 167.966H164.58C164.604 167.175 164.837 166.479 165.28 165.879C165.728 165.279 166.319 164.81 167.052 164.471C167.786 164.133 168.6 163.964 169.496 163.964C170.435 163.964 171.244 164.148 171.926 164.514C172.612 164.876 173.14 165.36 173.512 165.965C173.888 166.57 174.074 167.232 174.069 167.951C174.074 168.771 173.845 169.466 173.383 170.038C172.926 170.61 172.316 170.993 171.554 171.188V171.303C172.526 171.45 173.279 171.836 173.812 172.46C174.35 173.084 174.617 173.859 174.612 174.783C174.617 175.588 174.393 176.31 173.941 176.948C173.493 177.586 172.881 178.089 172.104 178.456C171.328 178.818 170.439 178.999 169.439 178.999Z" fill="white"/>
<rect x="44.018" y="37.7296" width="125.765" height="125.765" rx="62.8827" fill="#8B5CF6" fill-opacity="0.9"/>
<path d="M99.5469 109.862C98.7311 109.851 97.9272 109.702 97.1352 109.416C96.3492 109.13 95.6346 108.654 94.9915 107.987C94.3484 107.32 93.8333 106.424 93.4462 105.298C93.0651 104.173 92.8746 102.767 92.8746 101.082C92.8746 99.4862 93.0324 98.069 93.348 96.8304C93.6695 95.5918 94.131 94.5467 94.7325 93.6952C95.3339 92.8377 96.0604 92.1856 96.9119 91.739C97.7635 91.2924 98.7192 91.0691 99.7792 91.0691C100.869 91.0691 101.837 91.2835 102.682 91.7122C103.528 92.141 104.213 92.7335 104.737 93.4897C105.267 94.246 105.603 95.1065 105.746 96.0711H103.022C102.837 95.3089 102.471 94.6866 101.923 94.2043C101.375 93.722 100.66 93.4808 99.7792 93.4808C98.4393 93.4808 97.3943 94.0644 96.6439 95.2315C95.8996 96.3987 95.5244 98.0213 95.5185 100.1H95.6525C95.9681 99.5815 96.3551 99.1408 96.8137 98.7776C97.2781 98.4084 97.7962 98.1255 98.3679 97.929C98.9455 97.7266 99.5529 97.6253 100.19 97.6253C101.25 97.6253 102.209 97.8844 103.066 98.4024C103.93 98.9146 104.617 99.6232 105.13 100.528C105.642 101.433 105.898 102.47 105.898 103.637C105.898 104.804 105.633 105.861 105.103 106.808C104.579 107.754 103.84 108.505 102.888 109.059C101.935 109.606 100.821 109.874 99.5469 109.862ZM99.538 107.54C100.241 107.54 100.869 107.367 101.423 107.022C101.976 106.677 102.414 106.212 102.736 105.629C103.057 105.045 103.218 104.393 103.218 103.672C103.218 102.97 103.06 102.33 102.745 101.752C102.435 101.174 102.006 100.716 101.458 100.376C100.917 100.037 100.297 99.8673 99.6005 99.8673C99.0705 99.8673 98.5793 99.9686 98.1267 100.171C97.6801 100.373 97.2871 100.653 96.9476 101.011C96.6082 101.368 96.3403 101.779 96.1437 102.243C95.9532 102.702 95.8579 103.187 95.8579 103.699C95.8579 104.384 96.0157 105.018 96.3313 105.602C96.6529 106.185 97.0906 106.656 97.6444 107.013C98.2041 107.364 98.8353 107.54 99.538 107.54ZM109.893 109.612L117.879 93.8202V93.6862H108.643V91.3192H120.737V93.7666L112.778 109.612H109.893Z" fill="white"/>
<rect x="157.207" width="176.072" height="176.072" rx="88.0358" fill="#2563EB" fill-opacity="0.9"/>
<path d="M230.359 71.158C231.827 71.1687 233.274 71.4366 234.7 71.9619C236.126 72.4871 237.412 73.3446 238.559 74.5343C239.716 75.7241 240.638 77.3319 241.324 79.3577C242.021 81.3728 242.375 83.881 242.385 86.8822C242.385 89.7655 242.096 92.3326 241.517 94.5836C240.938 96.8238 240.108 98.7156 239.025 100.259C237.953 101.803 236.651 102.976 235.118 103.78C233.585 104.584 231.86 104.986 229.941 104.986C227.979 104.986 226.238 104.6 224.716 103.828C223.194 103.057 221.956 101.99 221.002 100.629C220.048 99.2569 219.453 97.6813 219.217 95.902H224.121C224.442 97.3168 225.096 98.4637 226.082 99.3426C227.079 100.211 228.365 100.645 229.941 100.645C232.353 100.645 234.234 99.5945 235.584 97.4937C236.935 95.3821 237.615 92.4345 237.626 88.6508H237.369C236.812 89.5726 236.115 90.3658 235.279 91.0303C234.453 91.6949 233.526 92.2094 232.497 92.5738C231.468 92.9382 230.37 93.1205 229.201 93.1205C227.304 93.1205 225.578 92.6542 224.024 91.7217C222.47 90.7892 221.232 89.5083 220.31 87.879C219.388 86.2498 218.928 84.3901 218.928 82.3C218.928 80.2206 219.399 78.3341 220.342 76.6405C221.296 74.947 222.625 73.6072 224.33 72.6211C226.045 71.6242 228.054 71.1365 230.359 71.158ZM230.375 75.3382C229.121 75.3382 227.99 75.6491 226.983 76.2707C225.986 76.8817 225.198 77.7124 224.619 78.7628C224.04 79.8025 223.751 80.9602 223.751 82.2357C223.751 83.5112 224.03 84.6688 224.587 85.7085C225.155 86.7375 225.927 87.5575 226.902 88.1685C227.888 88.7687 229.014 89.0688 230.279 89.0688C231.222 89.0688 232.101 88.8866 232.915 88.5222C233.73 88.1577 234.443 87.654 235.054 87.0108C235.665 86.357 236.142 85.6174 236.485 84.7921C236.828 83.9667 236.999 83.0985 236.999 82.1874C236.999 80.9762 236.71 79.8508 236.131 78.8111C235.563 77.7714 234.78 76.9353 233.784 76.3029C232.787 75.6598 231.651 75.3382 230.375 75.3382ZM259.369 71.158C260.837 71.1687 262.284 71.4366 263.71 71.9619C265.136 72.4871 266.422 73.3446 267.569 74.5343C268.726 75.7241 269.648 77.3319 270.334 79.3577C271.031 81.3728 271.385 83.881 271.395 86.8822C271.395 89.7655 271.106 92.3326 270.527 94.5836C269.948 96.8238 269.118 98.7156 268.035 100.259C266.963 101.803 265.661 102.976 264.128 103.78C262.595 104.584 260.87 104.986 258.951 104.986C256.989 104.986 255.248 104.6 253.726 103.828C252.204 103.057 250.966 101.99 250.012 100.629C249.058 99.2569 248.463 97.6813 248.227 95.902H253.131C253.452 97.3168 254.106 98.4637 255.092 99.3426C256.089 100.211 257.375 100.645 258.951 100.645C261.363 100.645 263.244 99.5945 264.594 97.4937C265.945 95.3821 266.625 92.4345 266.636 88.6508H266.379C265.822 89.5726 265.125 90.3658 264.289 91.0303C263.463 91.6949 262.536 92.2094 261.507 92.5738C260.478 92.9382 259.38 93.1205 258.211 93.1205C256.314 93.1205 254.588 92.6542 253.034 91.7217C251.48 90.7892 250.242 89.5083 249.32 87.879C248.398 86.2498 247.937 84.3901 247.937 82.3C247.937 80.2206 248.409 78.3341 249.352 76.6405C250.306 74.947 251.635 73.6072 253.34 72.6211C255.055 71.6242 257.064 71.1365 259.369 71.158ZM259.385 75.3382C258.131 75.3382 257 75.6491 255.993 76.2707C254.996 76.8817 254.208 77.7124 253.629 78.7628C253.05 79.8025 252.761 80.9602 252.761 82.2357C252.761 83.5112 253.04 84.6688 253.597 85.7085C254.165 86.7375 254.937 87.5575 255.912 88.1685C256.898 88.7687 258.024 89.0688 259.289 89.0688C260.232 89.0688 261.111 88.8866 261.925 88.5222C262.74 88.1577 263.453 87.654 264.064 87.0108C264.675 86.357 265.152 85.6174 265.495 84.7921C265.838 83.9667 266.009 83.0985 266.009 82.1874C266.009 80.9762 265.72 79.8508 265.141 78.8111C264.573 77.7714 263.79 76.9353 262.794 76.3029C261.797 75.6598 260.661 75.3382 259.385 75.3382Z" fill="white"/>
</svg>
