<svg width="500" height="435" viewBox="0 0 500 435" fill="none" xmlns="http://www.w3.org/2000/svg">
<path d="M172.541 241.38C172.541 241.38 173.109 252.994 176.92 264.609C180.731 276.223 184.155 281.747 183.011 286.693C181.867 291.64 180.155 296.785 179.966 300.588C179.776 304.399 180.731 309.346 182.056 310.103C183.39 310.868 192.76 312.652 203.636 312.481C214.512 312.31 241.912 311.941 241.912 311.941L250.184 312.662L248.03 308.228C248.03 308.228 251.148 308.346 251.625 308.949C252.103 309.544 253.067 310.391 253.067 310.391C253.067 310.391 251.752 304.759 250.31 303.678C248.868 302.597 245.273 301.398 245.273 301.398C245.273 301.398 241.678 297.326 238.686 297.443C235.695 297.56 227.784 297.56 223.468 296.245C219.152 294.929 202.257 292.766 202.257 292.766C202.257 292.766 212.565 282.585 219.395 276.827C226.225 271.069 234.731 260.293 237.371 250.823C240.011 241.353 243.606 223.143 243.606 223.143" fill="#2563EB"/>
<path d="M172.541 241.38C172.541 241.38 173.109 252.994 176.92 264.609C180.731 276.223 184.155 281.747 183.011 286.693C181.867 291.64 180.155 296.785 179.966 300.588C179.776 304.399 180.731 309.346 182.056 310.103C183.39 310.868 192.76 312.652 203.636 312.481C214.512 312.31 241.912 311.941 241.912 311.941L250.184 312.662L248.03 308.228C248.03 308.228 251.148 308.346 251.625 308.949C252.103 309.544 253.067 310.391 253.067 310.391C253.067 310.391 251.752 304.759 250.31 303.678C248.868 302.597 245.273 301.398 245.273 301.398C245.273 301.398 241.678 297.326 238.686 297.443C235.695 297.56 227.784 297.56 223.468 296.245C219.152 294.929 202.257 292.766 202.257 292.766C202.257 292.766 212.565 282.585 219.395 276.827C226.225 271.069 234.731 260.293 237.371 250.823C240.011 241.353 243.606 223.143 243.606 223.143" stroke="black" stroke-width="2" stroke-linecap="round" stroke-linejoin="round"/>
<path d="M96.1588 213.493C96.1588 213.493 87.707 217.818 86.9141 220.377C86.1302 222.936 85.7338 229.423 90.4552 243.182C95.1767 256.95 102.25 272.286 102.845 276.611C103.439 280.936 102.845 285.657 102.845 285.657L106.386 280.152C106.386 280.152 107.566 284.675 106.971 287.036C106.377 289.397 105.205 290.577 105.205 290.577C105.205 290.577 110.711 283.891 110.909 280.35C111.107 276.809 109.927 273.863 109.927 273.863L107.17 237.289C107.17 237.289 128.605 251.445 142.166 254.589C155.736 257.734 167.927 261.672 177.955 251.643C187.984 241.614 187.588 233.163 187.588 233.163L96.1588 213.493Z" fill="#2563EB" stroke="black" stroke-width="2" stroke-linecap="round" stroke-linejoin="round"/>
<path d="M290.74 17.8225C290.74 17.8225 291.929 14.1192 290.875 11.0737C289.82 8.02813 288.099 4.7213 288.099 4.7213C288.099 4.7213 284.522 12.3982 282.936 10.9385C281.351 9.47881 278.17 3.12646 278.17 3.12646C278.17 3.12646 277.512 9.47881 274.728 10.6682C271.953 11.8576 269.033 8.94719 266.79 7.09105C264.546 5.2349 260.302 1 260.302 1C260.302 1 265.591 17.1467 262.816 18.9938C260.041 20.841 255.004 18.8587 255.004 18.8587C255.004 18.8587 259.104 24.2829 255.662 26.1391C252.22 27.9952 243.75 24.6794 243.75 24.6794C243.75 24.6794 251.157 30.1037 251.031 34.8702C250.904 39.6367 248.255 41.8803 247.057 40.2945C245.868 38.7086 245.201 36.1947 245.201 36.1947C245.201 36.1947 242.822 38.8438 241.227 36.456C239.641 34.0773 239.903 31.1669 239.903 31.1669C239.903 31.1669 238.713 36.1947 234.208 34.2124C229.703 32.2301 226.666 27.8601 226.666 27.8601C226.666 27.8601 229.577 33.9511 228.387 37.1228C227.198 40.2944 224.81 42.1506 224.81 42.1506C224.81 42.1506 226.793 42.8084 226.793 45.3223C226.793 47.8362 226.135 47.0433 226.135 47.0433C226.135 47.0433 230.766 47.8362 230.235 49.8185C229.703 51.8008 229.577 54.3147 224.81 54.0534C220.044 53.7921 219.521 48.7642 219.521 48.7642C219.521 48.7642 219.521 51.2782 214.097 50.8817C208.673 50.4852 205.231 49.6923 205.231 49.6923C205.231 49.6923 208.402 53.6659 205.627 55.2518C202.852 56.8376 199.932 56.9727 199.932 56.9727C199.932 56.9727 204.429 60.5499 204.699 64.2532C204.96 67.9564 203.113 69.6774 203.113 69.6774C203.113 69.6774 207.609 71.6597 206.285 74.4439C204.96 77.2192 201.653 76.1649 201.653 76.1649C201.653 76.1649 203.239 78.814 199.275 80.3998C195.301 81.9857 193.58 78.0211 193.58 78.0211C193.58 78.0211 191.328 81.4631 188.156 80.535C184.984 79.6069 183.128 76.4353 183.128 76.4353C183.128 76.4353 181.407 78.5527 178.362 76.5704C175.316 74.5881 173.991 72.8671 173.991 72.8671C173.991 72.8671 178.361 78.4266 178.091 83.0579C177.83 87.6893 175.712 89.149 175.712 89.149C175.712 89.149 177.569 91.5277 177.569 94.5732C177.569 97.6188 175.055 99.2046 175.055 99.2046C175.055 99.2046 180.875 100.133 181.668 103.836C182.461 107.539 181.011 109.531 181.011 109.531C181.011 109.531 183.921 112.973 181.542 115.622C179.163 118.271 176.118 115.225 176.118 115.225C176.118 115.225 176.118 120.118 172.676 120.118C169.234 120.118 165.531 118.262 165.531 118.262C165.531 118.262 170.027 122.632 170.297 125.668C170.558 128.714 168.441 130.696 168.441 130.696C168.441 130.696 173.334 133.606 171.351 135.985C169.369 138.364 166.981 137.175 166.981 137.175C166.981 137.175 168.702 142.067 164.999 142.067C161.296 142.067 157.854 139.292 157.854 139.292C157.854 139.292 161.431 146.176 159.575 148.158C157.719 150.141 155.998 148.69 155.998 148.69C155.998 148.69 156.133 153.456 152.294 153.456C148.456 153.456 147.005 149.879 147.005 149.879C147.005 149.879 148.059 156.889 144.626 161.521C141.194 166.152 139.067 163.242 139.067 163.242L137.481 159.665C137.481 159.665 135.499 163.764 133.643 164.161C131.787 164.557 128.219 161.115 128.219 161.115C128.219 161.115 123.191 162.169 120.145 160.322C117.1 158.466 116.974 153.97 116.974 153.97C116.974 153.97 111.684 160.187 109.567 158.205C107.449 156.223 109.17 146.563 109.17 146.563C109.17 146.563 105.593 150.402 103.35 150.005C101.097 149.609 99.3762 148.681 99.3762 148.681C99.3762 148.681 100.701 151.591 97.6552 150.933C94.6096 150.276 91.438 146.302 91.3028 144.581C91.1677 142.86 90.2486 140.346 90.2486 140.346C90.2486 140.346 87.8699 144.049 86.1489 141.536C84.4279 139.022 84.8243 137.039 84.8243 137.039C84.8243 137.039 79.6614 137.571 77.0123 134.264C74.3632 130.957 72.7774 126.191 72.7774 126.191C72.7774 126.191 69.7319 128.173 66.1637 126.722C62.5866 125.263 61.6675 121.83 61.6675 121.83C61.6675 121.83 55.973 121.568 52.4048 119.847C48.8367 118.126 47.6383 116.405 47.6383 116.405C47.6383 116.405 45.9173 117.334 44.5928 116.144C43.2683 114.955 40.8895 115.09 40.0966 113.765C39.3037 112.441 37.7179 109.531 37.7179 109.531C37.7179 109.531 37.1862 112.837 34.2759 112.441C31.3655 112.044 29.5094 111.116 27.1306 111.387C24.7519 111.657 16.4082 114.558 16.4082 114.558C16.4082 114.558 70.9303 138.905 83.9053 150.023C96.8713 161.142 124.668 177.947 148.888 174.37C173.108 170.792 191.237 149.492 202.618 131.092C213.998 112.693 228.685 81.3369 239.668 69.1548C250.643 56.9908 290.74 17.8225 290.74 17.8225Z" fill="#2563EB" stroke="black" stroke-width="2" stroke-linecap="round" stroke-linejoin="round"/>
<path d="M332.836 74.543C332.836 74.543 348.415 84.9771 344.532 107.656C340.838 129.218 355.606 145.824 355.606 145.824C355.606 145.824 355.227 130.615 356.795 127.488C358.363 124.362 362.354 133.714 367.707 144.311C373.059 154.898 372.689 172.324 379.312 190.246C385.935 208.168 406.578 206.275 414.453 219.088C422.211 231.694 428.635 233.081 428.635 233.081L424.896 220.872C424.896 220.872 434.267 218.277 452.693 237.298C471.119 256.319 471.146 266.952 481.454 275.962C489.122 282.675 494.736 284.936 499.79 286.865C502.638 287.946 475.489 266.105 480.301 242.344C483.869 224.729 475.697 194.643 464.938 188.687C454.18 182.74 445.647 169.711 451.008 164.197C456.369 158.682 456.838 151.267 449.846 142.509C442.845 133.751 416.039 128.66 412.488 119.28C408.938 109.9 422.733 115.685 422.733 115.685C422.733 115.685 414.615 87.0405 388.295 82.9768C336.269 74.9485 295.02 48.7552 295.02 48.7552L304.183 58.1891L332.836 74.543Z" fill="#FF0000"/>
<path d="M342.829 272.601C342.829 272.601 345.126 272.133 348.406 272.953C351.686 273.773 353.227 273.079 354.263 272.448C356.164 271.286 356.903 268.808 355.335 265.168C354.002 262.059 346.667 261.131 346.667 261.131L346.928 262.338C346.928 262.338 340.144 260.662 334.44 264.266C328.745 267.871 328.655 276.917 328.655 276.917L330.412 276.665C330.412 276.665 329.998 281.945 332.088 284.378C334.179 286.811 334.683 286.892 334.683 286.892C334.683 286.892 333.593 282.621 335.017 281.783C336.44 280.945 337.945 282.035 337.945 282.035L338.972 281.116C341 279.305 342.297 276.818 342.63 274.124L342.829 272.601Z" fill="black"/>
<path d="M354.226 271.493C354.226 271.493 354.613 286.099 353.379 288.252C352.144 290.406 349.378 292.712 346.387 292.712C343.395 292.712 340.62 290.865 340.62 290.865" stroke="black" stroke-width="2" stroke-miterlimit="10" stroke-linecap="round" stroke-linejoin="round"/>
<path d="M344.018 276.773C344.018 276.773 346.036 277.26 346.459 277.818" stroke="black" stroke-width="2" stroke-miterlimit="10" stroke-linecap="round" stroke-linejoin="round"/>
<path d="M352.731 276.638C352.731 276.638 350.713 277.124 350.289 277.683" stroke="black" stroke-width="2" stroke-miterlimit="10" stroke-linecap="round" stroke-linejoin="round"/>
<path d="M348.144 281.567C348.144 281.567 347.928 283.756 348.901 284.089" stroke="black" stroke-width="2" stroke-miterlimit="10" stroke-linecap="round" stroke-linejoin="round"/>
<path d="M345.062 281.269C345.52 281.269 345.891 280.898 345.891 280.44C345.891 279.982 345.52 279.611 345.062 279.611C344.605 279.611 344.233 279.982 344.233 280.44C344.233 280.898 344.605 281.269 345.062 281.269Z" fill="black"/>
<path d="M350.83 281.269C351.288 281.269 351.659 280.898 351.659 280.44C351.659 279.982 351.288 279.611 350.83 279.611C350.372 279.611 350.001 279.982 350.001 280.44C350.001 280.898 350.372 281.269 350.83 281.269Z" fill="black"/>
<path d="M345.883 289.099C346.769 289.099 347.487 288.381 347.487 287.495C347.487 286.61 346.769 285.892 345.883 285.892C344.997 285.892 344.279 286.61 344.279 287.495C344.279 288.381 344.997 289.099 345.883 289.099Z" stroke="black" stroke-width="2" stroke-miterlimit="10" stroke-linecap="round" stroke-linejoin="round"/>
<path d="M332.943 283.657C332.943 283.657 334.16 286.603 335.529 287.315C336.89 288.036 336.89 288.036 336.89 288.036L336.602 290.982C336.602 290.982 311.679 292.83 303.299 296.92C294.91 301.011 278.043 321.158 278.043 321.158L284.386 329.853C284.386 329.853 296.451 317.068 302.281 313.599C308.111 310.121 315.067 308.382 315.067 308.382L308.417 329.547L290.622 335.782C290.622 335.782 288.783 337.521 291.441 341.306C294.1 345.09 296.857 345.396 296.857 345.396C296.857 345.396 311.787 333.539 317.923 325.249C324.059 316.959 333.259 299.993 335.205 294.776" stroke="black" stroke-width="2" stroke-miterlimit="10" stroke-linecap="round" stroke-linejoin="round"/>
<path d="M308.408 329.538L317.923 325.24" stroke="black" stroke-width="2" stroke-miterlimit="10" stroke-linecap="round" stroke-linejoin="round"/>
<path d="M279.368 323.402C279.368 323.402 275.376 325.754 274.052 326.366C272.727 326.979 271.088 328.619 271.088 328.619C271.088 328.619 269.141 327.493 268.835 328.826C268.529 330.16 268.835 331.583 270.88 334.241C272.926 336.9 274.971 337.719 277.224 337.305C279.476 336.9 280.494 333.521 281.413 331.782C282.333 330.043 282.945 327.997 282.945 327.997" stroke="black" stroke-width="2" stroke-miterlimit="10" stroke-linecap="round" stroke-linejoin="round"/>
<path d="M336.601 290.973C336.601 290.973 339.602 295.893 342.053 295.794C344.495 295.704 347.225 293.631 347.225 293.631C347.225 293.631 345.72 302.182 345.72 301.903C345.72 301.624 342.053 296.452 342.053 296.452L337.917 301.245L334.061 291.28" stroke="black" stroke-width="2" stroke-miterlimit="10" stroke-linecap="round" stroke-linejoin="round"/>
<path d="M331.431 291.947L327.205 298.245L328.421 300.407L325.979 301.912L321.654 319.87" stroke="black" stroke-width="2" stroke-miterlimit="10" stroke-linecap="round" stroke-linejoin="round"/>
<path d="M346.757 297.587C346.757 297.587 349.667 314.13 353.524 322.032C357.38 329.925 363.3 346.478 363.3 347.982C363.3 349.487 357.092 324.006 356.722 319.401C356.344 314.797 358.038 309.526 358.795 304.732C359.543 299.939 357.948 293.64 357.948 293.64L351.74 290.541" stroke="black" stroke-width="2" stroke-miterlimit="10" stroke-linecap="round" stroke-linejoin="round"/>
<path d="M363.3 347.973C363.3 347.973 362.363 350.226 359.912 348.721C357.462 347.216 351.073 343.738 347.217 342.513C343.36 341.288 341.135 341.098 341.135 341.098" stroke="black" stroke-width="2" stroke-miterlimit="10" stroke-linecap="round" stroke-linejoin="round"/>
<path d="M357.938 293.64C357.938 293.64 370.445 299.191 374.86 300.506C379.275 301.822 389.61 302.453 393.665 302.29C398.368 302.101 400.053 302.48 400.053 302.48L396.665 313.671C396.665 313.671 377.113 314.896 371.941 313.581C366.769 312.265 358.407 309.165 358.407 309.165" stroke="black" stroke-width="2" stroke-miterlimit="10" stroke-linecap="round" stroke-linejoin="round"/>
<path d="M400.062 302.471C400.062 302.471 405.325 301.534 407.019 300.876C408.712 300.218 414.254 297.776 415.2 298.713" stroke="black" stroke-width="2" stroke-miterlimit="10" stroke-linecap="round" stroke-linejoin="round"/>
<path d="M412.28 301.254C412.28 301.254 414.254 305.201 412.749 306.237C411.244 307.273 411.055 306.426 410.496 305.958C409.929 305.489 409.559 304.363 409.559 304.363L407.307 305.778" stroke="black" stroke-width="2" stroke-miterlimit="10" stroke-linecap="round" stroke-linejoin="round"/>
<path d="M398.369 309.436C398.369 309.436 404.478 308.778 405.604 309.247C406.731 309.715 408.425 309.814 408.425 309.814" stroke="black" stroke-width="2" stroke-miterlimit="10" stroke-linecap="round" stroke-linejoin="round"/>
<path d="M413.317 301.813C413.317 301.813 416.515 298.425 417.173 299.741C417.831 301.056 416.984 304.913 414.821 307.453C412.659 309.994 411.866 310.274 411.064 310.274C409.469 310.274 407.964 307.733 409.28 306.138" stroke="black" stroke-width="2" stroke-miterlimit="10" stroke-linecap="round" stroke-linejoin="round"/>
<path d="M415.335 315.329C415.335 315.329 410.46 314.274 408.812 309.337" stroke="black" stroke-width="2" stroke-miterlimit="10" stroke-linecap="round" stroke-linejoin="round"/>
<path d="M422.427 299.2C422.427 299.2 419.76 296.776 415.939 298.821" stroke="black" stroke-width="2" stroke-miterlimit="10" stroke-linecap="round" stroke-linejoin="round"/>
<path d="M436.312 333.557C437.177 334.088 429.32 331.845 422.057 328.808C416.543 326.502 410.542 323.087 410.542 323.087C410.542 323.087 424.589 288.279 426.463 287.189C428.338 286.099 453.774 292.181 453.774 292.181L452.684 301.705L436.312 333.557Z" stroke="black" stroke-width="2" stroke-miterlimit="10" stroke-linecap="round" stroke-linejoin="round"/>
<path d="M426.472 287.189C426.472 287.189 432.229 290.451 439.573 294.857C446.655 299.11 452.692 301.705 452.692 301.705" stroke="black" stroke-width="2" stroke-miterlimit="10" stroke-linecap="round" stroke-linejoin="round"/>
<path d="M349.875 313.806C349.875 313.806 347.415 324.384 344.343 332.62C341.27 340.855 338.567 344.549 337.945 346.144C337.333 347.739 335.242 355.371 335.242 355.371" stroke="black" stroke-width="2" stroke-miterlimit="10" stroke-linecap="round" stroke-linejoin="round"/>
<path d="M311.139 333.232C311.139 333.232 310.896 336.918 311.139 337.539C311.382 338.161 309.049 342.333 307.94 343.937C306.832 345.532 304.742 355.128 308.436 360.417C312.121 365.706 324.916 371.734 331.061 374.437C337.206 377.14 340.9 377.14 341.27 377.636C341.639 378.131 344.712 393.134 347.667 400.261C350.623 407.397 354.677 416.741 354.677 416.741L365.625 409.487C365.625 409.487 355.047 367.553 354.065 366.201C353.083 364.85 327.376 351.568 325.655 350.703" stroke="black" stroke-width="2" stroke-miterlimit="10" stroke-linecap="round" stroke-linejoin="round"/>
<path d="M311.697 337.629C311.697 337.629 320.87 342.621 329.484 342.378C338.098 342.135 341.143 341.107 341.143 341.107" stroke="black" stroke-width="2" stroke-miterlimit="10" stroke-linecap="round" stroke-linejoin="round"/>
<path d="M309.932 340.927C309.932 340.927 317.582 345.838 326.592 346.324C335.602 346.811 337.954 346.153 337.954 346.153" stroke="black" stroke-width="2" stroke-miterlimit="10" stroke-linecap="round" stroke-linejoin="round"/>
<path d="M329.79 374.113C329.79 374.113 325.654 387.628 324.276 389.151C322.897 390.665 294.622 410.668 294.622 410.668C294.622 410.668 289.522 407.217 288.279 404.874C287.036 402.531 285.387 400.045 285.387 400.045C285.387 400.045 309.796 382.943 310.355 382.393C310.904 381.844 315.599 366.805 315.599 366.805" stroke="black" stroke-width="2" stroke-miterlimit="10" stroke-linecap="round" stroke-linejoin="round"/>
<path d="M355.236 416.326L357.381 422.354" stroke="black" stroke-width="2" stroke-miterlimit="10" stroke-linecap="round" stroke-linejoin="round"/>
<path d="M361.912 412.109L363.921 416.651" stroke="black" stroke-width="2" stroke-miterlimit="10" stroke-linecap="round" stroke-linejoin="round"/>
<path d="M355.758 422.814C355.758 422.814 358.902 422.886 361.011 421.715C364.516 419.768 365.228 415.624 365.228 415.624C365.228 415.624 377.545 410.83 378.969 411.218C380.392 411.605 383.05 414.074 383.05 414.074L368.463 426.778L369.174 427.553L362.038 432.671C362.038 432.671 359.704 430.725 357.821 427.878C355.938 425.031 355.758 422.814 355.758 422.814Z" stroke="black" stroke-width="2" stroke-miterlimit="10" stroke-linecap="round" stroke-linejoin="round"/>
<path d="M286.207 401.567L280.611 404.667" stroke="black" stroke-width="2" stroke-miterlimit="10" stroke-linecap="round" stroke-linejoin="round"/>
<path d="M291.072 408.091L286.675 411.01" stroke="black" stroke-width="2" stroke-miterlimit="10" stroke-linecap="round" stroke-linejoin="round"/>
<path d="M280.171 403.081C280.171 403.081 280.351 406.217 281.684 408.226C283.901 411.56 288.091 411.947 288.091 411.947C288.091 411.947 293.849 423.85 293.569 425.301C293.29 426.751 291.046 429.599 291.046 429.599L277.224 416.065L276.503 416.84L270.836 410.136C270.836 410.136 272.593 407.658 275.287 405.559C277.99 403.45 280.171 403.081 280.171 403.081Z" stroke="black" stroke-width="2" stroke-miterlimit="10" stroke-linecap="round" stroke-linejoin="round"/>
<path d="M339.801 299.56L340.459 303.507L343.279 303.417L344.405 300.218L342.053 296.461L339.801 299.56Z" fill="#2563EB" stroke="black" stroke-width="2" stroke-linecap="round" stroke-linejoin="round"/>
<path d="M343.937 303.606C343.937 303.606 342.522 316.302 337.17 321.942C334.097 325.177 328.43 327.673 323.816 326.925C319.203 326.177 311.22 322.411 311.22 322.411C311.22 322.411 308.778 313.86 309.147 314.04C309.517 314.22 318.176 311.787 318.176 311.787C318.176 311.787 327.015 317.897 331.43 318.365C335.845 318.834 340.459 303.507 340.459 303.507L343.937 303.606Z" fill="#2563EB" stroke="black" stroke-width="2" stroke-linecap="round" stroke-linejoin="round"/>
<path d="M296.786 45.2592C296.786 45.2592 303.787 52.6297 312.761 54.9634C321.735 57.2971 341.883 66.758 341.883 66.758C341.883 66.758 345.694 61.7212 344.09 56.8015C342.495 51.8818 337.819 45.8629 335.242 40.5828C332.665 35.3027 331.674 33.5817 331.674 33.5817C331.674 33.5817 335.729 27.0671 333.638 25.5985C331.548 24.1207 328.601 24.9857 327.736 23.508C326.88 22.0303 326.754 18.8406 323.808 17.1196C320.861 15.3986 317.663 16.1375 315.942 15.0292C314.221 13.9209 310.905 10.8484 307.832 10.7313C304.76 10.6141 298.002 12.209 294.686 14.5427C291.37 16.8764 286.451 19.2101 286.451 19.2101C286.451 19.2101 274.007 26.2832 270.106 28.7972C254.437 38.8798 230.108 72.0832 225.216 80.1475C222.368 84.842 216.8 96.943 210.538 106.917C204.276 116.892 181.218 159.511 163.954 165.35C146.69 171.18 122.803 169.071 100.53 155.439C78.2558 141.806 64.2266 130.011 54.1349 123.983C44.0432 117.955 32.7712 113.495 20.5891 114.414C8.40699 115.333 1.45996 124.109 1.45996 124.109C1.45996 124.109 22.0308 120.442 37.5016 137.346C52.9725 154.249 67.5154 177.181 70.66 184.524C73.8046 191.859 105.611 231.802 138.671 242.146C184.516 256.491 213.709 255.508 236.542 248.48C259.374 241.452 269.223 221.071 273.521 207.798C277.81 194.526 289.325 134.814 289.911 127.2C290.496 119.586 301.624 73.9213 301.624 73.9213C301.624 73.9213 321.069 82.283 325.88 81.0666C330.692 79.8412 332.809 74.9575 332.809 74.9575C332.809 74.9575 331.016 71.2092 323.195 68.434C315.374 65.6588 311.382 62.8115 304.859 57.9999C298.335 53.1884 295.731 51.152 295.164 48.8724C294.596 46.6017 296.786 45.2592 296.786 45.2592Z" fill="#2563EB" stroke="black" stroke-width="2" stroke-linecap="round" stroke-linejoin="round"/>
<path d="M221.882 89.6085C221.882 89.6085 213.511 81.7334 205.303 81.5622C197.094 81.4 190.535 87.6352 190.535 87.6352C190.535 87.6352 182.488 88.293 181.84 90.4284C181.182 92.5639 181.515 99.2947 186.759 100.601C192.012 101.917 194.472 93.0505 194.472 93.0505C194.472 93.0505 202.645 87.5181 207.24 90.4735C211.835 93.4289 218.593 101.583 218.593 101.583" fill="#2563EB"/>
<path d="M221.882 89.6085C221.882 89.6085 213.511 81.7334 205.303 81.5622C197.094 81.4 190.535 87.6352 190.535 87.6352C190.535 87.6352 182.488 88.293 181.84 90.4284C181.182 92.5639 181.515 99.2947 186.759 100.601C192.012 101.917 194.472 93.0505 194.472 93.0505C194.472 93.0505 202.645 87.5181 207.24 90.4735C211.835 93.4289 218.593 101.583 218.593 101.583" stroke="black" stroke-width="2" stroke-linecap="round" stroke-linejoin="round"/>
<path d="M182.011 311.427V336.917H179.434V341.396H254.418V337.602C254.418 337.602 253.743 322.005 252.247 317.401C250.751 312.797 248.453 311.301 248.453 311.301L182.011 311.427Z" fill="white" stroke="black" stroke-width="2" stroke-miterlimit="10" stroke-linecap="round" stroke-linejoin="round"/>
<path d="M195.337 343.567C196.984 343.567 198.319 342.232 198.319 340.585C198.319 338.938 196.984 337.602 195.337 337.602C193.69 337.602 192.354 338.938 192.354 340.585C192.354 342.232 193.69 343.567 195.337 343.567Z" fill="white" stroke="black" stroke-width="2" stroke-miterlimit="10" stroke-linecap="round" stroke-linejoin="round"/>
<path d="M202.248 343.567C203.895 343.567 205.231 342.232 205.231 340.585C205.231 338.938 203.895 337.602 202.248 337.602C200.601 337.602 199.266 338.938 199.266 340.585C199.266 342.232 200.601 343.567 202.248 343.567Z" fill="white" stroke="black" stroke-width="2" stroke-miterlimit="10" stroke-linecap="round" stroke-linejoin="round"/>
<path d="M221.251 343.567C222.898 343.567 224.233 342.232 224.233 340.585C224.233 338.938 222.898 337.602 221.251 337.602C219.604 337.602 218.269 338.938 218.269 340.585C218.269 342.232 219.604 343.567 221.251 343.567Z" fill="white" stroke="black" stroke-width="2" stroke-miterlimit="10" stroke-linecap="round" stroke-linejoin="round"/>
<path d="M248.985 344.279C250.633 344.279 251.968 342.944 251.968 341.297C251.968 339.649 250.633 338.314 248.985 338.314C247.338 338.314 246.003 339.649 246.003 341.297C246.003 342.944 247.338 344.279 248.985 344.279Z" fill="white" stroke="black" stroke-width="2" stroke-miterlimit="10" stroke-linecap="round" stroke-linejoin="round"/>
<path d="M241.714 344.279C243.361 344.279 244.696 342.944 244.696 341.297C244.696 339.649 243.361 338.314 241.714 338.314C240.067 338.314 238.731 339.649 238.731 341.297C238.731 342.944 240.067 344.279 241.714 344.279Z" fill="white" stroke="black" stroke-width="2" stroke-miterlimit="10" stroke-linecap="round" stroke-linejoin="round"/>
<path d="M233.929 312.752H226.216V338.99H233.929V312.752Z" fill="white" stroke="black" stroke-width="2" stroke-miterlimit="10" stroke-linecap="round" stroke-linejoin="round"/>
<path d="M236.632 313.229H248.634C248.634 313.229 250.625 314.896 251.499 318.158C252.373 321.42 252.292 322.69 252.292 322.69H236.235L236.632 313.229Z" fill="white" stroke="black" stroke-width="2" stroke-miterlimit="10" stroke-linecap="round" stroke-linejoin="round"/>
<path d="M223.675 313.626H212.862V324.519H223.675V313.626Z" fill="white" stroke="black" stroke-width="2" stroke-miterlimit="10" stroke-linecap="round" stroke-linejoin="round"/>
<path d="M207.312 313.626H200.788V324.519H207.312V313.626Z" fill="white" stroke="black" stroke-width="2" stroke-miterlimit="10" stroke-linecap="round" stroke-linejoin="round"/>
<path d="M196.959 313.626H186.146V324.519H196.959V313.626Z" fill="white" stroke="black" stroke-width="2" stroke-miterlimit="10" stroke-linecap="round" stroke-linejoin="round"/>
<path d="M211.943 342.27C211.943 342.27 208.032 324.312 211.51 309.607C214.988 294.902 218.196 292.893 218.196 292.893C218.196 292.893 211.736 305.192 212.096 319.365C212.457 333.539 216.764 342.08 216.764 342.08" stroke="black" stroke-width="2" stroke-miterlimit="10" stroke-linecap="round" stroke-linejoin="round"/>
<path d="M218.196 292.893C218.196 292.893 214.988 283.801 218.556 281.927C222.124 280.053 219.628 291.379 219.628 291.379C219.628 291.379 223.106 283.711 226.936 285.765C230.765 287.82 220.34 293.073 220.34 293.073C220.34 293.073 220.782 294.587 224.53 293.875C228.269 293.163 230.234 292.181 230.234 292.181" stroke="black" stroke-width="2" stroke-miterlimit="10" stroke-linecap="round" stroke-linejoin="round"/>
<path d="M84.2472 215.151L59.7569 222.233L59.045 219.755L54.7471 220.998L75.5702 293.028L79.2194 291.974C79.2194 291.974 94.0145 286.991 98.0241 284.279C102.043 281.567 102.827 278.935 102.827 278.935L84.2472 215.151Z" fill="white" stroke="black" stroke-width="2" stroke-miterlimit="10" stroke-linecap="round" stroke-linejoin="round"/>
<path d="M59.9463 239.028C61.5935 239.028 62.9288 237.693 62.9288 236.046C62.9288 234.399 61.5935 233.063 59.9463 233.063C58.2992 233.063 56.9639 234.399 56.9639 236.046C56.9639 237.693 58.2992 239.028 59.9463 239.028Z" fill="white" stroke="black" stroke-width="2" stroke-miterlimit="10" stroke-linecap="round" stroke-linejoin="round"/>
<path d="M61.8653 245.669C63.5124 245.669 64.8477 244.334 64.8477 242.687C64.8477 241.039 63.5124 239.704 61.8653 239.704C60.2181 239.704 58.8828 241.039 58.8828 242.687C58.8828 244.334 60.2181 245.669 61.8653 245.669Z" fill="white" stroke="black" stroke-width="2" stroke-miterlimit="10" stroke-linecap="round" stroke-linejoin="round"/>
<path d="M67.1455 263.924C68.7927 263.924 70.128 262.589 70.128 260.942C70.128 259.294 68.7927 257.959 67.1455 257.959C65.4984 257.959 64.1631 259.294 64.1631 260.942C64.1631 262.589 65.4984 263.924 67.1455 263.924Z" fill="white" stroke="black" stroke-width="2" stroke-miterlimit="10" stroke-linecap="round" stroke-linejoin="round"/>
<path d="M74.1563 290.766C75.8034 290.766 77.1387 289.431 77.1387 287.784C77.1387 286.137 75.8034 284.801 74.1563 284.801C72.5091 284.801 71.1738 286.137 71.1738 287.784C71.1738 289.431 72.5091 290.766 74.1563 290.766Z" fill="white" stroke="black" stroke-width="2" stroke-miterlimit="10" stroke-linecap="round" stroke-linejoin="round"/>
<path d="M72.1377 283.783C73.7849 283.783 75.1202 282.448 75.1202 280.801C75.1202 279.153 73.7849 277.818 72.1377 277.818C70.4906 277.818 69.1553 279.153 69.1553 280.801C69.1553 282.448 70.4906 283.783 72.1377 283.783Z" fill="white" stroke="black" stroke-width="2" stroke-miterlimit="10" stroke-linecap="round" stroke-linejoin="round"/>
<path d="M97.3848 265.42L95.2422 258.01L70.035 265.299L72.1777 272.709L97.3848 265.42Z" fill="white" stroke="black" stroke-width="2" stroke-miterlimit="10" stroke-linecap="round" stroke-linejoin="round"/>
<path d="M97.6909 268.123L101.025 279.656C101.025 279.656 99.9705 282.026 97.0872 283.774C94.2038 285.522 92.9514 285.792 92.9514 285.792L88.4912 270.367L97.6909 268.123Z" fill="white" stroke="black" stroke-width="2" stroke-miterlimit="10" stroke-linecap="round" stroke-linejoin="round"/>
<path d="M90.7282 245.404L80.2627 248.431L83.2664 258.818L93.7319 255.792L90.7282 245.404Z" fill="white" stroke="black" stroke-width="2" stroke-miterlimit="10" stroke-linecap="round" stroke-linejoin="round"/>
<path d="M87.3756 233.804L76.9102 236.83L78.7224 243.097L89.1879 240.071L87.3756 233.804Z" fill="white" stroke="black" stroke-width="2" stroke-miterlimit="10" stroke-linecap="round" stroke-linejoin="round"/>
<path d="M83.3102 219.741L72.8447 222.767L75.8484 233.155L86.3139 230.128L83.3102 219.741Z" fill="white" stroke="black" stroke-width="2" stroke-miterlimit="10" stroke-linecap="round" stroke-linejoin="round"/>
<path d="M62.9385 252.472C62.9385 252.472 79.1032 243.723 94.1956 242.975C109.288 242.227 112.108 244.759 112.108 244.759C112.108 244.759 98.5026 241.966 84.987 246.246C71.4713 250.526 64.4612 257.04 64.4612 257.04" stroke="black" stroke-width="2" stroke-miterlimit="10" stroke-linecap="round" stroke-linejoin="round"/>
<path d="M112.107 244.759C112.107 244.759 119.946 239.154 122.739 242.056C125.524 244.957 113.963 245.705 113.963 245.705C113.963 245.705 122.289 246.912 121.388 251.165C120.487 255.418 112.531 246.858 112.531 246.858C112.531 246.858 111.197 247.705 112.927 251.102C114.657 254.499 116.135 256.112 116.135 256.112" stroke="black" stroke-width="2" stroke-miterlimit="10" stroke-linecap="round" stroke-linejoin="round"/>
<path d="M41.2862 231.964L43.737 232.433L42.6828 233.829L43.1513 237.56L40.9348 240.245L45.0976 241.245L47.7016 239.082L49.5667 240.479L47.9449 240.695L45.2507 242.813L40.2319 242.461L38.4839 245.498C38.4839 245.498 37.3216 250.751 36.1502 250.751C34.9879 250.751 36.853 246.435 36.853 246.435C36.853 246.435 35.3393 247.138 34.7536 246.786C34.1679 246.435 34.7896 245.101 34.7896 245.101C34.7896 245.101 30.5728 246.381 30.2033 245.741C29.6537 244.786 35.6907 243.29 35.6907 243.29L41.3763 237.064L41.2862 231.964Z" fill="black"/>
<path d="M8.641 242.623L10.8846 244.119L8.46078 247.48L10.7584 251.21L13.1192 250.958L14.2995 250.084C14.2995 250.084 18.0929 249.769 18.2191 250.147C18.3452 250.526 18.2821 251.264 17.3451 251.201C16.408 251.138 14.669 251.201 14.669 251.201L13.6778 252.319L14.0472 252.877C14.0472 252.877 15.606 253.31 15.6691 253.995C15.7322 254.679 14.8582 255.049 14.4257 254.986C13.9932 254.923 13.4886 254.553 13.4886 254.553C13.4886 254.553 13.9211 255.734 15.1105 256.482C16.2908 257.229 16.2278 257.788 16.0476 258.103C15.8673 258.419 15.1105 258.536 13.1822 257.112C11.254 255.68 5.59547 251.201 5.59547 251.201L3.17167 250.643L1.80208 246.66L0 245.543L3.23474 245.173L4.54125 248.724L7.40657 249.471L6.2262 247.111L8.58693 244.371L8.641 242.623Z" fill="black"/>
<path d="M337.9 129.804C337.9 129.804 336.648 142.094 341.892 148.419C352.037 160.665 353.146 171.919 353.146 171.919L348.019 167.999C348.019 167.999 350.425 170.648 352.091 179.956C353.758 189.264 353.02 195.22 352.686 200.545C352.353 205.87 358.822 211.916 356.525 224.215C356.516 224.26 356.507 224.314 356.498 224.368C356.209 225.954 353.984 226.089 353.542 224.54C351.695 218.079 348.559 210.609 343.559 207.6C336.368 203.275 332.917 192.643 332.593 189.318C332.26 185.993 329.944 188.813 329.935 194.301C329.926 196.959 333.26 202.608 333.26 202.608C333.26 202.608 325.745 197.986 323.537 191.156C321.465 184.75 320.627 172.685 324.952 162.719C329.277 152.745 328.277 150.42 328.277 150.42L322.627 153.078C322.627 153.078 326.646 142.247 326.979 135.273C327.313 128.29 331.322 113.459 333.034 106.629C335.99 94.8165 330.935 83.6075 330.935 83.6075C330.935 83.6075 338.639 90.6807 339.234 106.927C339.459 113.441 337.9 129.804 337.9 129.804Z" fill="#FF0000"/>
<path d="M284.278 433.437L37.2666 390.43" stroke="black" stroke-width="2" stroke-miterlimit="10" stroke-linecap="round" stroke-linejoin="round"/>
<path d="M263.798 398.918L129.669 353.244" stroke="black" stroke-width="2" stroke-miterlimit="10" stroke-linecap="round" stroke-linejoin="round"/>
</svg>
