<svg width="202" height="130" viewBox="0 0 202 130" fill="none" xmlns="http://www.w3.org/2000/svg">
<path d="M103.796 104.346L69.218 114.08L77.1118 118.125L107.229 122.513L138.152 110.861L138.081 109.558C138.081 109.554 103.868 104.756 103.796 104.346Z" fill="white" stroke="black" stroke-width="2" stroke-miterlimit="10" stroke-linecap="round" stroke-linejoin="round"/>
<path d="M105.691 117.812L130.469 109.785L105.028 106.053L80.4924 113.741L105.691 117.812Z" stroke="black" stroke-width="2" stroke-miterlimit="10" stroke-linecap="round" stroke-linejoin="round"/>
<path d="M65.7577 45.9608C65.571 43.9083 66.147 41.8708 67.4342 40.202C69.21 37.8999 71.2837 34.417 70.9818 31.0012C70.7474 28.349 68.2684 24.5383 68.8564 22.3555C69.4443 20.1726 71.7167 15.5573 68.0976 12.3203C65.0784 9.61968 62.9093 9.85808 59.7232 8.33455C57.0098 7.03825 52.3658 4.16627 46.7643 6.37147C41.8024 8.3271 41.5561 11.9404 38.7235 13.6315C35.895 15.3189 32.6851 16.5668 31.5568 22.7056C30.4047 28.9785 33.849 31.5488 30.1783 34.8007C26.5075 38.0526 17.3465 34.5213 15.4078 45.0147C13.926 53.0346 19.8572 54.5656 21.8952 56.2455C23.9332 57.9255 52.5564 62.3136 57.4826 59.5198C65.1777 55.1541 66.0715 49.4288 65.7577 45.9608Z" fill="black"/>
<path d="M43.5504 32.8375L36.4473 43.8375L46.5419 63.5576L56.9344 42.1314L43.5504 32.8375Z" fill="white" stroke="black" stroke-width="2" stroke-miterlimit="10" stroke-linecap="round" stroke-linejoin="round"/>
<path d="M67.7678 23.1824C67.7678 23.1824 66.6276 35.9033 61.7015 41.5169C57.3514 46.4711 53.6846 45.9534 49.7953 42.0049C46.6053 38.7678 43.3159 33.5715 43.3159 33.5715C43.3159 33.5715 39.51 31.8766 40.7257 29.0381C41.9373 26.1997 45.0797 28.2931 45.0797 28.2931C45.0797 28.2931 48.393 28.688 48.4327 23.5847C48.4645 19.8262 51.9406 14.79 60.1839 16.2129C68.4233 17.6396 67.7678 23.1824 67.7678 23.1824Z" fill="white" stroke="black" stroke-width="2" stroke-miterlimit="10" stroke-linecap="round" stroke-linejoin="round"/>
<path d="M61.9004 36.976C61.9004 36.976 60.2835 37.0319 58.5633 36.2869C56.8432 35.5419 55.5798 34.6591 55.5798 34.6591C55.5798 34.6591 54.8489 37.6838 57.0458 38.8571C59.7591 40.3062 61.9004 36.976 61.9004 36.976Z" stroke="black" stroke-width="2" stroke-miterlimit="10" stroke-linecap="round" stroke-linejoin="round"/>
<path d="M61.1942 27.8199C61.2141 27.9466 60.5824 31.0682 61.52 33.657C61.7345 34.253 61.4524 35.0316 60.4871 35.0874C59.1165 35.1657 58.604 34.4318 58.604 34.4318" stroke="black" stroke-width="2" stroke-miterlimit="10" stroke-linecap="round" stroke-linejoin="round"/>
<path d="M53.8714 54.1856L48.6831 66.8432C48.6831 66.8432 40.6106 59.6614 36.5982 53.4667C32.5858 47.2757 27.1909 44.1393 27.1909 44.1393C27.1909 44.1393 15.388 49.7678 10.2076 58.5104C5.02722 67.2529 5.12256 76.5207 3.12033 85.4384C1.72194 91.674 1.26508 101.955 1.07836 105.591C0.788358 111.241 1.37234 117.354 1.70605 119.939C2.004 122.256 3.72815 125.043 5.21394 126.127C6.70369 127.211 16.254 128.868 17.4935 128.712C18.733 128.555 25.0814 124.327 25.3475 122.368C26.0189 117.425 17.9146 113.659 21.1404 112.497C24.3663 111.335 27.2584 111.197 27.2584 111.197C27.2584 111.197 42.3943 113.748 48.8579 112.169C55.3215 110.59 49.7518 108.846 49.7518 108.846L60.0013 88.5786C60.0013 88.5786 71.0335 96.9934 71.8757 98.3083C72.7179 99.6232 74.1202 102.167 75.0538 102.342C75.9874 102.518 76.925 103.832 78.514 104.358C80.1031 104.883 81.3187 103.218 81.3187 103.218C81.3187 103.218 80.3852 96.3787 83.9368 93.5738C87.4883 90.7689 93.8685 91.6517 93.8685 91.6517C93.8685 91.6517 93.8685 90.1393 92.6965 89.4539C91.5246 88.7685 85.9509 87.5766 85.3193 87.4834C84.6836 87.3903 84.5843 86.8427 83.8533 86.0642C83.1224 85.2857 80.8738 84.1384 79.5549 83.453C78.2359 82.7638 78.0413 83.1326 77.5526 82.7638C77.064 82.3988 75.7451 79.6013 73.5958 77.5861C71.4466 75.5709 68.4631 71.7192 65.8729 67.5062C63.2827 63.2895 62.1108 62.2838 61.1335 61.319C60.1562 60.3579 56.6881 56.2791 55.6591 55.3627C54.6262 54.4426 53.8714 54.1856 53.8714 54.1856Z" fill="#2563EB" stroke="black" stroke-width="2" stroke-linecap="round" stroke-linejoin="round"/>
<path d="M28.3189 109.2C28.3189 109.2 24.8269 105.013 17.0087 104.838C12.3527 104.734 7.71655 106.693 7.71655 106.693" stroke="black" stroke-width="2" stroke-miterlimit="10" stroke-linecap="round" stroke-linejoin="round"/>
<path d="M82.2166 113.1C82.2166 113.1 89.2364 117.596 91.1671 117.488C93.0978 117.38 93.5666 116.609 93.5666 116.006C93.5666 115.402 85.3789 109.152 84.5605 108.768C83.7421 108.384 73.1549 105.643 72.0426 105.643C70.9302 105.643 53.9708 106.246 51.2217 106.522C48.4726 106.798 29.3481 109.264 28.2953 109.264C27.2425 109.264 23.5916 108.437 20.3181 110.02C18.2364 111.025 15.5946 115.324 14.2002 120.066C13.644 121.955 13.6718 122.752 14.6094 124.342C15.5469 125.933 16.3057 126.644 16.3057 126.644C16.3057 126.644 25.2681 125.136 29.3759 124.149C34.6278 122.89 49.5095 117.034 51.0866 117.198C52.6677 117.362 54.2886 119.016 58.2414 119.075C61.0064 119.116 66.6039 120.886 68.1851 120.61C69.7662 120.334 73.0993 119.515 73.0993 119.515C73.0993 119.515 74.736 120.394 76.7859 119.954C78.8319 119.515 79.3007 117.321 79.3007 117.321C79.3007 117.321 82.0498 120.941 83.4521 121.105C84.8545 121.269 85.9668 120.118 85.6729 118.967C85.3749 117.816 82.2166 113.1 82.2166 113.1Z" fill="white" stroke="black" stroke-width="2" stroke-miterlimit="10" stroke-linecap="round" stroke-linejoin="round"/>
<path d="M82.2165 113.1C82.2165 112.825 78.8834 109.316 77.9458 108.824C77.0083 108.329 69.6389 107.617 69.6389 107.617" stroke="black" stroke-width="2" stroke-miterlimit="10" stroke-linecap="round" stroke-linejoin="round"/>
<path d="M79.2926 117.324C79.2926 117.324 77.1275 114.803 74.2631 113.432C71.3988 112.061 67.4778 111.238 67.4778 111.238" stroke="black" stroke-width="2" stroke-miterlimit="10" stroke-linecap="round" stroke-linejoin="round"/>
<path d="M73.0913 119.518C73.0913 119.518 67.8871 116.557 66.306 115.954C64.7248 115.35 63.4417 114.691 63.4417 114.691" stroke="black" stroke-width="2" stroke-miterlimit="10" stroke-linecap="round" stroke-linejoin="round"/>
<path d="M60.0012 88.5749C60.0012 88.5749 60.7719 84.6748 61.0421 80.7598C61.3122 76.8449 61.0421 73.3732 61.0421 73.3732" stroke="black" stroke-width="2" stroke-miterlimit="10" stroke-linecap="round" stroke-linejoin="round"/>
<path d="M93.7058 91.4021C93.7058 91.4021 100.173 94.8515 101.75 95.4214C103.328 95.9913 103.935 95.8758 104.662 95.2314C105.389 94.587 109.354 93.4881 110.121 93.2981C110.888 93.1082 112.588 92.9182 113.192 93.4509C113.8 93.9798 114.566 95.4214 114.566 95.4214C114.566 95.4214 115.575 95.1942 116.183 96.483C116.791 97.7719 117.276 99.7796 117.315 100.465C117.355 101.147 116.588 102.931 116.588 102.931C116.588 102.931 116.426 104.827 115.738 105.926C115.051 107.025 113.637 107.859 113.029 107.934C112.421 108.008 106.236 107.706 105.914 107.289C105.592 106.872 105.469 105.885 105.469 105.885C105.469 105.885 104.055 105.62 103.689 105.278C103.324 104.935 102.517 104.596 102.517 104.596L80.9693 102.398C80.9693 102.398 78.5857 97.5074 82.0618 93.7153C85.5379 89.9233 93.7058 91.4021 93.7058 91.4021Z" fill="white" stroke="black" stroke-width="2" stroke-miterlimit="10" stroke-linecap="round" stroke-linejoin="round"/>
<path d="M108.702 106.947C108.702 106.947 110.562 106.909 112.461 105.81C114.36 104.712 116.584 102.931 116.584 102.931" stroke="black" stroke-width="2" stroke-miterlimit="10" stroke-linecap="round" stroke-linejoin="round"/>
<path d="M123.894 101.005C123.894 101.005 124.72 101.214 125.439 101.314C126.158 101.419 126.377 101.523 126.874 101.106C127.37 100.689 128.753 98.8782 128.971 98.3082C129.194 97.7383 128.697 95.5108 128.034 95.4102C127.37 95.3059 126.433 94.9446 126.433 94.9446C126.433 94.9446 125.273 93.909 124.553 93.8569C123.834 93.8047 123.008 93.8569 123.008 93.8569C123.008 93.8569 121.959 92.6649 120.911 92.6649C119.862 92.6649 119.087 92.974 119.087 92.974C119.087 92.974 118.15 92.0428 116.989 92.352C115.829 92.6611 114.173 94.2666 114.173 94.2666" stroke="black" stroke-width="2" stroke-miterlimit="10" stroke-linecap="round" stroke-linejoin="round"/>
<path d="M124.998 96.9673C124.998 96.9673 123.62 101.936 122.957 102.041C122.293 102.145 120.418 101.419 120.418 101.419" stroke="black" stroke-width="2" stroke-miterlimit="10" stroke-linecap="round" stroke-linejoin="round"/>
<path d="M121.741 95.3618C121.741 95.3618 120.915 96.3452 120.859 97.3286C120.803 98.312 120.251 101.78 119.588 101.936C118.924 102.093 117.379 101.78 117.379 101.78" stroke="black" stroke-width="2" stroke-miterlimit="10" stroke-linecap="round" stroke-linejoin="round"/>
<path d="M118.154 94.1698C118.154 94.1698 116.827 96.1366 116.882 97.6378" stroke="black" stroke-width="2" stroke-miterlimit="10" stroke-linecap="round" stroke-linejoin="round"/>
<path d="M128.498 95.7976C128.498 95.7976 132.324 94.546 134.132 94.7509C135.939 94.952 138.216 95.1122 139.078 95.1122C139.94 95.1122 141.7 96.0807 142.903 96.1217C144.107 96.1627 144.107 96.1627 144.107 96.1627C144.107 96.1627 145.267 97.4142 146.685 97.4515C148.104 97.4925 149.264 96.6059 149.264 96.6059C149.264 96.6059 151.198 96.6469 152.06 96.0397C152.918 95.4363 152.748 94.1437 152.748 94.1437C152.748 94.1437 154.38 93.6185 154.77 93.015C155.155 92.4116 154.984 91.16 154.984 91.16C154.984 91.16 155.628 88.7015 155.286 88.1353C154.941 87.5691 149.955 84.6263 148.537 84.5891C147.118 84.5481 141.612 85.8779 138.561 86.243C135.51 86.6043 130.048 87.1705 125.233 87.7739C120.418 88.3774 107.519 88.7424 104.166 88.7015C100.813 88.6605 98.7468 88.0161 98.7468 88.0161" stroke="black" stroke-width="2" stroke-miterlimit="10" stroke-linecap="round" stroke-linejoin="round"/>
<path d="M150.352 87.4909C150.273 87.3083 154.71 90.3256 154.909 90.9141" stroke="black" stroke-width="2" stroke-miterlimit="10" stroke-linecap="round" stroke-linejoin="round"/>
<path d="M148.803 90.2473C148.751 90.0536 152.728 93.5923 152.839 94.2032" stroke="black" stroke-width="2" stroke-miterlimit="10" stroke-linecap="round" stroke-linejoin="round"/>
<path d="M147.051 93.164C146.999 92.9703 149.466 95.8386 149.581 96.4495" stroke="black" stroke-width="2" stroke-miterlimit="10" stroke-linecap="round" stroke-linejoin="round"/>
<path d="M102.1 88.2655C102.1 88.2655 103.848 85.6469 105.242 81.717C106.641 77.7871 107.757 73.0079 107.757 73.0079" stroke="black" stroke-width="2" stroke-miterlimit="10" stroke-linecap="round" stroke-linejoin="round"/>
<path d="M80.3811 51.0454C80.3811 51.0454 81.2471 54.8784 84.469 59.3484C87.6908 63.8185 88.5569 64.9806 88.68 66.3738C88.8032 67.7669 88.4933 68.4635 88.8668 68.985C89.2402 69.5065 89.6732 72.9335 89.6732 74.4422C89.6732 75.9508 89.5501 77.925 89.5501 77.925" stroke="black" stroke-width="2" stroke-miterlimit="10" stroke-linecap="round" stroke-linejoin="round"/>
<path d="M80.7507 67.1859C80.7507 67.1859 84.7155 72.0619 85.4584 73.4551C86.2013 74.8483 87.9969 76.7629 91.3419 79.3779C94.6869 81.9891 94.8697 82.6857 95.6761 83.5573C96.4826 84.429 97.9684 85.3006 98.461 85.9972C98.9536 86.6938 99.5773 87.2153 99.5773 87.2153C99.5773 87.2153 97.8452 88.4929 97.1619 89.2491C96.4826 90.0053 94.7465 92.0354 94.7465 92.0354" stroke="black" stroke-width="2" stroke-miterlimit="10" stroke-linecap="round" stroke-linejoin="round"/>
<path d="M94.679 60.9725C94.679 60.9725 90.2256 73.1421 90.0032 75.8129" stroke="black" stroke-width="2" stroke-miterlimit="10" stroke-linecap="round" stroke-linejoin="round"/>
<path d="M80.9929 50.1254C80.9929 50.1254 78.216 52.8185 77.8784 53.8653C77.5407 54.912 76.9845 56.3796 76.9289 56.7968C76.8733 57.214 78.8278 59.2591 81.0088 61.7213C83.1859 64.1835 84.5286 67.063 84.8067 67.6403C85.0848 68.2177 85.5894 66.5936 86.4832 66.1727C87.3771 65.7555 88.6761 66.3738 88.6761 66.3738" stroke="black" stroke-width="2" stroke-miterlimit="10" stroke-linecap="round" stroke-linejoin="round"/>
<path d="M79.1657 51.5819C79.1657 51.5819 74.5296 52.0848 73.3536 53.5487C72.1777 55.0126 71.0058 55.6422 69.667 56.2195C68.3282 56.7969 63.5212 61.509 63.5212 63.3976" stroke="black" stroke-width="2" stroke-miterlimit="10" stroke-linecap="round" stroke-linejoin="round"/>
<path d="M99.0527 55.3851C99.0527 55.3851 103.466 56.9571 105.814 57.8474C108.162 58.7376 110.506 61.3042 112.349 64.2916C114.193 67.2791 115.869 69.9499 116.985 71.574C118.102 73.1981 118.551 74.0362 119.389 75.7125C120.227 77.3887 121.455 78.0182 122.575 78.5919C123.691 79.1693 124.252 80.3203 125.423 82.4696C126.595 84.619 129.277 87.2898 129.277 87.2898" stroke="black" stroke-width="2" stroke-miterlimit="10" stroke-linecap="round" stroke-linejoin="round"/>
<path d="M104.921 82.6744C104.921 82.6744 105.648 84.1942 107.547 85.606C109.446 87.0178 111.122 88.6978 111.122 88.6978" stroke="black" stroke-width="2" stroke-miterlimit="10" stroke-linecap="round" stroke-linejoin="round"/>
<path d="M97.0824 57.635C97.0824 57.635 98.6397 64.2059 97.881 65.1521C97.1222 66.0982 95.0405 66.5154 94.3453 68.5865C93.6501 70.6576 89.6853 77.683 89.6853 77.683" stroke="black" stroke-width="2" stroke-miterlimit="10" stroke-linecap="round" stroke-linejoin="round"/>
<path d="M78.8119 42.5934C78.8119 42.5934 80.4328 44.8731 81.7676 44.739C83.1024 44.6049 83.9605 42.1464 84.2942 40.675C84.6279 39.1999 84.2942 36.3876 89.9632 37.0096C95.6323 37.6317 98.4489 37.7695 100.36 36.5887C102.616 35.1918 102.12 32.4875 101.544 30.7554C101.003 29.1238 97.9682 25.4845 97.8252 25.5739C97.6822 25.6633 96.1567 27.8089 93.9161 28.2112C91.6755 28.6135 82.3834 28.7476 80.1467 31.3849C77.9061 34.0222 78.2875 36.6558 78.4305 38.3544C78.5735 40.0455 78.8119 42.5934 78.8119 42.5934Z" fill="black"/>
<path d="M87.3969 43.5022C87.3969 43.5022 91.8265 43.5395 95.8627 43.0962C99.899 42.6529 103.506 41.5913 103.506 41.5913C103.506 41.5913 103.387 45.6702 102.056 46.553C100.725 47.4358 98.9217 47.2868 97.8649 46.81C96.8082 46.3332 95.9859 43.7593 95.1993 43.7593C94.4127 43.7593 95.1198 45.4132 93.3559 46.9553C91.5921 48.4975 89.6415 48.6576 88.4179 47.7264C86.5348 46.296 87.3969 43.5022 87.3969 43.5022Z" stroke="black" stroke-width="2" stroke-miterlimit="10" stroke-linecap="round" stroke-linejoin="round"/>
<path d="M87.3969 43.5022L80.3811 42.1053" stroke="black" stroke-width="2" stroke-miterlimit="10" stroke-linecap="round" stroke-linejoin="round"/>
<path d="M90.9248 45.89C91.2715 45.89 91.5525 45.6265 91.5525 45.3014C91.5525 44.9764 91.2715 44.7129 90.9248 44.7129C90.5781 44.7129 90.2971 44.9764 90.2971 45.3014C90.2971 45.6265 90.5781 45.89 90.9248 45.89Z" stroke="black" stroke-width="2" stroke-miterlimit="10" stroke-linecap="round" stroke-linejoin="round"/>
<path d="M99.5454 44.9365C99.8921 44.9365 100.173 44.673 100.173 44.3479C100.173 44.0229 99.8921 43.7594 99.5454 43.7594C99.1987 43.7594 98.9177 44.0229 98.9177 44.3479C98.9177 44.673 99.1987 44.9365 99.5454 44.9365Z" stroke="black" stroke-width="2" stroke-miterlimit="10" stroke-linecap="round" stroke-linejoin="round"/>
<path d="M52.9072 25.6335C52.9072 25.6335 57.3367 25.6707 61.373 25.2274C65.4092 24.7842 69.0164 23.7225 69.0164 23.7225C69.0164 23.7225 68.8972 27.8014 67.5664 28.6842C66.2355 29.5671 64.4319 29.4181 63.3752 28.9413C62.3185 28.4645 61.4961 25.8905 60.7095 25.8905C59.9229 25.8905 60.6301 27.5444 58.8662 29.0865C57.1023 30.6287 55.1517 30.7889 53.9281 29.8576C52.0451 28.4272 52.9072 25.6335 52.9072 25.6335Z" stroke="black" stroke-width="2" stroke-miterlimit="10" stroke-linecap="round" stroke-linejoin="round"/>
<path d="M52.9071 25.6334L45.8914 24.2366" stroke="black" stroke-width="2" stroke-miterlimit="10" stroke-linecap="round" stroke-linejoin="round"/>
<path d="M56.4351 28.0212C56.7817 28.0212 57.0627 27.7577 57.0627 27.4327C57.0627 27.1076 56.7817 26.8441 56.4351 26.8441C56.0884 26.8441 55.8074 27.1076 55.8074 27.4327C55.8074 27.7577 56.0884 28.0212 56.4351 28.0212Z" stroke="black" stroke-width="2" stroke-miterlimit="10" stroke-linecap="round" stroke-linejoin="round"/>
<path d="M65.0557 27.0676C65.4023 27.0676 65.6833 26.8041 65.6833 26.479C65.6833 26.154 65.4023 25.8905 65.0557 25.8905C64.709 25.8905 64.428 26.154 64.428 26.479C64.428 26.8041 64.709 27.0676 65.0557 27.0676Z" stroke="black" stroke-width="2" stroke-miterlimit="10" stroke-linecap="round" stroke-linejoin="round"/>
<path d="M88.2988 42.4742L91.9418 42.1427" stroke="black" stroke-width="2" stroke-miterlimit="10" stroke-linecap="round" stroke-linejoin="round"/>
<path d="M96.6851 42.0309C96.6851 42.0309 97.861 40.9283 99.5454 41.4051" stroke="black" stroke-width="2" stroke-miterlimit="10" stroke-linecap="round" stroke-linejoin="round"/>
<path d="M95.8986 46.1471C95.8986 46.1471 96.0178 47.652 96.4468 48.5348C96.8799 49.4176 97.1897 50.0062 97.1897 50.0062C97.1897 50.0062 96.4826 50.483 95.2312 50.4122" stroke="black" stroke-width="2" stroke-miterlimit="10" stroke-linecap="round" stroke-linejoin="round"/>
<path d="M91.5881 52.9079C91.5881 52.9079 92.5694 53.0904 94.0552 52.9452C95.5449 52.7999 96.6414 52.1368 96.6414 52.1368C96.6414 52.1368 97.0347 54.0105 95.2708 54.4501C93.5109 54.8933 91.5881 52.9079 91.5881 52.9079Z" stroke="black" stroke-width="2" stroke-miterlimit="10" stroke-linecap="round" stroke-linejoin="round"/>
<path d="M100.483 34.9161C100.483 34.9161 101.377 46.5493 100.904 49.7528C100.431 52.9563 98.4331 57.8361 94.7544 58.5289C91.0757 59.2181 88.1319 57.4934 86.1853 55.1764" stroke="black" stroke-width="2" stroke-miterlimit="10" stroke-linecap="round" stroke-linejoin="round"/>
<path d="M79.6621 42.6568C79.6621 42.6568 78.0333 42.2135 77.8227 43.4949C77.6122 44.7763 78.506 48.2778 79.5588 48.6726C80.6116 49.0675 81.1359 48.6726 81.1359 48.6726L81.5571 54.1447" stroke="black" stroke-width="2" stroke-miterlimit="10" stroke-linecap="round" stroke-linejoin="round"/>
<path d="M95.2789 58.5812L94.385 65.383" stroke="black" stroke-width="2" stroke-miterlimit="10" stroke-linecap="round" stroke-linejoin="round"/>
<path d="M48.6831 66.8432C48.6831 66.8432 48.1189 63.2635 48.0077 61.2706C47.8965 59.2777 47.9402 59.4975 47.9402 59.4975L37.5556 42.6195L39.4545 40.0008L33.5431 38.8684L27.1829 44.1393C27.1829 44.1393 32.1368 51.4477 37.5079 56.7149C42.879 61.9821 48.6831 66.8432 48.6831 66.8432Z" fill="#2563EB" stroke="black" stroke-width="2" stroke-linecap="round" stroke-linejoin="round"/>
<path d="M52.9617 50.4979L53.8714 54.1857" stroke="black" stroke-width="2" stroke-miterlimit="10" stroke-linecap="round" stroke-linejoin="round"/>
<path d="M43.1293 33.9589L39.4585 40.0008" stroke="black" stroke-width="2" stroke-miterlimit="10" stroke-linecap="round" stroke-linejoin="round"/>
<path d="M48.6832 66.8431L48.0078 59.963L54.4793 47.3986L55.6513 55.3589L48.6832 66.8431Z" fill="#2563EB" stroke="black" stroke-width="2" stroke-linecap="round" stroke-linejoin="round"/>
<path d="M20.7195 104.738L24.0248 86.269" stroke="black" stroke-width="2" stroke-miterlimit="10" stroke-linecap="round" stroke-linejoin="round"/>
<path d="M43.7529 33.225L42.4578 35.907L47.1336 40.6675L49.1041 38.5629L43.7529 33.225Z" fill="white"/>
<path d="M106.235 111.044L105.894 108.601L110.085 87.733C110.085 87.733 110.582 87.2972 111.42 87.4425C112.258 87.5878 112.29 87.8485 112.29 87.8485L108.194 108.98L106.235 111.044Z" fill="#2563EB" stroke="black" stroke-width="2" stroke-linecap="round" stroke-linejoin="round"/>
<path d="M105.218 97.0828L105.592 98.3046C105.592 98.3046 108.059 99.8206 108.059 100.882C108.059 101.944 107.574 102.778 106.684 102.931C105.794 103.084 104.301 102.514 103.085 101.717C101.873 100.92 100.9 100.085 100.741 99.6679" fill="white"/>
<path d="M105.218 97.0828L105.592 98.3046C105.592 98.3046 108.059 99.8206 108.059 100.882C108.059 101.944 107.574 102.778 106.684 102.931C105.794 103.084 104.301 102.514 103.085 101.717C101.873 100.92 100.9 100.085 100.741 99.6679" stroke="black" stroke-width="2" stroke-miterlimit="10" stroke-linecap="round" stroke-linejoin="round"/>
<path d="M110.629 96.9301L111.169 98.2636C111.169 98.2636 108.341 101.031 107.936 102.473C107.53 103.914 107.936 104.708 108.42 105.013C108.905 105.315 109.592 105.542 109.874 105.278C110.156 105.013 115.09 100.275 115.496 99.7052C115.901 99.1353 116.386 97.1275 116.386 97.1275" fill="white"/>
<path d="M110.629 96.9301L111.169 98.2636C111.169 98.2636 108.341 101.031 107.936 102.473C107.53 103.914 107.936 104.708 108.42 105.013C108.905 105.315 109.592 105.542 109.874 105.278C110.156 105.013 115.09 100.275 115.496 99.7052C115.901 99.1353 116.386 97.1275 116.386 97.1275" stroke="black" stroke-width="2" stroke-miterlimit="10" stroke-linecap="round" stroke-linejoin="round"/>
<path d="M85.3152 87.4797C85.3152 87.4797 79.7415 87.7889 76.4521 91.6443" stroke="black" stroke-width="2" stroke-miterlimit="10" stroke-linecap="round" stroke-linejoin="round"/>
<path d="M174.522 53.3326C174.522 53.3326 201 118.058 201 120.226C201 122.394 171.562 127.095 167.963 126.011C164.364 124.927 146.626 117.939 146.626 115.525C146.626 114.441 168.11 115.283 183.131 115.283C187.628 115.283 190.973 115.283 191.1 114.922C191.227 114.561 175.416 73.701 175.416 73.701L174.522 53.3326Z" fill="white" stroke="black" stroke-width="2" stroke-miterlimit="10" stroke-linecap="round" stroke-linejoin="round"/>
<path d="M152.128 26.5498L152.947 97.5521L173.517 117.518L175.921 117.067L174.959 1.5662L172.794 1L152.128 26.5498Z" fill="white" stroke="black" stroke-width="2" stroke-miterlimit="10" stroke-linecap="round" stroke-linejoin="round"/>
<path d="M173.517 117.518L172.794 1" stroke="black" stroke-width="2" stroke-miterlimit="10" stroke-linecap="round" stroke-linejoin="round"/>
<path d="M172.047 98.8111L154.452 87.3977L153.455 28.0435L171.161 6.77002L172.047 98.8111Z" fill="white" stroke="black" stroke-width="2" stroke-miterlimit="10" stroke-linecap="round" stroke-linejoin="round"/>
<path d="M174.522 53.3326C174.522 53.3326 201 118.058 201 120.226C201 122.394 171.562 127.095 167.963 126.011C164.364 124.927 146.626 117.939 146.626 115.525C146.626 114.441 168.11 115.283 183.131 115.283C187.628 115.283 190.973 115.283 191.1 114.922C191.227 114.561 175.416 73.701 175.416 73.701L174.522 53.3326Z" fill="white" stroke="black" stroke-width="2" stroke-miterlimit="10" stroke-linecap="round" stroke-linejoin="round"/>
<path d="M172.047 98.8111L154.452 87.3977L153.455 28.0435L171.161 6.77002L172.047 98.8111Z" fill="white" stroke="black" stroke-width="2" stroke-miterlimit="10" stroke-linecap="round" stroke-linejoin="round"/>
</svg>
